<svg width="24" height="33" viewBox="0 0 24 33" fill="none" xmlns="http://www.w3.org/2000/svg">
<path d="M8.84577 7.26062C6.65744 8.64214 6.08275 12.4982 4.8973 15.3063C3.81102 17.88 2.69995 20.2216 2.69995 22.0719C2.69995 26.4215 6.28783 29.9486 10.7141 29.9486C15.1403 29.9486 18.7282 26.4215 18.7282 22.0719C18.7282 20.4718 18.0431 18.4818 17.1213 16.3588C10.3557 15.2342 9.08242 9.86589 8.84352 7.26062H8.84577Z" fill="#DBDF80"/>
<path d="M23.017 13.8324C15.5663 12.7055 17.1957 4.70715 10.705 4.70715C10.5022 7.67076 11.1941 16.6472 23.017 13.8324Z" fill="#91A93E"/>
<path d="M10.8831 5.06323C17.3737 5.06323 14.1735 10.0642 22.6699 13.8391C13.4095 13.8504 15.3882 8.43476 10.8831 5.06323Z" fill="#ECEFBB"/>
<path d="M23.1184 13.163C19.6657 12.6401 18.3879 10.5938 17.0357 8.42797C16.4632 7.51072 15.884 6.58219 15.1313 5.81594C14.2794 4.87164 13.1413 4.21582 11.4736 4.06482C11.5975 3.2873 11.8927 2.00494 12.5553 1.06515C12.7717 0.760901 12.6973 0.337208 12.3931 0.123107C12.0888 -0.0909938 11.6651 -0.0188754 11.451 0.285373C10.5721 1.53167 10.2318 3.17912 10.1078 4.0558C6.16611 4.36231 4.95137 7.65946 3.66901 11.1459C3.39632 11.8851 3.11686 12.6514 2.8036 13.4041C2.63908 13.8008 2.47456 14.1929 2.31229 14.5783C1.12234 17.4044 0 20.0751 0 22.2837C0 28.1929 4.80713 33 10.7163 33C16.6255 33 21.4326 28.1929 21.4326 22.2837C21.4326 20.7737 21.0157 18.9685 20.1187 16.5976C19.9858 16.2483 19.5959 16.0725 19.2466 16.2032C18.8972 16.3362 18.7214 16.7261 18.8522 17.0754C19.677 19.257 20.0782 20.9608 20.0782 22.2814C20.0782 27.4446 15.8773 31.6455 10.7141 31.6455C5.55085 31.6455 1.34996 27.4446 1.34996 22.2814C1.34996 20.3455 2.42272 17.7966 3.55633 15.0989C3.72085 14.709 3.88537 14.3169 4.04989 13.918C4.37217 13.1382 4.65839 12.3607 4.93559 11.6079C6.12329 8.37614 7.08111 5.77763 10.0019 5.42154C9.99063 7.25379 10.3445 10.8845 13.0218 13.154C14.5093 14.4115 16.4655 15.0426 18.8702 15.0426C20.1751 15.0426 21.6107 14.8578 23.1725 14.4836C23.488 14.4093 23.7044 14.1208 23.6908 13.7985C23.6773 13.4762 23.4362 13.2058 23.1161 13.1585L23.1184 13.163ZM13.8985 12.1263C11.6268 10.2039 11.3541 6.92701 11.3586 5.41704C11.3721 5.41704 11.3857 5.41929 11.3969 5.42154C13.7227 5.67395 14.6918 7.2245 15.8885 9.14465C16.9027 10.7718 18.016 12.5567 20.1345 13.6385C17.4661 13.8819 15.3747 13.3793 13.8985 12.1285V12.1263Z" fill="#4D5A2C"/>
<path d="M15.2778 22.3987C15.2778 24.9386 13.2179 26.9985 10.678 26.9985C8.13809 26.9985 6.07822 24.9386 6.07822 22.3987C6.07822 19.8588 8.13809 16.2258 10.678 16.2258C13.2179 16.2258 15.2778 19.8588 15.2778 22.3987Z" fill="#8B5E3C"/>
</svg>
