<svg width="149" height="193" viewBox="0 0 149 193" fill="none" xmlns="http://www.w3.org/2000/svg">
<path d="M33.7641 184.246C33.8081 184.246 33.8301 184.268 33.8301 184.312C33.8301 184.356 33.8081 184.378 33.7641 184.378C33.7202 184.378 33.6982 184.356 33.6982 184.312C33.6982 184.268 33.7202 184.246 33.7641 184.246ZM37.8299 184.539C37.8299 184.641 37.7859 184.641 37.5515 184.671C36.731 184.773 36.3062 184.846 36.0058 184.934L35.6689 185.044C35.6689 185.513 35.6835 185.967 35.6835 186.436L35.874 186.414C36.0058 186.392 36.0864 186.414 36.1303 186.495C36.1889 186.597 36.1963 186.605 36.3062 186.509C36.3648 186.465 36.4087 186.429 36.4747 186.429C36.5333 186.429 36.5845 186.443 36.6871 186.473C36.8995 186.539 36.9655 186.597 37.0314 186.795C37.0681 186.883 37.0754 186.971 37.0754 187.037C37.0754 187.117 37.0607 187.169 37.0314 187.169C37.0094 187.169 36.9875 187.154 36.9655 187.11C36.9215 187.051 36.8996 187.095 36.8996 187.264C36.8996 187.396 36.9362 187.506 36.9581 187.506C36.9948 187.506 37.0168 187.586 37.0168 187.674C37.0168 187.755 36.9948 187.828 36.9581 187.828C36.8995 187.828 36.9362 187.865 36.9362 187.894C36.9362 187.975 35.9912 188.062 35.9252 188.07L35.7274 188.099V189.403C36.482 189.374 37.2365 189.344 37.9984 189.315L38.1742 189.506C38.2841 189.63 38.3427 189.762 38.3427 189.872C38.3427 190.048 38.2109 190.004 38.2109 190.084C38.2109 190.114 38.2328 190.172 38.2988 190.26C38.3867 190.392 38.4306 190.517 38.4306 190.626C38.4306 191.037 37.8299 190.963 37.3977 191.007C37.1413 191.044 35.9106 191.11 35.3978 191.11C34.885 191.11 34.6872 191.066 34.6872 190.963C34.6872 190.927 34.6725 190.905 34.6432 190.919C34.6213 190.927 34.4747 190.876 34.3429 190.81L34.1011 190.685L34.0865 189.894C34.0718 189.081 34.0499 186.649 34.0425 185.645C34.0425 185.103 34.0279 185.081 33.8887 185.081C33.7568 185.081 33.7422 185.059 33.7349 184.795V184.693C33.7349 184.546 33.7568 184.502 33.8154 184.502H33.8374C33.918 184.517 33.94 184.487 33.9253 184.4C33.9107 184.312 33.8447 183.953 33.8447 183.792C33.8447 183.63 33.9546 183.623 34.6579 183.513C34.8044 183.491 34.8923 183.484 34.9582 183.484C35.0461 183.484 35.0901 183.506 35.134 183.564C35.2146 183.667 35.222 183.667 35.3465 183.506C35.4491 183.374 35.5809 183.33 36.0498 183.242C36.5626 183.154 36.6578 183.074 37.0168 183.074C37.2072 183.074 37.3757 183.11 37.3757 183.154C37.3757 183.191 37.4123 183.191 37.4563 183.147C37.5808 183.022 37.6541 183.044 37.6321 183.213C37.6102 183.337 37.6468 183.345 37.7347 183.345C37.8665 183.345 38.035 183.521 38.035 183.667C38.035 183.733 37.9911 183.814 37.9691 183.792H37.9545C37.8739 183.792 37.5515 184.026 37.5515 184.092C37.5515 184.092 37.5564 184.097 37.5662 184.107C37.6761 184.151 37.5222 184.253 37.698 184.253C37.8079 184.253 37.8519 184.385 37.8519 184.539H37.8299ZM34.6506 186.158C34.5627 186.158 34.4747 186.165 34.4381 186.202C34.3722 186.268 34.4161 186.334 34.5407 186.334C34.6213 186.334 34.6652 186.363 34.6432 186.4C34.6213 186.443 34.6286 186.465 34.6652 186.465C34.7311 186.465 34.8117 186.319 34.8117 186.202C34.8117 186.165 34.7458 186.158 34.6579 186.158H34.6506ZM35.0388 186.414C34.9729 186.414 34.9363 186.414 34.9582 186.436C35.0022 186.48 35.2 186.421 35.0388 186.414ZM35.5003 183.66C35.4344 183.66 35.3978 183.667 35.4198 183.696C35.4637 183.74 35.6615 183.674 35.5003 183.66ZM35.764 184.18C35.764 184.18 35.6175 184.312 35.7201 184.312C35.7641 184.312 35.786 184.282 35.786 184.246C35.786 184.202 35.786 184.18 35.764 184.18ZM37.0314 183.982C37.0314 183.982 36.9655 184.026 36.9655 184.085C36.9655 184.143 37.0021 184.187 37.0314 184.187C37.0607 184.187 37.0973 184.143 37.0973 184.085C37.0973 184.026 37.0607 183.982 37.0314 183.982ZM37.2659 184.436C37.2072 184.524 37.2512 184.59 37.3538 184.561C37.4343 184.539 37.3391 184.319 37.2659 184.436ZM37.4197 184.246C37.2438 184.246 37.4856 184.422 37.4856 184.312C37.4856 184.268 37.449 184.246 37.4197 184.246Z" fill="#8B5E3C"/>
<path d="M38.8484 188.253C38.8484 187.432 39.0022 186.773 39.3392 186.128C39.559 185.696 39.5956 185.638 39.9033 185.315C40.1817 185.015 40.3721 184.905 40.7384 184.802C40.863 184.773 40.9728 184.759 41.0534 184.759C41.1853 184.759 41.2878 184.839 41.4124 184.839C41.5223 184.839 42.1889 185.227 42.1889 185.286C42.1889 185.286 42.1743 185.293 42.167 185.293C42.101 185.293 42.2768 185.425 42.3574 185.425C42.3794 185.425 42.4013 185.301 42.4013 185.161C42.4013 184.993 42.4233 184.905 42.4819 184.905C42.5259 184.905 42.6358 184.883 42.7164 184.861C42.8263 184.824 42.8629 184.846 42.8629 184.927C42.8629 184.986 42.8995 185.03 42.9435 185.03C42.9801 185.03 43.0021 184.993 42.9801 184.942C42.9435 184.861 42.9801 184.854 43.2145 184.883C43.3684 184.905 43.5295 184.942 43.5735 184.971C43.6541 185.03 43.7712 185.484 43.7859 185.718C43.8006 186.026 43.8518 186.421 43.8885 186.451C43.9104 186.473 43.9251 186.539 43.9251 186.605C43.9251 186.693 43.9031 186.802 43.8592 186.824C43.8152 186.846 43.8226 186.912 43.8592 186.978C43.8958 187.044 43.9397 187.425 43.9617 187.813C44.0057 188.605 44.1302 189.85 44.1302 190.619C44.1302 190.978 44.1082 191.183 44.0643 191.22C44.0277 191.242 44.0057 191.322 44.0277 191.388C44.0277 191.403 44.0423 191.425 44.0423 191.447C44.0423 191.615 43.8225 191.835 43.6833 191.835C43.5441 191.835 43.6394 191.645 43.4269 191.755C43.3464 191.799 43.2292 191.835 43.1486 191.835C43.0826 191.835 43.0167 191.864 43.0167 191.901C43.0167 191.938 42.9727 191.938 42.9141 191.879C42.8555 191.821 42.8116 191.747 42.8116 191.711C42.8116 191.674 42.7749 191.63 42.7237 191.608C42.6797 191.586 42.5991 191.418 42.5552 191.22C42.5112 191 42.4892 190.897 42.4013 190.897C42.3354 190.897 42.2329 190.956 42.079 191.066C41.8226 191.242 41.4417 191.344 41.0095 191.344C39.5956 191.344 38.8704 190.253 38.8704 188.253H38.8484ZM40.2403 185.953C40.1963 185.953 40.1743 185.975 40.1743 186.019C40.1743 186.063 40.1963 186.084 40.2403 186.084C40.2842 186.084 40.3062 186.063 40.3062 186.019C40.3062 185.975 40.2842 185.953 40.2403 185.953ZM41.09 186.539C40.9802 186.539 40.6871 187.176 40.5919 187.638C40.5333 187.901 40.504 188.136 40.504 188.363C40.504 188.597 40.5406 188.817 40.5919 189.11C40.7018 189.645 40.8043 189.799 41.09 189.799C41.5809 189.799 41.5882 189.645 42.0131 189.579L42.3281 189.535V188.788C42.3281 188.099 42.3281 188.04 42.1816 187.887C42.0937 187.799 41.9472 187.572 41.8446 187.396C41.7421 187.22 41.5516 186.949 41.4124 186.81C41.2805 186.663 41.134 186.546 41.09 186.546V186.539ZM40.6285 185.579C40.6285 185.638 40.6652 185.682 40.6945 185.682C40.7384 185.682 40.7604 185.66 40.7604 185.623C40.7604 185.557 40.6285 185.433 40.6285 185.579ZM40.797 186.019C40.797 186.019 40.8117 186.084 40.863 186.084C40.9142 186.084 40.9655 186.063 40.9655 186.048C40.9655 185.982 40.8337 185.945 40.797 186.019ZM40.9729 185.425C40.8849 185.425 40.8263 185.491 40.863 185.557C40.9069 185.623 41.0314 185.572 41.0314 185.476C41.0314 185.44 41.0095 185.418 40.9729 185.418V185.425Z" fill="#8B5E3C"/>
<path d="M46.4303 190.912C46.4303 190.912 46.3863 190.832 46.3204 190.81C46.1519 190.751 45.7343 189.909 45.5732 189.315C45.4486 188.861 45.3314 187.791 45.2948 186.912C45.2801 186.546 45.2728 186.524 45.119 186.509C44.8846 186.502 44.8187 186.502 44.8187 186.444C44.8187 186.378 44.8626 186.312 44.7967 186.268C44.6941 186.202 44.8333 186.092 44.7161 186.026C44.6795 186.004 44.6721 185.982 44.6721 185.945C44.6721 185.865 44.738 185.77 44.738 185.689C44.738 185.652 44.7234 185.623 44.6795 185.608C44.6428 185.601 44.6208 185.572 44.6208 185.542C44.6208 185.455 44.7894 185.286 45.0531 185.14L45.3608 184.971L45.4047 184.326C45.4487 183.762 45.4853 183.506 45.4926 183.125C45.4926 183.044 45.5146 183.066 45.5805 183.162C45.6171 183.22 45.6465 183.242 45.6831 183.242C45.7637 183.242 45.8296 183.14 45.9395 183.14C46.0274 183.14 46.0713 183.242 46.0933 183.484C46.108 183.594 46.1959 183.447 46.1959 183.315C46.1959 183.235 46.2325 183.169 46.2765 183.147C46.3204 183.14 46.3644 183.162 46.3644 183.213C46.3644 183.293 46.5109 183.359 46.6208 183.359C46.7526 183.359 46.7673 183.235 46.9211 183.345C47.031 183.425 47.031 183.455 46.9577 183.557C46.8772 183.645 46.8772 183.667 46.9431 183.711C47.0017 183.748 47.0237 183.902 47.0237 184.187V184.766L47.39 184.781C48.313 184.803 48.3057 184.788 48.3276 184.949C48.3423 185.074 48.3936 185.081 48.5035 185.081C48.628 185.081 48.7159 185.227 48.7159 185.359C48.7159 185.425 48.6939 185.491 48.6353 185.535C48.5767 185.579 48.5474 185.616 48.5474 185.689C48.5474 185.762 48.584 185.901 48.6353 186.099C48.6573 186.187 48.6354 186.209 48.4888 186.209C48.2324 186.209 48.4522 186.268 48.4522 186.334C48.4522 186.392 48.2178 186.414 47.639 186.422L46.9797 186.444V187.198C46.9944 187.909 47.1482 188.824 47.3387 189.323C47.4046 189.498 47.5731 189.616 47.7709 189.616C47.9247 189.616 48.1592 189.506 48.2837 189.506C48.3496 189.506 48.3936 189.528 48.3936 189.564C48.3936 189.601 48.4522 189.645 48.5181 189.652C48.5987 189.674 48.65 189.762 48.6866 189.916C48.7232 190.062 48.7672 190.15 48.8111 190.128H48.8478C48.9137 190.128 49.0456 190.158 49.0456 190.231C49.0456 190.253 49.0236 190.275 48.987 190.297C48.9284 190.333 48.921 190.363 48.965 190.363C49.0016 190.363 49.0236 190.399 49.0236 190.429C49.0236 190.531 48.9137 190.722 48.7452 190.876C48.4668 191.132 48.0786 191.257 47.6244 191.257C47.1702 191.257 46.423 191.044 46.423 190.898L46.4303 190.912Z" fill="#8B5E3C"/>
<path d="M58.8034 183.213C58.8474 183.213 58.8914 183.228 58.972 183.25C59.1038 183.279 59.1184 183.315 59.0818 183.484C59.0672 183.528 59.0671 183.565 59.0671 183.587C59.0671 183.645 59.0818 183.652 59.1038 183.652C59.1478 183.652 59.2137 183.565 59.2283 183.477C59.2503 183.345 59.4408 183.279 59.4408 183.396C59.4408 183.425 59.5507 183.484 59.6752 183.528C59.8657 183.594 59.895 183.652 59.895 183.806C59.895 183.916 59.8583 183.997 59.8144 183.997C59.7485 183.997 59.7485 184.011 59.8144 184.055C59.851 184.077 59.8583 184.121 59.8583 184.224C59.8583 184.444 59.7045 185.55 59.6606 185.579C59.6239 185.601 59.5946 185.733 59.5946 185.879C59.5946 186.026 59.558 186.671 59.514 187.323C59.4481 188.246 59.3895 188.524 59.3162 188.59C59.2357 188.656 59.2356 188.671 59.3016 188.671C59.3455 188.671 59.3675 188.736 59.3675 188.949C59.3675 189.33 59.3016 190.297 59.265 190.48C59.243 190.626 59.2283 190.788 59.2283 190.861C59.2283 190.92 59.1624 191.007 59.0965 191.037C59.0086 191.081 59.0086 191.139 59.0086 191.205C59.0086 191.315 58.7229 191.542 58.6057 191.542C58.5617 191.542 58.5178 191.535 58.4591 191.498C58.3566 191.44 58.2174 191.432 58.1002 191.432C57.9976 191.432 57.8438 191.388 57.7412 191.344C57.331 191.147 57.038 190.678 56.5764 189.462C56.1003 188.194 55.9977 187.923 55.9318 187.652C55.8512 187.33 55.756 187.044 55.712 187.044C55.6095 187.044 55.2578 189.66 55.1113 190.128C55.0527 190.297 54.9868 190.517 54.9794 190.619C54.9355 190.898 54.7377 191.183 54.5692 191.227C54.4886 191.249 54.4227 191.308 54.4227 191.352C54.4227 191.41 54.2762 191.44 54.159 191.44C54.0564 191.44 53.9685 191.418 53.9685 191.381C53.9685 191.344 53.9026 191.337 53.8366 191.337C53.7121 191.337 53.5729 191.366 53.5729 191.44C53.5729 191.55 53.463 191.44 53.4191 191.52C53.3971 191.557 53.3751 191.564 53.3531 191.564C53.2725 191.564 53.1627 191.432 53.0674 191.198C52.9429 190.92 52.3348 188.539 52.203 187.828C52.0125 186.773 51.844 185.645 51.7781 184.905C51.7122 184.26 51.6316 183.923 51.6316 183.784C51.6316 183.704 51.7122 183.66 51.8001 183.66C51.844 183.66 51.9026 183.682 51.9319 183.718C52.0638 183.85 51.8953 183.499 51.9979 183.499C52.0345 183.499 52.0784 183.565 52.0784 183.652C52.0784 183.74 52.1151 183.828 52.1664 183.85C52.225 183.872 52.2323 183.931 52.2323 183.997V184.099C52.2323 184.165 52.2469 184.224 52.3129 184.224C52.3935 184.224 52.4008 184.18 52.3715 184.07C52.3275 183.923 52.3055 183.828 52.3055 183.748C52.3055 183.572 52.4154 183.513 52.6718 183.455C52.8257 183.425 52.8696 183.433 52.8403 183.491C52.8183 183.535 52.8183 183.572 52.855 183.572C52.9136 183.572 53.2139 184.063 53.2139 184.151C53.2139 184.217 53.2725 184.627 53.3678 184.949C53.4923 185.396 53.8586 187.528 53.8879 187.564C53.9026 187.579 53.9538 187.462 53.9904 187.308C54.093 186.905 54.1663 186.649 54.2542 186.231C54.4007 185.55 54.452 185.396 54.5985 185.345C54.6815 185.306 54.6889 185.286 54.6205 185.286C54.5179 185.286 54.5106 185.242 54.5399 185.074C54.5618 184.964 54.6204 184.773 54.6717 184.663C54.723 184.554 54.7743 184.422 54.7743 184.363C54.7743 184.304 54.8183 184.341 54.8403 184.429C54.8696 184.532 54.9038 184.544 54.9428 184.466C55.0014 184.319 55.2065 184.107 55.419 183.989C55.5875 183.887 55.6314 183.88 55.6314 183.967C55.6314 184.07 55.441 183.967 55.441 184.099C55.441 184.129 55.5069 184.158 55.5948 184.158C55.6973 184.158 55.8146 184.129 55.8878 184.07C55.9757 183.989 56.2541 183.923 56.386 183.923C56.4299 183.923 56.4519 183.923 56.4519 183.945C56.4519 184.004 56.4373 184.07 56.5398 184.143C56.6277 184.224 56.6717 184.341 56.6717 184.48C56.6717 184.605 56.7083 184.693 56.7376 184.693C56.7962 184.693 56.9061 184.956 56.972 185.257C57.0526 185.623 57.3383 186.627 57.3969 186.737C57.4335 186.802 57.4555 186.883 57.4555 186.956C57.4555 187.088 57.4116 187.191 57.3237 187.191C57.2431 187.191 57.2138 187.213 57.2138 187.235C57.2138 187.264 57.2943 187.323 57.4262 187.337C57.602 187.359 57.646 187.396 57.69 187.579C57.7266 187.704 57.7339 187.769 57.7559 187.769C57.7778 187.769 57.8145 187.645 57.8364 187.389C57.9829 185.989 58.3712 184.107 58.6276 183.499C58.7082 183.323 58.7302 183.257 58.8181 183.257L58.8034 183.213ZM51.8734 183.858C51.8294 183.858 51.8074 183.887 51.8074 183.923C51.8074 184.048 51.888 184.187 51.9539 184.187C52.0199 184.187 51.9319 184.063 51.9979 184.019C52.0345 183.997 52.0784 183.938 52.0784 183.894C52.0784 183.762 51.9319 184.085 51.9319 183.938C51.9319 183.894 51.91 183.85 51.8734 183.85V183.858ZM52.2176 183.535C52.159 183.535 52.137 183.499 52.159 183.469C52.225 183.367 52.4374 183.535 52.2176 183.535ZM52.9942 184.707C52.9282 184.641 52.9136 184.649 52.9502 184.744C52.9722 184.81 53.0161 184.847 53.0381 184.825C53.0601 184.803 53.0381 184.759 52.9942 184.715V184.707ZM54.8989 184.063C54.8989 184.063 54.9648 184.085 54.9648 184.129C54.9648 184.231 54.8329 184.114 54.8329 184.092C54.8329 184.07 54.8549 184.063 54.8989 184.063ZM55.2358 184.89C55.1479 184.832 55.082 185.059 55.1552 185.125C55.1992 185.162 55.2138 185.162 55.1919 185.14C55.1479 185.081 55.3164 184.949 55.2358 184.898V184.89ZM55.8805 183.792C55.9244 183.792 55.9611 183.814 55.9611 183.858C55.9611 183.902 55.9244 183.923 55.8805 183.923C55.8365 183.923 55.8219 183.902 55.8219 183.858C55.8219 183.814 55.8365 183.792 55.8805 183.792ZM56.0417 185.85C55.778 185.85 56.005 185.916 56.1296 185.879C56.1955 185.857 56.1516 185.85 56.0417 185.85ZM56.1882 186.194C56.2101 186.282 56.2541 186.363 56.2907 186.363C56.3567 186.363 56.3567 186.282 56.3054 186.143C56.2395 185.975 56.1589 186.019 56.1955 186.202L56.1882 186.194ZM56.342 187.418C56.4226 187.418 56.32 187.22 56.2761 187.22C56.1955 187.22 56.2981 187.418 56.342 187.418ZM56.4812 186.949C56.4372 186.949 56.4152 186.978 56.4152 187.015C56.4152 187.059 56.4153 187.081 56.4372 187.081C56.4592 187.081 56.5838 186.949 56.4812 186.949ZM56.4812 187.242C56.4812 187.242 56.5178 187.279 56.5618 187.227C56.7156 187.074 56.4812 187.059 56.4812 187.242ZM56.701 186.297C56.5544 186.297 56.679 186.429 56.7449 186.429C56.7815 186.429 56.8035 186.407 56.8035 186.363C56.8035 186.326 56.7596 186.297 56.701 186.297ZM57.038 186.158C56.9794 186.158 56.9354 186.216 56.9354 186.268C56.9354 186.458 57.1332 186.187 57.1332 186.187C57.1332 186.172 57.0892 186.151 57.0306 186.151L57.038 186.158ZM59.2357 186.231C59.1771 186.268 59.1697 186.297 59.2137 186.297C59.2576 186.297 59.3163 186.268 59.3382 186.231C59.3822 186.15 59.3602 186.15 59.2357 186.231Z" fill="#8B5E3C"/>
<path d="M63.0889 184.539C63.7116 184.539 64.3709 184.729 64.3709 184.964C64.3709 185.022 64.4149 185.11 64.4515 185.14C64.4735 185.162 64.4881 185.183 64.4881 185.205C64.4881 185.264 64.3782 185.286 64.1218 185.315C63.968 185.337 64.0119 185.337 64.2537 185.352C64.576 185.367 64.6346 185.374 64.7079 185.542C64.7885 185.696 64.8105 185.945 64.8105 186.187C64.8105 186.663 64.6859 187.176 64.5247 187.176C64.4442 187.176 64.3709 187.154 64.3343 187.205C64.3123 187.249 64.3196 187.264 64.3709 187.227C64.4149 187.205 64.4515 187.227 64.4515 187.271C64.4515 187.506 63.3087 188.348 62.7593 188.539C62.5688 188.605 62.4223 188.649 62.4223 188.692C62.4223 188.773 62.5541 188.927 62.7593 189.059C63.001 189.227 63.0816 189.235 63.7702 189.257C64.5687 189.279 64.8031 189.359 64.8031 189.623C64.8031 189.733 64.7226 189.96 64.8251 189.901C64.8398 189.894 64.8471 189.894 64.8617 189.894C64.9203 189.894 64.9276 189.996 64.9276 190.084C64.9276 190.15 64.913 190.231 64.913 190.253C64.8984 190.333 64.3783 190.656 64.2757 190.656C64.2171 190.656 64.1731 190.685 64.1511 190.722C64.0925 190.81 63.6384 190.854 63.1842 190.854C62.8838 190.854 62.5981 190.832 62.4149 190.788C62.1952 190.729 61.7263 190.451 61.4553 190.224C60.8912 189.725 60.5322 188.846 60.5322 187.755C60.5322 187.22 60.6128 186.575 60.7081 186.444C60.7301 186.407 60.774 186.29 60.796 186.172C60.8766 185.784 61.719 184.847 61.9827 184.839C62.0267 184.839 62.0707 184.803 62.0853 184.773C62.1 184.737 62.2758 184.663 62.4736 184.605C62.6494 184.546 62.8618 184.539 63.0816 184.539H63.0889ZM63.3306 186.15C63.1548 186.15 62.7226 186.326 62.5981 186.444C62.4735 186.553 62.1439 187.308 62.1439 187.469C62.1439 187.506 62.1879 187.513 62.2685 187.513C62.8032 187.513 62.9937 187.41 63.36 187.081C63.5578 186.905 63.5944 186.824 63.5944 186.627C63.5944 186.385 63.5358 186.158 63.338 186.158L63.3306 186.15ZM64.1805 185.125C64.1805 185.125 64.2171 185.147 64.261 185.103C64.4149 184.949 64.1805 184.949 64.1805 185.125ZM64.2903 185.469C64.2683 185.425 64.2537 185.455 64.2537 185.55C64.2537 185.77 64.3196 185.557 64.2903 185.469Z" fill="#8B5E3C"/>
<path d="M67.1622 186.004C67.316 186.004 67.4039 186.905 67.4772 188.941C67.4918 189.33 67.4991 189.645 67.4991 189.886C67.4991 190.297 67.4845 190.546 67.4406 190.722C67.3819 191 67.316 191.168 67.272 191.168C67.2281 191.168 67.2501 190.971 67.2281 190.971C67.2134 190.971 67.2061 191.007 67.1695 191.117C67.1036 191.337 66.979 191.498 66.9057 191.498C66.8838 191.498 66.8618 191.476 66.8472 191.454C66.8252 191.418 66.8032 191.41 66.7666 191.41C66.7226 191.41 66.6787 191.432 66.642 191.432C66.6054 191.432 66.5834 191.41 66.5834 191.33C66.5834 191.198 66.4809 191.154 66.4149 191.249C66.3563 191.337 66.5614 191.33 66.4955 191.44C66.4296 191.549 66.327 191.527 66.3417 191.396C66.3417 191.33 66.2831 191.249 66.1952 191.22C66.1073 191.19 66.0413 191.11 66.0267 191.029C65.8582 190.106 65.8143 188.692 65.7483 187.594C65.7263 187.205 65.7117 186.905 65.7117 186.627C65.7117 186.392 65.7337 186.18 65.7337 185.967C65.7337 185.865 65.719 185.711 65.697 185.586C65.6604 185.41 65.6531 185.008 65.6531 184.656C65.6531 184.334 65.6677 184.041 65.6897 183.975C65.7117 183.909 65.7044 183.865 65.6531 183.865C65.6165 183.865 65.6091 183.806 65.6091 183.733C65.6091 183.623 65.6458 183.455 65.697 183.264C65.719 183.198 65.741 183.176 65.9754 183.176C66.1293 183.176 66.3783 183.183 66.7666 183.205C66.9424 183.22 67.0523 183.293 67.0523 183.381C67.0523 183.403 67.0376 183.425 67.0303 183.447C67.0157 183.469 67.0083 183.491 67.0083 183.513C67.0083 183.638 67.1548 183.777 67.1548 183.894C67.1548 183.938 67.0889 184.092 67.0889 184.172C67.0889 184.209 67.1035 184.231 67.1255 184.231C67.2061 184.231 67.2574 184.795 67.2574 185.022C67.2574 185.279 67.1988 185.367 67.0596 185.367H67.0449C66.957 185.367 66.957 185.374 66.9424 185.813V185.916C66.9424 186.084 66.9571 186.158 66.9864 186.158C67.0157 186.158 67.0962 186.011 67.1402 186.011L67.1622 186.004ZM65.8948 185.169C65.8948 185.169 65.8289 185.235 65.8289 185.301C65.8289 185.33 65.8435 185.359 65.8655 185.381C65.9241 185.44 65.9461 185.403 65.9461 185.301C65.9461 185.198 65.9241 185.169 65.9021 185.169H65.8948ZM66.1805 184.114C66.0999 184.114 66.078 184.26 65.9607 184.216C65.8435 184.172 65.8508 184.282 65.9827 184.363C66.0486 184.4 66.0706 184.473 66.0487 184.561C66.0267 184.641 66.034 184.707 66.0707 184.707C66.1805 184.707 66.0706 184.37 66.2245 184.583C66.349 184.759 66.3563 184.737 66.3563 184.641C66.3563 184.575 66.4882 184.422 66.5688 184.422H66.5834C66.5834 184.422 66.664 184.422 66.708 184.4C66.8398 184.356 66.7959 184.187 66.6494 184.187C66.5834 184.187 66.5248 184.231 66.5248 184.29C66.5248 184.348 66.4662 184.392 66.4003 184.392C66.2904 184.392 66.1586 184.29 66.1586 184.216C66.1586 184.194 66.2245 184.129 66.1805 184.129V184.114ZM66.1439 185.161C66.1439 185.161 66.0853 185.227 66.0853 185.293C66.0853 185.469 66.1878 185.374 66.1878 185.264C66.1878 185.205 66.1732 185.161 66.1439 185.161ZM66.7153 190.612C66.7153 190.568 66.6274 190.546 66.5395 190.546C66.4516 190.546 66.3417 190.568 66.3197 190.612C66.2757 190.678 66.2538 190.67 66.1952 190.59C66.1512 190.531 66.1292 190.531 66.1292 190.575C66.1292 190.619 66.2098 190.729 66.2977 190.832C66.4003 190.941 66.4662 190.963 66.4662 190.912C66.4662 190.802 66.7226 190.7 66.7226 190.612H66.7153ZM66.2831 189.879C66.2172 189.879 66.1952 189.901 66.2391 189.945C66.2611 189.967 66.3051 189.982 66.3417 189.982C66.4296 189.982 66.5175 189.923 66.5175 189.85C66.5175 189.784 66.4589 189.718 66.4076 189.696C66.2757 189.652 66.4442 189.886 66.2831 189.886V189.879ZM66.2611 186.561C66.2611 186.619 66.2977 186.663 66.327 186.663C66.371 186.663 66.3929 186.641 66.3929 186.605C66.3929 186.539 66.2611 186.414 66.2611 186.561ZM66.4955 187.916C66.4296 187.916 66.393 187.931 66.4149 187.953C66.4589 187.996 66.6567 187.931 66.4955 187.916ZM66.5907 184.048C66.5907 184.048 66.6274 184.114 66.6787 184.114C66.7299 184.114 66.7812 184.107 66.7812 184.092C66.7812 184.07 66.5907 183.96 66.5907 184.048ZM66.7812 185.227C66.7812 185.227 66.7153 185.271 66.7153 185.33C66.7153 185.389 66.7519 185.432 66.7812 185.432C66.8105 185.432 66.8472 185.389 66.8472 185.33C66.8472 185.271 66.8105 185.227 66.7812 185.227ZM66.8472 185.879C66.8032 185.879 66.7812 185.916 66.7812 185.945C66.7812 185.989 66.7959 186.011 66.8178 186.011C66.8398 186.011 66.9497 185.879 66.8545 185.879H66.8472ZM67.2501 185.557C67.316 185.682 67.3087 185.689 67.2061 185.667C67.1402 185.652 67.0743 185.586 67.0596 185.535C67.023 185.381 67.1622 185.389 67.2501 185.557ZM67.2354 185.747C67.2354 185.747 67.316 185.769 67.316 185.813C67.316 185.916 67.1841 185.799 67.1841 185.777C67.1841 185.755 67.1988 185.747 67.2427 185.747H67.2354Z" fill="#8B5E3C"/>
<path d="M69.8507 186.004C70.0045 186.004 70.0924 186.905 70.1657 188.941C70.1803 189.33 70.1876 189.645 70.1876 189.886C70.1876 190.297 70.173 190.546 70.129 190.722C70.0704 191 70.0045 191.168 69.9606 191.168C69.9166 191.168 69.9386 190.971 69.9166 190.971C69.902 190.971 69.8946 191.007 69.858 191.117C69.7921 191.337 69.6675 191.498 69.5943 191.498C69.5723 191.498 69.5503 191.476 69.5357 191.454C69.5137 191.418 69.4917 191.41 69.4551 191.41C69.4111 191.41 69.3671 191.432 69.3305 191.432C69.2939 191.432 69.2719 191.41 69.2719 191.33C69.2719 191.198 69.1693 191.154 69.1034 191.249C69.0448 191.337 69.25 191.33 69.184 191.44C69.1181 191.549 69.0155 191.527 69.0302 191.396C69.0302 191.33 68.9716 191.249 68.8837 191.22C68.7957 191.19 68.7298 191.11 68.7152 191.029C68.5467 190.106 68.5027 188.692 68.4368 187.594C68.4148 187.205 68.4002 186.905 68.4002 186.627C68.4002 186.392 68.4221 186.18 68.4221 185.967C68.4221 185.865 68.4075 185.711 68.3855 185.586C68.3489 185.41 68.3416 185.008 68.3416 184.656C68.3416 184.334 68.3562 184.041 68.3782 183.975C68.4002 183.909 68.3928 183.865 68.3416 183.865C68.3049 183.865 68.2976 183.806 68.2976 183.733C68.2976 183.623 68.3342 183.455 68.3855 183.264C68.4075 183.198 68.4295 183.176 68.6639 183.176C68.8177 183.176 69.0668 183.183 69.4551 183.205C69.6309 183.22 69.7407 183.293 69.7407 183.381C69.7407 183.403 69.7261 183.425 69.7188 183.447C69.7041 183.469 69.6968 183.491 69.6968 183.513C69.6968 183.638 69.8433 183.777 69.8433 183.894C69.8433 183.938 69.7774 184.092 69.7774 184.172C69.7774 184.209 69.7921 184.231 69.814 184.231C69.8946 184.231 69.9459 184.795 69.9459 185.022C69.9459 185.279 69.8873 185.367 69.7481 185.367H69.7335C69.6456 185.367 69.6455 185.374 69.6309 185.813V185.916C69.6309 186.084 69.6455 186.158 69.6748 186.158C69.7041 186.158 69.7847 186.011 69.8287 186.011L69.8507 186.004ZM68.5833 185.169C68.5833 185.169 68.5174 185.235 68.5174 185.301C68.5174 185.33 68.532 185.359 68.554 185.381C68.6126 185.44 68.6346 185.403 68.6346 185.301C68.6346 185.198 68.6126 185.169 68.5906 185.169H68.5833ZM68.8763 184.114C68.7957 184.114 68.7738 184.26 68.6566 184.216C68.5393 184.172 68.5467 184.282 68.6786 184.363C68.7445 184.4 68.7664 184.473 68.7445 184.561C68.7225 184.641 68.7298 184.707 68.7665 184.707C68.8763 184.707 68.7664 184.37 68.9203 184.583C69.0448 184.759 69.0521 184.737 69.0521 184.641C69.0521 184.575 69.184 184.422 69.2646 184.422H69.2792C69.2792 184.422 69.3598 184.422 69.4038 184.4C69.5357 184.356 69.4917 184.187 69.3452 184.187C69.2792 184.187 69.2207 184.231 69.2207 184.29C69.2207 184.348 69.162 184.392 69.0961 184.392C68.9862 184.392 68.8544 184.29 68.8544 184.216C68.8544 184.194 68.9203 184.129 68.8763 184.129V184.114ZM68.8397 185.161C68.8397 185.161 68.7811 185.227 68.7811 185.293C68.7811 185.469 68.8837 185.374 68.8837 185.264C68.8837 185.205 68.869 185.161 68.8397 185.161ZM69.4038 190.612C69.4038 190.568 69.3159 190.546 69.228 190.546C69.1401 190.546 69.0302 190.568 69.0082 190.612C68.9642 190.678 68.9423 190.67 68.8837 190.59C68.8397 190.531 68.8177 190.531 68.8177 190.575C68.8177 190.619 68.8983 190.729 68.9862 190.832C69.0888 190.941 69.1547 190.963 69.1547 190.912C69.1547 190.802 69.4111 190.7 69.4111 190.612H69.4038ZM68.9716 189.879C68.9056 189.879 68.8837 189.901 68.9276 189.945C68.9496 189.967 68.9935 189.982 69.0302 189.982C69.1181 189.982 69.206 189.923 69.206 189.85C69.206 189.784 69.1474 189.718 69.0961 189.696C68.9642 189.652 69.1327 189.886 68.9716 189.886V189.879ZM68.9496 186.561C68.9496 186.619 68.9862 186.663 69.0155 186.663C69.0595 186.663 69.0815 186.641 69.0815 186.605C69.0815 186.539 68.9496 186.414 68.9496 186.561ZM69.184 187.916C69.1181 187.916 69.0814 187.931 69.1034 187.953C69.1474 187.996 69.3452 187.931 69.184 187.916ZM69.2866 184.048C69.2866 184.048 69.3232 184.114 69.3745 184.114C69.4257 184.114 69.477 184.107 69.477 184.092C69.477 184.07 69.2866 183.96 69.2866 184.048ZM69.477 185.227C69.477 185.227 69.4111 185.271 69.4111 185.33C69.4111 185.389 69.4477 185.432 69.477 185.432C69.5063 185.432 69.543 185.389 69.543 185.33C69.543 185.271 69.5063 185.227 69.477 185.227ZM69.543 185.879C69.499 185.879 69.477 185.916 69.477 185.945C69.477 185.989 69.4917 186.011 69.5137 186.011C69.5356 186.011 69.6456 185.879 69.5503 185.879H69.543ZM69.9386 185.557C70.0045 185.682 69.9972 185.689 69.8946 185.667C69.8287 185.652 69.7627 185.586 69.7481 185.535C69.7115 185.381 69.8506 185.389 69.9386 185.557ZM69.9312 185.747C69.9312 185.747 70.0118 185.769 70.0118 185.813C70.0118 185.916 69.8799 185.799 69.8799 185.777C69.8799 185.755 69.8946 185.747 69.9386 185.747H69.9312Z" fill="#8B5E3C"/>
<path d="M71.2352 190.253C71.2352 190.15 71.2571 190.084 71.3377 189.975C71.4403 189.843 71.4623 189.777 71.4037 189.755C71.3011 189.718 71.3011 189.579 71.4183 189.484C71.4989 189.418 71.9091 189.337 72.1436 189.337C72.4293 189.337 72.6344 189.425 72.7223 189.579C72.7589 189.645 72.8468 189.747 72.9128 189.791C72.9787 189.835 73.0373 189.938 73.0373 190.011C73.0373 190.143 73.1179 190.209 73.1179 190.333C73.1179 190.59 72.8834 191.242 72.671 191.586C72.5611 191.762 72.3853 192.062 72.2828 192.245C71.9824 192.788 71.8066 193 71.6161 193C71.5062 193 71.4403 192.956 71.4183 192.868C71.3964 192.78 71.3158 192.714 71.1986 192.692C71.096 192.67 70.9788 192.634 70.9788 192.59C70.9788 192.524 71.0667 192.253 71.1766 191.945C71.3304 191.535 71.3963 191.3 71.3963 191.191C71.3963 191.132 71.3817 191.103 71.3377 191.103C71.2718 191.103 71.3158 190.927 71.3158 190.846C71.3158 190.678 71.2498 190.399 71.2498 190.246L71.2352 190.253Z" fill="#8B5E3C"/>
<path d="M77.8868 184.949C77.8868 185.125 77.7989 185.249 77.6744 185.249C77.6084 185.249 77.5498 185.271 77.5498 185.308C77.5498 185.345 77.6157 185.337 77.7037 185.33L77.8575 185.293V186.788C77.8575 188.231 77.9161 189.469 77.9894 189.535H78.0333C78.1359 189.535 78.3776 189.513 78.634 189.454C79.2787 189.322 80.0918 189.213 80.4142 189.213C80.5607 189.213 80.6706 189.235 80.568 189.359C80.5241 189.418 80.5094 189.484 80.5314 189.528C80.5754 189.608 80.5973 189.747 80.5973 189.872C80.5973 189.974 80.5827 190.07 80.5534 190.106C80.5314 190.136 80.5167 190.172 80.5167 190.216C80.5167 190.282 80.5387 190.363 80.5387 190.436C80.5387 190.458 80.5387 190.48 80.5241 190.517C80.4435 190.773 78.0187 191.33 77.2422 191.33C77.0957 191.33 77.0077 191.308 77.0077 191.264C77.0077 191.132 76.8979 191.154 76.8173 191.286C76.7587 191.388 76.7294 191.388 76.5828 191.308C76.3631 191.183 76.3484 191.154 76.3045 190.392C76.2239 189.213 76.1726 188.7 76.1726 186.964C76.1726 185.755 76.2385 185.052 76.3045 184.26C76.3411 183.894 76.4143 183.601 76.5169 183.528C76.5755 183.484 76.6048 183.425 76.6048 183.396C76.6048 183.367 76.6634 183.264 76.7147 183.176C76.8246 183.008 76.8173 183 76.9345 183.132C77.0004 183.198 77.1543 183.301 77.2788 183.345C77.4326 183.403 77.5205 183.469 77.5425 183.579C77.5645 183.667 77.6304 183.733 77.6744 183.733C77.7989 183.733 77.8868 183.967 77.8868 184.268C77.8868 184.568 77.8502 184.744 77.7549 184.744C77.7183 184.744 77.6671 184.722 77.6085 184.678C77.4766 184.59 77.4546 184.59 77.4546 184.678C77.4546 184.81 77.8575 184.832 77.8575 184.956L77.8868 184.949ZM76.8612 185.264C76.5975 185.264 76.8173 185.33 76.9418 185.293C77.0077 185.271 76.9784 185.264 76.8612 185.264ZM76.9491 184.912C76.9491 184.912 76.8905 184.956 76.8905 185.015C76.8905 185.074 76.9052 185.118 76.9125 185.118C76.9345 185.118 77.037 184.92 76.9491 184.92V184.912ZM77.0077 184.37C76.9858 184.312 76.9638 184.334 76.9638 184.414C76.9491 184.583 77.0517 184.48 77.0077 184.37ZM77.4399 184.326C77.4399 184.326 77.418 184.37 77.418 184.429C77.418 184.488 77.4546 184.517 77.4839 184.517C77.5718 184.517 77.4619 184.326 77.4399 184.326ZM77.5498 184.912C77.4693 184.912 77.4693 184.993 77.5498 185.11C77.6084 185.191 77.6157 185.176 77.6157 185.052C77.6157 184.971 77.5791 184.905 77.5498 184.905V184.912Z" fill="#8B5E3C"/>
<path d="M82.2089 190.458C82.2089 190.414 82.1723 190.399 82.121 190.399C82.0698 190.399 81.9892 190.421 81.9306 190.48C81.8646 190.546 81.828 190.539 81.806 190.48C81.7621 190.348 81.6376 190.392 81.6815 190.524C81.7181 190.627 81.6961 190.634 81.5277 190.627C81.4178 190.619 81.3152 190.605 81.3079 190.597C81.2639 190.553 81.2419 189.894 81.2419 189.073C81.2419 187.594 81.3006 185.55 81.3885 185.381C81.4104 185.337 81.513 185.381 81.5789 185.447C81.6229 185.491 81.6595 185.491 81.6595 185.462C81.6595 185.433 81.7401 185.396 81.828 185.396C81.9525 185.381 81.9965 185.418 82.0038 185.528C82.0136 185.616 82.0258 185.613 82.0405 185.521C82.0551 185.44 82.099 185.374 82.143 185.374C82.3335 185.374 82.5239 185.462 82.5239 185.55C82.5239 185.616 82.5606 185.616 82.6485 185.594C82.751 185.564 82.8023 185.608 82.8463 185.726C82.8902 185.828 82.9049 186.839 82.9049 187.894C82.9049 189.081 82.8829 190.341 82.8389 190.399C82.773 190.487 82.6485 190.363 82.6485 190.502C82.6485 190.59 82.5606 190.7 82.4507 190.7C82.3408 190.7 82.2163 190.619 82.2163 190.531C82.2163 190.509 82.2309 190.487 82.2309 190.465L82.2089 190.458ZM81.6888 182.993C81.7474 182.993 81.7767 183.037 81.9086 183.037C82.0331 183.037 82.187 183.015 82.2456 182.979C82.2895 182.957 82.3115 182.964 82.3115 183.008C82.3115 183.052 82.3555 183.066 82.4141 183.066C82.502 183.066 82.6485 183.03 82.7291 183.03C82.8609 183.03 82.9928 183.162 82.9928 183.294C82.9928 183.33 82.9928 183.352 82.9708 183.381C82.9049 183.506 83.0294 183.579 82.8683 183.579C82.7584 183.579 82.7584 183.587 82.8902 183.645C82.9781 183.682 83.0367 183.711 83.0367 183.755C83.0367 183.799 82.9781 183.865 82.8829 183.953C82.7803 184.041 82.7364 184.151 82.7584 184.231C82.8023 184.385 82.6558 184.407 82.6045 184.268C82.5459 184.121 82.4507 184.143 82.4507 184.297C82.4507 184.422 82.4361 184.422 82.3188 184.356C82.187 184.29 82.187 184.275 82.2968 184.187C82.3628 184.129 82.3848 184.107 82.3408 184.129C82.2968 184.151 82.2383 184.129 82.2163 184.092C82.2016 184.07 82.1796 184.07 82.1503 184.07C82.0697 184.07 81.9379 184.129 81.8719 184.129C81.8573 184.129 81.85 184.129 81.8353 184.114C81.8133 184.092 81.7767 184.129 81.7548 184.18C81.7108 184.282 81.5862 184.334 81.6009 184.239C81.6229 184.07 81.579 184.019 81.4544 184.063C81.3226 184.107 81.3079 184.085 81.3665 183.916C81.4031 183.814 81.4324 183.594 81.4324 183.425C81.4324 183.191 81.469 183.088 81.5643 183.022C81.6229 182.979 81.6522 182.964 81.6888 182.964V182.993Z" fill="#8B5E3C"/>
<path d="M87.8498 184.912C87.9743 184.912 88.1428 184.956 88.1428 185.066C88.1428 185.088 88.1428 185.103 88.1281 185.125C88.1281 185.14 88.1135 185.147 88.1135 185.162C88.1135 185.206 88.1574 185.206 88.2234 185.206C88.3259 185.206 88.4578 185.184 88.5677 185.184C88.7142 185.184 88.7801 185.213 88.868 185.293L89.0145 185.418L88.4285 187.03C88.1061 187.909 87.8204 188.678 87.7838 188.729C87.6739 188.92 87.271 190.341 87.1831 190.832C87.1391 191.095 87.0952 191.33 87.0806 191.344C87.0659 191.352 86.9927 191.33 86.8901 191.279C86.7875 191.22 86.6703 191.198 86.6264 191.213C86.5824 191.235 86.5238 191.191 86.5018 191.132C86.4798 191.073 86.3993 191.029 86.326 191.029C86.2381 191.029 86.1941 191 86.1941 190.92C86.1941 190.854 86.1575 190.766 86.1282 190.707C86.0696 190.619 86.0476 190.619 85.9378 190.751C85.8572 190.839 85.7692 190.905 85.7253 190.898H85.6887C85.6081 190.898 85.5129 190.942 85.425 190.942C85.381 190.942 85.3444 190.942 85.3151 190.905C85.2271 190.824 84.9927 190.194 84.6118 188.993C84.4873 188.612 84.3774 188.246 84.3481 188.172C84.2162 187.872 83.5349 185.748 83.5349 185.645C83.5349 185.623 83.6155 185.667 83.6594 185.704C83.74 185.77 83.784 185.77 83.8572 185.704C83.9891 185.594 84.1429 185.623 84.3041 185.55C84.3407 185.535 84.37 185.528 84.4067 185.528C84.5166 185.528 84.6411 185.572 84.7437 185.572C84.8023 185.572 84.8462 185.557 84.8755 185.528C84.9341 185.469 84.9634 185.447 85.0074 185.447C85.066 185.447 85.11 185.506 85.1539 185.616C85.1979 185.718 85.3077 185.975 85.4103 186.194C85.652 186.737 86.0696 188.026 86.0696 188.26C86.0696 188.363 86.1062 188.473 86.1502 188.48C86.1941 188.495 86.2601 188.605 86.304 188.722L86.3846 188.956L86.4286 188.59C86.4945 188.026 86.6483 187.352 86.8388 186.751C86.9414 186.444 87.0512 186.048 87.0952 185.872C87.1391 185.704 87.2417 185.484 87.3077 185.381C87.3736 185.279 87.4175 185.162 87.4175 185.103C87.4175 185.059 87.4834 185.015 87.5494 185C87.7032 184.978 87.6959 184.898 87.8571 184.898L87.8498 184.912Z" fill="#8B5E3C"/>
<path d="M92.0547 184.539C92.6774 184.539 93.3367 184.729 93.3367 184.964C93.3367 185.022 93.3806 185.11 93.4173 185.14C93.4393 185.162 93.4539 185.183 93.4539 185.205C93.4539 185.264 93.344 185.286 93.0876 185.315C92.9338 185.337 92.9778 185.337 93.2195 185.352C93.5418 185.367 93.6004 185.374 93.6737 185.542C93.7543 185.696 93.7762 185.945 93.7762 186.187C93.7762 186.663 93.6517 187.176 93.4906 187.176C93.41 187.176 93.3367 187.154 93.3001 187.205C93.2781 187.249 93.2854 187.264 93.3367 187.227C93.3807 187.205 93.4173 187.227 93.4173 187.271C93.4173 187.506 92.2745 188.348 91.725 188.539C91.5346 188.605 91.3881 188.649 91.3881 188.692C91.3881 188.773 91.5199 188.927 91.725 189.059C91.9668 189.227 92.0474 189.235 92.736 189.257C93.5345 189.279 93.7689 189.359 93.7689 189.623C93.7689 189.733 93.6883 189.96 93.7909 189.901C93.8055 189.894 93.8129 189.894 93.8275 189.894C93.8861 189.894 93.8935 189.996 93.8935 190.084C93.8935 190.15 93.8788 190.231 93.8788 190.253C93.8641 190.333 93.344 190.656 93.2415 190.656C93.1829 190.656 93.1389 190.685 93.1169 190.722C93.0583 190.81 92.6041 190.854 92.1499 190.854C91.8496 190.854 91.5639 190.832 91.3808 190.788C91.161 190.729 90.6921 190.451 90.4211 190.224C89.857 189.725 89.498 188.846 89.498 187.755C89.498 187.22 89.5786 186.575 89.6739 186.444C89.6958 186.407 89.7398 186.29 89.7618 186.172C89.8423 185.784 90.6848 184.847 90.9485 184.839C90.9925 184.839 91.0364 184.803 91.0511 184.773C91.0657 184.737 91.2415 184.663 91.4393 184.605C91.6151 184.546 91.8276 184.539 92.0474 184.539H92.0547ZM92.3038 186.15C92.128 186.15 91.6958 186.326 91.5712 186.444C91.4467 186.553 91.117 187.308 91.117 187.469C91.117 187.506 91.161 187.513 91.2416 187.513C91.7763 187.513 91.9668 187.41 92.3331 187.081C92.5309 186.905 92.5675 186.824 92.5675 186.627C92.5675 186.385 92.5089 186.158 92.3111 186.158L92.3038 186.15ZM93.1462 185.125C93.1462 185.125 93.1828 185.147 93.2268 185.103C93.3806 184.949 93.1462 184.949 93.1462 185.125ZM93.2561 185.469C93.2342 185.425 93.2195 185.455 93.2195 185.55C93.2195 185.77 93.2854 185.557 93.2561 185.469Z" fill="#8B5E3C"/>
<path d="M103.871 183.213C103.915 183.213 103.959 183.228 104.04 183.25C104.171 183.279 104.186 183.315 104.149 183.484C104.135 183.528 104.135 183.565 104.135 183.587C104.135 183.645 104.149 183.652 104.171 183.652C104.215 183.652 104.281 183.565 104.296 183.477C104.318 183.345 104.508 183.279 104.508 183.396C104.508 183.425 104.618 183.484 104.743 183.528C104.933 183.594 104.963 183.652 104.963 183.806C104.963 183.916 104.926 183.997 104.882 183.997C104.816 183.997 104.816 184.011 104.882 184.055C104.919 184.077 104.926 184.121 104.926 184.224C104.926 184.444 104.772 185.55 104.728 185.579C104.692 185.601 104.662 185.733 104.662 185.879C104.662 186.026 104.626 186.671 104.582 187.323C104.516 188.246 104.457 188.524 104.384 188.59C104.303 188.656 104.303 188.671 104.369 188.671C104.413 188.671 104.435 188.736 104.435 188.949C104.435 189.33 104.369 190.297 104.333 190.48C104.311 190.626 104.296 190.788 104.296 190.861C104.296 190.92 104.23 191.007 104.164 191.037C104.076 191.081 104.076 191.139 104.076 191.205C104.076 191.315 103.79 191.542 103.673 191.542C103.629 191.542 103.585 191.535 103.527 191.498C103.424 191.44 103.285 191.432 103.168 191.432C103.065 191.432 102.911 191.388 102.809 191.344C102.399 191.147 102.106 190.678 101.644 189.462C101.168 188.194 101.065 187.923 100.999 187.652C100.919 187.33 100.824 187.044 100.78 187.044C100.677 187.044 100.325 189.66 100.179 190.128C100.12 190.297 100.054 190.517 100.047 190.619C100.003 190.898 99.8053 191.183 99.6368 191.227C99.5562 191.249 99.4903 191.308 99.4903 191.352C99.4903 191.41 99.3438 191.44 99.2265 191.44C99.124 191.44 99.0361 191.418 99.0361 191.381C99.0361 191.344 98.9701 191.337 98.9042 191.337C98.7797 191.337 98.6405 191.366 98.6405 191.44C98.6405 191.55 98.5306 191.44 98.4867 191.52C98.4647 191.557 98.4427 191.564 98.4207 191.564C98.3402 191.564 98.2303 191.432 98.135 191.198C98.0105 190.92 97.4025 188.539 97.2706 187.828C97.0801 186.773 96.9116 185.645 96.8457 184.905C96.7798 184.26 96.6992 183.923 96.6992 183.784C96.6992 183.704 96.7798 183.66 96.8677 183.66C96.9116 183.66 96.9702 183.682 96.9996 183.718C97.1314 183.85 96.9629 183.499 97.0655 183.499C97.1021 183.499 97.1461 183.565 97.1461 183.652C97.1461 183.74 97.1827 183.828 97.234 183.85C97.2926 183.872 97.2999 183.931 97.2999 183.997V184.099C97.2999 184.165 97.3146 184.224 97.3805 184.224C97.4611 184.224 97.4684 184.18 97.4391 184.07C97.3951 183.923 97.3732 183.828 97.3732 183.748C97.3732 183.572 97.4831 183.513 97.7395 183.455C97.8933 183.425 97.9372 183.433 97.9079 183.491C97.886 183.535 97.886 183.572 97.9226 183.572C97.9812 183.572 98.2815 184.063 98.2815 184.151C98.2815 184.217 98.3402 184.627 98.4354 184.949C98.5599 185.396 98.9262 187.528 98.9555 187.564C98.9702 187.579 99.0214 187.462 99.0581 187.308C99.1606 186.905 99.2339 186.649 99.3218 186.231C99.4683 185.55 99.5196 185.396 99.6661 185.345C99.7491 185.306 99.7564 185.286 99.6881 185.286C99.5855 185.286 99.5782 185.242 99.6075 185.074C99.6295 184.964 99.6881 184.773 99.7394 184.663C99.7906 184.554 99.8419 184.422 99.8419 184.363C99.8419 184.304 99.8859 184.341 99.9078 184.429C99.9371 184.532 99.9713 184.544 100.01 184.466C100.069 184.319 100.274 184.107 100.487 183.989C100.655 183.887 100.699 183.88 100.699 183.967C100.699 184.07 100.509 183.967 100.509 184.099C100.509 184.129 100.574 184.158 100.662 184.158C100.765 184.158 100.882 184.129 100.955 184.07C101.043 183.989 101.322 183.923 101.454 183.923C101.498 183.923 101.519 183.923 101.519 183.945C101.519 184.004 101.505 184.07 101.607 184.143C101.695 184.224 101.739 184.341 101.739 184.48C101.739 184.605 101.776 184.693 101.805 184.693C101.864 184.693 101.974 184.956 102.04 185.257C102.12 185.623 102.406 186.627 102.465 186.737C102.501 186.802 102.523 186.883 102.523 186.956C102.523 187.088 102.479 187.191 102.391 187.191C102.311 187.191 102.281 187.213 102.281 187.235C102.281 187.264 102.362 187.323 102.494 187.337C102.67 187.359 102.714 187.396 102.758 187.579C102.794 187.704 102.802 187.769 102.823 187.769C102.845 187.769 102.882 187.645 102.904 187.389C103.051 185.989 103.439 184.107 103.695 183.499C103.776 183.323 103.798 183.257 103.886 183.257L103.871 183.213ZM96.9409 183.858C96.897 183.858 96.875 183.887 96.875 183.923C96.875 184.048 96.9556 184.187 97.0216 184.187C97.0875 184.187 96.9996 184.063 97.0655 184.019C97.1021 183.997 97.1461 183.938 97.1461 183.894C97.1461 183.762 96.9996 184.085 96.9996 183.938C96.9996 183.894 96.9776 183.85 96.9409 183.85V183.858ZM97.2853 183.535C97.2267 183.535 97.2047 183.499 97.2266 183.469C97.2926 183.367 97.505 183.535 97.2853 183.535ZM98.0618 184.707C97.9959 184.641 97.9812 184.649 98.0178 184.744C98.0398 184.81 98.0838 184.847 98.1057 184.825C98.1277 184.803 98.1057 184.759 98.0618 184.715V184.707ZM99.9665 184.063C99.9665 184.063 100.032 184.085 100.032 184.129C100.032 184.231 99.9005 184.114 99.9005 184.092C99.9005 184.07 99.9225 184.063 99.9665 184.063ZM100.303 184.89C100.216 184.832 100.15 185.059 100.223 185.125C100.267 185.162 100.281 185.162 100.259 185.14C100.216 185.081 100.384 184.949 100.303 184.898V184.89ZM100.948 183.792C100.992 183.792 101.029 183.814 101.029 183.858C101.029 183.902 100.992 183.923 100.948 183.923C100.904 183.923 100.889 183.902 100.889 183.858C100.889 183.814 100.904 183.792 100.948 183.792ZM101.109 185.85C100.846 185.85 101.073 185.916 101.197 185.879C101.263 185.857 101.219 185.85 101.109 185.85ZM101.256 186.194C101.278 186.282 101.322 186.363 101.358 186.363C101.424 186.363 101.424 186.282 101.373 186.143C101.307 185.975 101.226 186.019 101.263 186.202L101.256 186.194ZM101.41 187.418C101.49 187.418 101.388 187.22 101.344 187.22C101.263 187.22 101.366 187.418 101.41 187.418ZM101.549 186.949C101.505 186.949 101.483 186.978 101.483 187.015C101.483 187.059 101.483 187.081 101.505 187.081C101.527 187.081 101.651 186.949 101.549 186.949ZM101.549 187.242C101.549 187.242 101.585 187.279 101.629 187.227C101.783 187.074 101.549 187.059 101.549 187.242ZM101.769 186.297C101.622 186.297 101.747 186.429 101.813 186.429C101.849 186.429 101.871 186.407 101.871 186.363C101.871 186.326 101.827 186.297 101.769 186.297ZM102.106 186.158C102.047 186.158 102.003 186.216 102.003 186.268C102.003 186.458 102.201 186.187 102.201 186.187C102.201 186.172 102.157 186.151 102.098 186.151L102.106 186.158ZM104.303 186.231C104.245 186.268 104.237 186.297 104.281 186.297C104.325 186.297 104.384 186.268 104.406 186.231C104.45 186.15 104.428 186.15 104.303 186.231Z" fill="#8B5E3C"/>
<path d="M108.157 184.539C108.779 184.539 109.439 184.729 109.439 184.964C109.439 185.022 109.482 185.11 109.519 185.14C109.541 185.162 109.556 185.183 109.556 185.205C109.556 185.264 109.446 185.286 109.189 185.315C109.036 185.337 109.08 185.337 109.321 185.352C109.644 185.367 109.702 185.374 109.776 185.542C109.856 185.696 109.878 185.945 109.878 186.187C109.878 186.663 109.754 187.176 109.592 187.176C109.512 187.176 109.439 187.154 109.402 187.205C109.38 187.249 109.387 187.264 109.439 187.227C109.482 187.205 109.519 187.227 109.519 187.271C109.519 187.506 108.376 188.348 107.827 188.539C107.636 188.605 107.49 188.649 107.49 188.692C107.49 188.773 107.622 188.927 107.827 189.059C108.069 189.227 108.149 189.235 108.838 189.257C109.636 189.279 109.871 189.359 109.871 189.623C109.871 189.733 109.79 189.96 109.893 189.901C109.907 189.894 109.915 189.894 109.929 189.894C109.988 189.894 109.995 189.996 109.995 190.084C109.995 190.15 109.981 190.231 109.981 190.253C109.966 190.333 109.446 190.656 109.343 190.656C109.285 190.656 109.241 190.685 109.219 190.722C109.16 190.81 108.706 190.854 108.252 190.854C107.951 190.854 107.666 190.832 107.483 190.788C107.263 190.729 106.794 190.451 106.523 190.224C105.959 189.725 105.6 188.846 105.6 187.755C105.6 187.22 105.68 186.575 105.776 186.444C105.798 186.407 105.842 186.29 105.864 186.172C105.944 185.784 106.787 184.847 107.05 184.839C107.094 184.839 107.138 184.803 107.153 184.773C107.168 184.737 107.343 184.663 107.541 184.605C107.717 184.546 107.929 184.539 108.149 184.539H108.157ZM108.398 186.15C108.222 186.15 107.79 186.326 107.666 186.444C107.541 186.553 107.212 187.308 107.212 187.469C107.212 187.506 107.255 187.513 107.336 187.513C107.871 187.513 108.061 187.41 108.428 187.081C108.625 186.905 108.662 186.824 108.662 186.627C108.662 186.385 108.603 186.158 108.406 186.158L108.398 186.15ZM109.248 185.125C109.248 185.125 109.285 185.147 109.329 185.103C109.482 184.949 109.248 184.949 109.248 185.125ZM109.358 185.469C109.336 185.425 109.321 185.455 109.321 185.55C109.321 185.77 109.387 185.557 109.358 185.469Z" fill="#8B5E3C"/>
<path d="M112.23 186.004C112.384 186.004 112.472 186.905 112.545 188.941C112.559 189.33 112.567 189.645 112.567 189.886C112.567 190.297 112.552 190.546 112.508 190.722C112.45 191 112.384 191.168 112.34 191.168C112.296 191.168 112.318 190.971 112.296 190.971C112.281 190.971 112.274 191.007 112.237 191.117C112.171 191.337 112.047 191.498 111.973 191.498C111.951 191.498 111.929 191.476 111.915 191.454C111.893 191.418 111.871 191.41 111.834 191.41C111.79 191.41 111.746 191.432 111.71 191.432C111.673 191.432 111.651 191.41 111.651 191.33C111.651 191.198 111.549 191.154 111.483 191.249C111.424 191.337 111.629 191.33 111.563 191.44C111.497 191.549 111.395 191.527 111.409 191.396C111.409 191.33 111.351 191.249 111.263 191.22C111.175 191.19 111.109 191.11 111.094 191.029C110.926 190.106 110.882 188.692 110.816 187.594C110.794 187.205 110.779 186.905 110.779 186.627C110.779 186.392 110.801 186.18 110.801 185.967C110.801 185.865 110.787 185.711 110.765 185.586C110.728 185.41 110.721 185.008 110.721 184.656C110.721 184.334 110.735 184.041 110.757 183.975C110.779 183.909 110.772 183.865 110.721 183.865C110.684 183.865 110.677 183.806 110.677 183.733C110.677 183.623 110.713 183.455 110.765 183.264C110.787 183.198 110.809 183.176 111.043 183.176C111.197 183.176 111.446 183.183 111.834 183.205C112.01 183.22 112.12 183.293 112.12 183.381C112.12 183.403 112.105 183.425 112.098 183.447C112.083 183.469 112.076 183.491 112.076 183.513C112.076 183.638 112.223 183.777 112.223 183.894C112.223 183.938 112.157 184.092 112.157 184.172C112.157 184.209 112.171 184.231 112.193 184.231C112.274 184.231 112.325 184.795 112.325 185.022C112.325 185.279 112.266 185.367 112.127 185.367H112.113C112.025 185.367 112.025 185.374 112.01 185.813V185.916C112.01 186.084 112.025 186.158 112.054 186.158C112.083 186.158 112.164 186.011 112.208 186.011L112.23 186.004ZM110.962 185.169C110.962 185.169 110.897 185.235 110.897 185.301C110.897 185.33 110.911 185.359 110.933 185.381C110.992 185.44 111.014 185.403 111.014 185.301C111.014 185.198 110.992 185.169 110.97 185.169H110.962ZM111.248 184.114C111.168 184.114 111.146 184.26 111.028 184.216C110.911 184.172 110.919 184.282 111.05 184.363C111.116 184.4 111.138 184.473 111.116 184.561C111.094 184.641 111.102 184.707 111.138 184.707C111.248 184.707 111.138 184.37 111.292 184.583C111.417 184.759 111.424 184.737 111.424 184.641C111.424 184.575 111.556 184.422 111.636 184.422H111.651C111.651 184.422 111.732 184.422 111.776 184.4C111.907 184.356 111.864 184.187 111.717 184.187C111.651 184.187 111.592 184.231 111.592 184.29C111.592 184.348 111.534 184.392 111.468 184.392C111.358 184.392 111.226 184.29 111.226 184.216C111.226 184.194 111.292 184.129 111.248 184.129V184.114ZM111.212 185.161C111.212 185.161 111.153 185.227 111.153 185.293C111.153 185.469 111.256 185.374 111.256 185.264C111.256 185.205 111.241 185.161 111.212 185.161ZM111.783 190.612C111.783 190.568 111.695 190.546 111.607 190.546C111.519 190.546 111.409 190.568 111.387 190.612C111.343 190.678 111.321 190.67 111.263 190.59C111.219 190.531 111.197 190.531 111.197 190.575C111.197 190.619 111.277 190.729 111.365 190.832C111.468 190.941 111.534 190.963 111.534 190.912C111.534 190.802 111.79 190.7 111.79 190.612H111.783ZM111.351 189.879C111.285 189.879 111.263 189.901 111.307 189.945C111.329 189.967 111.373 189.982 111.409 189.982C111.497 189.982 111.585 189.923 111.585 189.85C111.585 189.784 111.527 189.718 111.475 189.696C111.343 189.652 111.512 189.886 111.351 189.886V189.879ZM111.329 186.561C111.329 186.619 111.365 186.663 111.395 186.663C111.439 186.663 111.461 186.641 111.461 186.605C111.461 186.539 111.329 186.414 111.329 186.561ZM111.563 187.916C111.497 187.916 111.461 187.931 111.483 187.953C111.527 187.996 111.724 187.931 111.563 187.916ZM111.658 184.048C111.658 184.048 111.695 184.114 111.746 184.114C111.798 184.114 111.849 184.107 111.849 184.092C111.849 184.07 111.658 183.96 111.658 184.048ZM111.849 185.227C111.849 185.227 111.783 185.271 111.783 185.33C111.783 185.389 111.82 185.432 111.849 185.432C111.878 185.432 111.915 185.389 111.915 185.33C111.915 185.271 111.878 185.227 111.849 185.227ZM111.915 185.879C111.871 185.879 111.849 185.916 111.849 185.945C111.849 185.989 111.864 186.011 111.886 186.011C111.907 186.011 112.017 185.879 111.922 185.879H111.915ZM112.318 185.557C112.384 185.682 112.376 185.689 112.274 185.667C112.208 185.652 112.142 185.586 112.127 185.535C112.091 185.381 112.23 185.389 112.318 185.557ZM112.303 185.747C112.303 185.747 112.384 185.769 112.384 185.813C112.384 185.916 112.252 185.799 112.252 185.777C112.252 185.755 112.266 185.747 112.31 185.747H112.303Z" fill="#8B5E3C"/>
<path d="M114.918 186.004C115.072 186.004 115.16 186.905 115.233 188.941C115.248 189.33 115.255 189.645 115.255 189.886C115.255 190.297 115.241 190.546 115.197 190.722C115.138 191 115.072 191.168 115.028 191.168C114.984 191.168 115.006 190.971 114.984 190.971C114.97 190.971 114.962 191.007 114.926 191.117C114.86 191.337 114.735 191.498 114.662 191.498C114.64 191.498 114.618 191.476 114.603 191.454C114.581 191.418 114.559 191.41 114.523 191.41C114.479 191.41 114.435 191.432 114.398 191.432C114.362 191.432 114.34 191.41 114.34 191.33C114.34 191.198 114.237 191.154 114.171 191.249C114.112 191.337 114.318 191.33 114.252 191.44C114.186 191.549 114.083 191.527 114.098 191.396C114.098 191.33 114.039 191.249 113.951 191.22C113.863 191.19 113.797 191.11 113.783 191.029C113.614 190.106 113.57 188.692 113.504 187.594C113.482 187.205 113.468 186.905 113.468 186.627C113.468 186.392 113.49 186.18 113.49 185.967C113.49 185.865 113.475 185.711 113.453 185.586C113.417 185.41 113.409 185.008 113.409 184.656C113.409 184.334 113.424 184.041 113.446 183.975C113.468 183.909 113.46 183.865 113.409 183.865C113.373 183.865 113.365 183.806 113.365 183.733C113.365 183.623 113.402 183.455 113.453 183.264C113.475 183.198 113.497 183.176 113.732 183.176C113.885 183.176 114.134 183.183 114.523 183.205C114.698 183.22 114.808 183.293 114.808 183.381C114.808 183.403 114.794 183.425 114.786 183.447C114.772 183.469 114.764 183.491 114.764 183.513C114.764 183.638 114.911 183.777 114.911 183.894C114.911 183.938 114.845 184.092 114.845 184.172C114.845 184.209 114.86 184.231 114.882 184.231C114.962 184.231 115.014 184.795 115.014 185.022C115.014 185.279 114.955 185.367 114.816 185.367H114.801C114.713 185.367 114.713 185.374 114.698 185.813V185.916C114.698 186.084 114.713 186.158 114.742 186.158C114.772 186.158 114.852 186.011 114.896 186.011L114.918 186.004ZM113.651 185.169C113.651 185.169 113.585 185.235 113.585 185.301C113.585 185.33 113.6 185.359 113.622 185.381C113.68 185.44 113.702 185.403 113.702 185.301C113.702 185.198 113.68 185.169 113.658 185.169H113.651ZM113.944 184.114C113.863 184.114 113.841 184.26 113.724 184.216C113.607 184.172 113.614 184.282 113.746 184.363C113.812 184.4 113.834 184.473 113.812 184.561C113.79 184.641 113.797 184.707 113.834 184.707C113.944 184.707 113.834 184.37 113.988 184.583C114.112 184.759 114.12 184.737 114.12 184.641C114.12 184.575 114.252 184.422 114.332 184.422H114.347C114.347 184.422 114.427 184.422 114.471 184.4C114.603 184.356 114.559 184.187 114.413 184.187C114.347 184.187 114.288 184.231 114.288 184.29C114.288 184.348 114.23 184.392 114.164 184.392C114.054 184.392 113.922 184.29 113.922 184.216C113.922 184.194 113.988 184.129 113.944 184.129V184.114ZM113.907 185.161C113.907 185.161 113.849 185.227 113.849 185.293C113.849 185.469 113.951 185.374 113.951 185.264C113.951 185.205 113.937 185.161 113.907 185.161ZM114.471 190.612C114.471 190.568 114.383 190.546 114.296 190.546C114.208 190.546 114.098 190.568 114.076 190.612C114.032 190.678 114.01 190.67 113.951 190.59C113.907 190.531 113.885 190.531 113.885 190.575C113.885 190.619 113.966 190.729 114.054 190.832C114.156 190.941 114.222 190.963 114.222 190.912C114.222 190.802 114.479 190.7 114.479 190.612H114.471ZM114.039 189.879C113.973 189.879 113.951 189.901 113.995 189.945C114.017 189.967 114.061 189.982 114.098 189.982C114.186 189.982 114.274 189.923 114.274 189.85C114.274 189.784 114.215 189.718 114.164 189.696C114.032 189.652 114.2 189.886 114.039 189.886V189.879ZM114.017 186.561C114.017 186.619 114.054 186.663 114.083 186.663C114.127 186.663 114.149 186.641 114.149 186.605C114.149 186.539 114.017 186.414 114.017 186.561ZM114.252 187.916C114.186 187.916 114.149 187.931 114.171 187.953C114.215 187.996 114.413 187.931 114.252 187.916ZM114.354 184.048C114.354 184.048 114.391 184.114 114.442 184.114C114.493 184.114 114.545 184.107 114.545 184.092C114.545 184.07 114.354 183.96 114.354 184.048ZM114.545 185.227C114.545 185.227 114.479 185.271 114.479 185.33C114.479 185.389 114.515 185.432 114.545 185.432C114.574 185.432 114.611 185.389 114.611 185.33C114.611 185.271 114.574 185.227 114.545 185.227ZM114.611 185.879C114.567 185.879 114.545 185.916 114.545 185.945C114.545 185.989 114.559 186.011 114.581 186.011C114.603 186.011 114.713 185.879 114.618 185.879H114.611ZM115.006 185.557C115.072 185.682 115.065 185.689 114.962 185.667C114.896 185.652 114.83 185.586 114.816 185.535C114.779 185.381 114.918 185.389 115.006 185.557ZM114.999 185.747C114.999 185.747 115.079 185.769 115.079 185.813C115.079 185.916 114.948 185.799 114.948 185.777C114.948 185.755 114.962 185.747 115.006 185.747H114.999Z" fill="#8B5E3C"/>
<path d="M64.6493 23.6007C57.5361 28.0914 55.668 40.6256 51.8147 49.7535C48.2837 58.1194 44.6721 65.7308 44.6721 71.7452C44.6721 85.8838 56.3346 97.3485 70.7223 97.3485C85.11 97.3485 96.7725 85.8838 96.7725 71.7452C96.7725 66.5439 94.5454 60.0753 91.5492 53.1745C69.5575 49.519 65.4185 32.0692 64.642 23.6007H64.6493Z" fill="#DBDF80"/>
<path d="M110.713 44.9624C86.4946 41.2996 91.7911 15.3007 70.6931 15.3007C70.0338 24.9339 72.2828 54.1122 110.713 44.9624Z" fill="#91A93E"/>
<path d="M71.2717 16.4581C92.3697 16.4581 81.9672 32.7139 109.585 44.9844C79.4838 45.021 85.9158 27.4174 71.2717 16.4581Z" fill="#ECEFBB"/>
<path d="M111.043 42.7866C99.82 41.0871 95.6663 34.4353 91.2709 27.3953C89.4102 24.4138 87.5275 21.3956 85.0807 18.9049C82.3116 15.8354 78.6121 13.7036 73.1911 13.2128C73.594 10.6854 74.5537 6.51711 76.7075 3.4623C77.4107 2.47333 77.169 1.0961 76.18 0.400163C75.191 -0.295778 73.8138 -0.0613549 73.1179 0.927614C70.2608 4.97872 69.1546 10.3338 68.7517 13.1835C55.9391 14.1798 51.9905 24.8973 47.8222 36.2301C46.9358 38.633 46.0274 41.1237 45.0092 43.5705C44.4744 44.8598 43.9396 46.1345 43.4122 47.3872C39.5442 56.5736 35.896 65.2546 35.896 72.4337C35.896 91.6417 51.5217 107.267 70.7297 107.267C89.9376 107.267 105.563 91.6417 105.563 72.4337C105.563 67.5255 104.208 61.6576 101.292 53.951C100.86 52.8155 99.5929 52.2441 98.4574 52.669C97.3219 53.1012 96.7505 54.3686 97.1754 55.504C99.8566 62.5953 101.161 68.1335 101.161 72.4264C101.161 89.2096 87.5055 102.865 70.7223 102.865C53.9392 102.865 40.2841 89.2096 40.2841 72.4264C40.2841 66.1336 43.7711 57.8483 47.4559 49.0794C47.9907 47.8121 48.5255 46.5374 49.0603 45.2408C50.1078 42.7061 51.0382 40.1787 51.9392 37.7319C55.7999 27.2269 58.9133 18.7803 68.4074 17.6229C68.3708 23.5787 69.5209 35.3804 78.2238 42.7573C83.0588 46.8451 89.4175 48.8963 97.234 48.8963C101.476 48.8963 106.142 48.2956 111.219 47.0795C112.244 46.8377 112.948 45.9001 112.904 44.8525C112.86 43.8049 112.076 42.9258 111.036 42.772L111.043 42.7866ZM81.0736 39.4168C73.6892 33.168 72.8028 22.5164 72.8175 17.6082C72.8614 17.6082 72.9054 17.6155 72.942 17.6229C80.5022 18.4433 83.6522 23.4834 87.5422 29.7249C90.8387 35.0141 94.4576 40.816 101.344 44.3324C92.6701 45.1235 85.8719 43.4899 81.0736 39.4241V39.4168Z" fill="#4D5A2C"/>
<path d="M85.5568 72.8073C85.5568 81.0633 78.8612 87.759 70.6051 87.759C62.349 87.759 55.6533 81.0633 55.6533 72.8073C55.6533 64.5512 62.349 52.7422 70.6051 52.7422C78.8612 52.7422 85.5568 64.5512 85.5568 72.8073Z" fill="#8B5E3C"/>
<path d="M10.4245 165.792C7.07662 165.792 5.07671 163.469 5.07671 159.579C5.07671 155.184 7.99233 148.928 13.4133 145.763C13.1423 144.547 12.8932 143.236 12.8932 141.778C12.8932 139.163 13.7137 136.621 15.2228 134.547C13.4866 133.793 11.4061 133.097 8.90804 133.097C5.83858 133.097 3.52366 134.672 3.52366 136.752C3.52366 138.093 4.68845 139.177 6.11696 139.177C6.17556 139.177 6.22684 139.177 6.28545 139.177L6.99604 139.126C7.0986 139.104 7.20116 139.089 7.31104 139.089C8.16815 139.089 8.86409 139.829 8.86409 140.745C8.86409 141.434 8.50513 142.591 6.1023 142.591C2.79109 142.591 0 139.917 0 136.76C0.00732569 132.731 3.75076 129.8 8.91537 129.8C12.6295 129.8 15.4206 130.885 17.8747 132.086C20.1823 130.548 22.8635 129.8 26.0648 129.8C30.3797 129.8 32.7092 132.306 32.7092 134.665C32.7092 137.339 30.4676 139.199 27.2516 139.199C23.8744 139.199 21.5595 137.969 18.3509 136.262L18.2483 136.21C17.0322 137.595 16.3656 139.558 16.3656 141.785C16.3656 142.672 16.5048 143.463 16.6733 144.371C17.926 144.005 19.1127 143.829 20.2922 143.829C25.6766 143.829 27.8523 146.613 27.8523 147.778C27.8523 148.752 27.0904 149.514 26.1161 149.514C25.53 149.514 24.9953 149.243 24.6876 148.781C23.9697 147.778 22.3653 147.192 20.2922 147.192C19.3545 147.192 18.4314 147.345 17.4059 147.66C17.611 148.855 17.8161 150.4 17.8161 152.305C17.8161 164.041 13.1789 165.799 10.4171 165.799L10.4245 165.792ZM14.1093 149.265C10.6442 151.873 8.60037 156.429 8.60037 159.579C8.60037 162.48 9.92632 162.48 10.4245 162.48C13.3181 162.48 14.351 157.22 14.351 152.298C14.351 151.235 14.2265 150.18 14.102 149.265H14.1093ZM21.2958 133.991C23.2518 135.016 25.1418 135.895 27.2516 135.895C28.2113 135.895 29.1856 135.529 29.1856 134.716C29.1856 134.086 28.1746 133.163 26.0135 133.163C24.4019 133.163 22.6144 133.485 21.3031 133.991H21.2958Z" fill="#91A93E"/>
<path d="M31.4125 165.579C29.2441 165.579 29.2441 162.363 29.2441 161.147C29.2441 156.737 30.9144 148.781 31.9034 144.782L32.3502 142.935C33.2733 139.17 33.8227 136.899 33.8227 135.046C33.8227 133.683 33.7275 133.353 33.6835 133.28L33.6615 133.236L33.6322 133.17C33.5663 132.965 33.493 132.76 33.493 132.57C33.493 131.822 33.9326 131.178 34.6065 130.921C34.7457 130.848 35.0461 130.782 35.2805 130.782C37.2878 130.782 37.2878 133.251 37.2878 135.053C37.2878 137.419 36.5405 140.489 35.8153 143.463L35.6028 144.349C34.7457 147.851 32.7605 156.481 32.7605 161.154C32.7605 162.048 32.8191 162.693 32.929 163.081C33.0682 163.316 33.1341 163.565 33.1341 163.85C33.1341 164.825 32.3722 165.586 31.3979 165.586L31.4125 165.579Z" fill="#91A93E"/>
<path d="M41.2069 165.579C37.1705 165.579 34.46 162.019 34.46 156.722C34.46 155.067 34.709 153.616 35.2511 152.166C35.4856 151.463 36.1815 150.942 36.8994 150.942C37.8078 150.942 38.577 151.734 38.577 152.679C38.577 152.986 38.5037 153.206 38.4378 153.389C38.1301 154.151 37.9836 155.609 37.9836 156.671C37.9836 159.345 39.0239 162.217 41.3168 162.217C44.7965 162.217 47.1334 157.477 47.1334 153.06C47.1334 151.382 46.5254 148.54 44.2324 148.54C42.0933 148.54 42.0274 150.759 42.0274 151.016C42.0274 152.51 42.8479 152.627 44.0127 152.627C45.0016 152.627 45.8001 153.404 45.8001 154.364C45.8001 155.199 45.2727 156.1 43.7929 156.1C40.1374 156.1 38.4964 153.55 38.4964 151.023C38.4964 148.195 40.5403 145.192 44.3277 145.192C48.1151 145.192 50.6424 148.356 50.6424 153.074C50.6424 159.096 47.0309 165.594 41.1996 165.594L41.2069 165.579Z" fill="#91A93E"/>
<path d="M56.6275 165.579C55.0671 165.579 51.4409 164.803 51.4409 157.645C51.4409 154.085 52.1955 150.202 52.6057 148.115L52.6423 147.939C52.7595 147.404 53.0379 146.144 54.4225 146.144C55.3895 146.144 56.2099 146.965 56.2099 147.932V148.261L56.1953 148.32C55.3309 152.114 54.9133 155.155 54.9133 157.638C54.9133 159.001 55.0818 162.158 56.6275 162.158C59.5505 162.158 62.6566 155.682 63.8506 147.096C64.0045 146.151 64.7371 145.602 65.792 145.602C66.1656 145.602 66.5172 145.778 66.7883 146.093C67.1252 146.488 67.2791 147.06 67.1985 147.587C67.1399 148.151 66.8102 150.239 66.4366 152.034L66.3634 152.459C65.9165 155.14 65.5282 157.455 65.5282 159.206C65.5282 160.81 65.8213 161.872 66.4586 162.554C66.8322 163.022 66.8762 163.447 66.8762 163.733C66.8762 164.693 66.0996 165.469 65.14 165.469C64.6785 165.469 64.2096 165.242 63.7847 164.81C63.0888 164.107 62.576 162.942 62.3269 161.609C60.8251 164.092 58.7446 165.579 56.6202 165.579H56.6275Z" fill="#91A93E"/>
<path d="M70.1436 165.469C69.2133 165.469 68.5173 164.722 68.5173 163.733C68.5173 163.587 68.5833 163.132 68.8763 161.257C69.3085 158.51 70.0264 153.909 70.0264 152.737C70.0264 150.356 69.521 149.653 69.0008 149.133C68.5173 148.752 68.5173 148.1 68.5173 147.88C68.5173 146.943 69.2865 146.144 70.1949 146.144C70.7077 146.144 71.2571 146.422 71.7406 146.935C72.2974 147.521 72.715 148.312 72.9494 149.206C74.5903 146.51 77.3155 145.507 79.4106 145.507C80.4436 145.507 81.2494 146.269 81.2494 147.243C81.2494 148.137 80.5901 148.789 79.6158 148.869C74.5244 149.162 73.4182 155.33 72.2461 161.858L71.8579 164.011C71.7113 164.891 71.0154 165.484 70.129 165.484L70.1436 165.469Z" fill="#91A93E"/>
<path d="M81.828 165.74C80.8244 165.74 80.0405 164.956 80.0405 163.953C80.0405 163.176 80.8537 153.77 82.4873 147.316C82.6118 146.576 83.3224 146.005 84.1722 146.005C84.3187 146.005 84.4652 146.02 84.6118 146.056C85.4029 146.291 85.945 146.994 85.945 147.778C85.945 147.851 85.945 148.027 85.8645 148.225C84.8975 152.129 83.8865 159.089 83.5715 164.099C83.4909 165.059 82.7657 165.748 81.8353 165.748L81.828 165.74Z" fill="#91A93E"/>
<path d="M90.8241 165.792C87.6667 165.792 84.3994 163.909 84.3994 160.766C84.3994 158.283 86.2748 156.334 88.6703 156.334C90.2307 156.334 91.161 157.059 91.161 158.283C91.161 159.323 90.4065 159.865 89.6593 159.865C89.5787 159.865 89.5127 159.865 89.4468 159.851C89.3076 159.829 89.1904 159.792 89.0732 159.763C88.9267 159.719 88.8315 159.697 88.6703 159.697C88.4432 159.697 87.9231 159.697 87.9231 160.715C87.9231 161.66 89.2124 162.759 90.8827 162.759C92.5529 162.759 94.3257 161.814 94.3257 159.748C94.3257 158.334 93.388 157.118 91.542 156.129C89.5714 155.082 87.315 153.506 87.315 150.576C87.315 148.115 89.3003 145.5 92.9851 145.5C96.67 145.5 98.0106 148.005 98.0106 149.28C98.0106 150.283 97.2267 151.067 96.2231 151.067C95.7103 151.067 94.9045 150.679 94.7213 149.954C94.6407 149.697 94.0913 148.642 92.9339 148.642C91.6079 148.642 90.7874 149.382 90.7874 150.576C90.7874 151.243 90.9486 151.741 93.161 153.074C95.974 154.737 97.8494 156.459 97.8494 159.426C97.8494 163.235 95.029 165.799 90.8314 165.799L90.8241 165.792Z" fill="#91A93E"/>
<path d="M100.655 165.25C99.8346 165.25 99.1533 164.671 98.9848 163.836C98.7211 162.253 98.5966 161.176 98.5966 159.308C98.5966 153.99 99.6075 147.719 100.23 144.804C99.9738 144.804 99.7027 144.804 99.4683 144.804H99.2339C98.7211 144.804 98.1863 144.789 97.7395 144.591C97.3219 144.408 96.8164 143.998 96.8164 143.067C96.8164 142.137 97.5123 141.426 98.3402 141.426C98.4061 141.426 98.472 141.426 98.5379 141.441H99.5196C100.091 141.441 100.67 141.404 101.146 141.338C102.963 135.72 106.398 129.844 110.735 129.844C113.336 129.844 114.948 131.441 114.948 134.005C114.948 138.584 109.387 142.738 103.908 144.217C103.527 145.763 103.065 147.902 102.618 150.547C104.391 147.412 106.831 145.485 109.277 145.485C114.142 145.485 114.142 151.902 114.142 154.012C114.142 158.554 112.992 163.052 112.816 163.572C112.581 164.349 111.929 164.861 111.167 164.861C110.2 164.861 109.38 164.07 109.38 163.125C109.38 163.001 109.402 162.905 109.424 162.832V162.759L109.453 162.664C109.651 161.909 110.625 157.939 110.625 154.012C110.625 149.06 109.534 149.06 109.124 149.06C108.369 149.06 107.431 149.646 106.486 150.715C104.054 153.477 101.805 159.242 102.333 163.433C102.406 163.858 102.281 164.297 101.988 164.642C101.666 165.022 101.183 165.235 100.655 165.235V165.25ZM110.684 133.163C109.241 133.163 106.779 135.983 105.131 140.306C108.721 138.767 111.49 136.093 111.49 134.02C111.49 133.273 111.109 133.163 110.691 133.163H110.684Z" fill="#91A93E"/>
<path d="M142.038 169.257C138.565 168.839 136.419 166.751 135.503 162.891C132.368 165.396 129.152 166.524 126.163 166.165C120.478 165.484 117.76 160.524 118.713 152.554C118.793 151.858 119.042 150.122 119.336 148.115C119.768 145.111 120.302 141.368 120.412 140.174C120.442 139.917 120.471 139.676 120.493 139.448C120.112 139.448 119.724 139.426 119.321 139.382C115.511 138.928 111.893 136.474 112.347 132.672C112.669 129.998 115.153 128.167 118.017 128.504C121.028 128.863 123.269 131.507 123.863 135.324C125.811 134.357 127.159 132.386 127.445 130.02C127.614 128.606 127.467 127.361 127.225 126.973C127.013 126.606 126.925 126.211 126.969 125.837C127.086 124.841 127.899 124.204 128.896 124.321C131.145 124.592 131.137 128.826 130.939 130.438C130.478 134.313 127.789 137.573 124.039 138.862C124.017 139.419 123.98 139.998 123.914 140.569C123.826 141.588 123.35 144.796 122.888 147.895C122.566 150.071 122.258 152.129 122.163 152.957C121.658 157.177 122.009 162.327 126.566 162.869C129.723 163.25 132.822 160.986 134.917 158.949C134.734 156.363 134.793 153.492 135.093 151.023C136.023 143.25 139.459 131.932 145.122 132.606C146.155 132.731 149.466 133.603 148.748 139.617C148.016 145.741 143.613 154.503 138.47 160.114C139.108 164.085 140.17 165.74 142.214 165.989C142.287 165.997 142.521 166.011 142.748 166.026C143.005 166.041 143.261 166.055 143.342 166.07C144.419 166.202 144.997 166.817 144.888 167.733C144.785 168.568 144.214 169.506 142.038 169.249V169.257ZM144.719 135.954C144.529 135.932 144.25 136.049 143.95 136.284C141.935 137.881 139.401 143.778 138.463 151.975C138.36 152.825 138.214 154.173 138.148 155.44C142.411 149.47 144.778 143.097 145.239 139.214C145.481 137.185 145.298 136.027 144.712 135.954H144.719ZM117.555 131.888C116.779 131.793 115.9 132.181 115.79 133.082C115.614 134.548 117.68 135.8 119.716 136.042C119.951 136.071 120.222 136.071 120.486 136.071C120.075 133.705 118.933 132.057 117.548 131.896L117.555 131.888Z" fill="#8B5E3C"/>
<path d="M84.2309 144.056C84.0551 144.056 83.8719 144.042 83.6815 144.012C83.154 143.924 82.8024 143.419 82.8976 142.899C82.9855 142.371 83.491 142.027 84.0111 142.115C84.795 142.254 85.5715 141.566 85.9011 140.848C86.0477 140.533 86.326 139.749 85.74 139.251C85.0367 138.657 84.2309 138.408 83.5349 138.562C83.0295 138.672 82.6266 138.987 82.4288 139.426C82.3409 139.624 82.4288 139.793 82.5386 139.881C82.7731 140.064 83.154 139.976 83.5642 139.661C83.9818 139.331 84.5898 139.404 84.9195 139.822C85.2492 140.24 85.1759 140.848 84.7583 141.177C83.3958 142.254 82.0698 141.968 81.3446 141.404C80.5021 140.745 80.2237 139.602 80.6633 138.628C81.1175 137.632 82.0039 136.921 83.1027 136.679C84.3994 136.386 85.8132 136.789 86.9853 137.778C88.0842 138.708 88.3406 140.203 87.652 141.668C87.0806 142.884 85.8059 144.071 84.2309 144.071V144.056Z" fill="#91A93E"/>
</svg>
