<?xml version="1.0" encoding="UTF-8" standalone="no"?>
<svg
   xmlns:dc="http://purl.org/dc/elements/1.1/"
   xmlns:cc="http://creativecommons.org/ns#"
   xmlns:rdf="http://www.w3.org/1999/02/22-rdf-syntax-ns#"
   xmlns:svg="http://www.w3.org/2000/svg"
   xmlns="http://www.w3.org/2000/svg"
   viewBox="0 0 1000 1000"
   height="1000"
   width="1000"
   xml:space="preserve"
   id="svg2"
   version="1.1"><metadata
     id="metadata8"><rdf:RDF><cc:Work
         rdf:about=""><dc:format>image/svg+xml</dc:format><dc:type
           rdf:resource="http://purl.org/dc/dcmitype/StillImage" /></cc:Work></rdf:RDF></metadata><defs
     id="defs6"><clipPath
       id="clipPath18"
       clipPathUnits="userSpaceOnUse"><path
         id="path16"
         d="M 0,750 H 750 V 0 H 0 Z" /></clipPath></defs><g
     transform="matrix(1.3333333,0,0,-1.3333333,0,1000)"
     id="g10"><g
       id="g12"><g
         clip-path="url(#clipPath18)"
         id="g14"><g
           transform="translate(34.9541,305.3027)"
           id="g20"><path
             id="path22"
             style="fill:#422c88;fill-opacity:1;fill-rule:nonzero;stroke:none"
             d="m 0,0 c 0,-3.772 0,-18.216 0.988,-20.506 1.636,-3.773 6.724,-4.928 11.318,-5.909 v -3.779 c -4.266,0.173 -24.773,0.827 -26.903,0.827 -4.274,0 -9.522,-0.333 -14.277,-0.827 l -1.481,3.779 c 10.67,1.643 11.157,3.939 11.651,7.218 1.97,12.954 2.624,44.304 2.624,59.228 0,26.91 -1.475,28.88 -11.484,28.88 l 0.333,4.26 c 1.803,0.328 3.773,0.328 5.903,0.328 1.643,0 7.712,0 13.782,-0.161 6.237,-0.167 12.467,-0.494 14.764,-0.494 h 7.385 V 68.911 C 13.127,68.584 6.724,67.429 5.415,66.941 3.612,66.28 2.791,65.298 1.97,59.223 0.494,48.071 0.16,41.834 0.327,26.903 11.652,26.737 38.555,26.41 50.04,26.41 c 5.743,0 7.385,0.173 10.831,0.66 0,4.267 0.167,8.862 0.167,15.752 0,23.458 -0.822,24.767 -13.128,26.904 l 0.821,3.773 c 2.297,-0.161 4.755,-0.328 8.034,-0.655 3.451,-0.16 7.545,-0.327 12.967,-0.327 10.824,0 15.418,0.654 19.191,0.982 v -3.773 c -3.94,-0.494 -7.546,-1.142 -9.022,-5.743 -2.13,-6.557 -2.297,-55.289 -2.297,-65.792 0,-20.834 1.149,-23.625 11.319,-24.606 l -0.327,-3.779 c -4.1,0.494 -10.664,0.827 -20.674,0.827 -6.397,0 -12.299,-0.333 -19.191,-0.827 v 3.779 c 6.564,0.494 9.021,2.457 10.17,6.236 1.97,6.725 1.97,24.113 1.97,38.883 -12.634,0.66 -58.247,0.815 -60.544,0.815 z" /></g><g
           transform="translate(133.1157,278.6426)"
           id="g24"><path
             id="path26"
             style="fill:#422c88;fill-opacity:1;fill-rule:nonzero;stroke:none"
             d="m 0,0 c 3.901,0.455 9.072,0.917 10.677,3.676 2.181,3.901 2.181,22.964 2.181,29.169 0,5.28 0,26.877 -1.719,30.201 -0.572,1.148 -1.495,3.105 -10.222,3.105 l 0.109,3.099 c 1.502,0 5.974,-0.115 10.113,-0.23 4.254,-0.232 8.154,-0.341 8.726,-0.341 2.874,0 12.98,0.341 15.97,0.456 V 65.58 c -5.627,0 -7.469,-0.347 -8.733,-1.726 C 24.35,60.749 24.35,40.999 24.35,35.147 c 0,-5.286 0,-26.999 0.686,-30.323 C 25.838,1.373 26.525,0.687 35.142,0 L 34.911,-2.875 16.65,-2.644 C 8.04,-2.413 3.555,-2.644 0,-2.875 Z" /></g><g
           transform="translate(238.8877,330.207)"
           id="g28"><path
             id="path30"
             style="fill:#422c88;fill-opacity:1;fill-rule:nonzero;stroke:none"
             d="m 0,0 c -1.61,3.445 -6.544,14.244 -23.426,14.244 -15.046,0 -28.257,-10.914 -28.257,-32.158 0,-21.02 14.931,-33.307 29.746,-33.307 5.056,0 11.832,1.605 13.666,5.172 0.918,1.828 0.918,5.967 0.918,7.917 0,15.509 -0.34,15.509 -12.627,15.509 l 0.34,3.329 c 3.221,0.116 17.458,0.225 20.449,0.347 l 7.923,0.34 v -3.214 c -4.023,-0.687 -4.369,-1.835 -4.369,-14.584 0,-11.948 0.924,-12.519 2.644,-13.667 v -1.605 c -6.198,-1.263 -22.97,-3.567 -30.202,-3.567 -31.927,0 -41.468,21.828 -41.468,36.637 0,25.614 23.317,36.983 43.188,36.983 6.66,0 10.798,-1.148 15.501,-2.412 1.842,-0.347 2.073,-0.115 4.479,2.297 H 0.462 C 1.033,7.469 1.726,3.445 2.297,0 Z" /></g><g
           transform="translate(271.9644,296.4434)"
           id="g32"><path
             id="path34"
             style="fill:#422c88;fill-opacity:1;fill-rule:nonzero;stroke:none"
             d="m 0,0 c 0,-2.644 0,-12.75 0.687,-14.354 1.148,-2.65 4.709,-3.445 7.93,-4.138 v -2.644 c -2.99,0.115 -17.349,0.577 -18.838,0.577 -2.984,0 -6.66,-0.23 -9.997,-0.577 l -1.033,2.644 c 7.469,1.148 7.815,2.759 8.155,5.055 1.38,9.067 1.835,31.01 1.835,41.457 0,18.837 -1.026,20.217 -8.033,20.217 l 0.231,2.984 c 1.258,0.23 2.637,0.23 4.132,0.23 1.149,0 5.396,0 9.65,-0.115 4.364,-0.115 8.72,-0.347 10.33,-0.347 h 5.172 V 48.237 C 9.188,48.006 4.709,47.204 3.792,46.857 2.528,46.396 1.95,45.709 1.379,41.461 0.34,33.646 0.115,29.29 0.231,18.831 c 7.924,-0.115 26.762,-0.34 34.795,-0.34 4.023,0 5.172,0.11 7.584,0.455 0,2.991 0.109,6.205 0.109,11.031 0,16.419 -0.571,17.342 -9.181,18.832 l 0.571,2.642 c 1.61,-0.115 3.329,-0.23 5.627,-0.462 2.412,-0.115 5.287,-0.224 9.072,-0.224 7.585,0 10.799,0.456 13.436,0.686 V 48.809 C 59.491,48.468 56.963,48.006 55.931,44.791 54.436,40.197 54.32,6.089 54.32,-1.265 c 0,-14.584 0.802,-16.534 7.924,-17.227 l -0.231,-2.644 c -2.868,0.347 -7.462,0.577 -14.469,0.577 -4.478,0 -8.61,-0.23 -13.435,-0.577 v 2.644 c 4.594,0.346 6.313,1.72 7.121,4.363 1.38,4.709 1.38,16.881 1.38,27.218 -8.848,0.462 -40.775,0.577 -42.379,0.577 z" /></g><g
           transform="translate(419.917,373.8828)"
           id="g36"><path
             id="path38"
             style="fill:#422c88;fill-opacity:1;fill-rule:nonzero;stroke:none"
             d="m 0,0 c -4.1,0 -6.73,-0.988 -8.7,-1.803 -1.142,-25.761 -1.142,-28.391 -0.982,-52.665 2.464,-0.493 5.91,-1.481 10.337,-1.481 3.279,0 22.476,0.333 22.476,26.415 C 23.131,-7.058 10.337,0 0,0 m -9.515,-73.671 c 0.161,-6.725 0.327,-13.776 0.982,-15.746 1.315,-3.612 7.879,-4.921 14.443,-4.921 v -4.433 c -2.791,0.167 -5.255,0.494 -8.534,0.661 -3.445,0.166 -7.546,0.166 -13.949,0.166 -6.397,0 -12.794,-0.827 -16.567,-0.827 h -3.939 v 3.772 c 9.349,2.624 9.682,3.946 10.176,5.582 1.148,4.101 1.148,22.964 1.148,28.873 0,7.059 -0.166,9.843 -0.66,35.605 -0.488,24.606 -1.315,24.773 -12.14,25.433 -0.161,2.131 -0.161,3.933 0,4.915 2.464,-0.321 14.764,-0.488 20.673,-0.488 2.791,0 5.576,0.167 8.2,0.328 2.791,0.16 5.582,0.327 8.206,0.327 26.416,0 43.971,-16.733 43.971,-33.961 0,-10.831 -9.521,-33.14 -45.453,-33.14 -2.457,0 -4.754,0 -6.724,0.167 z" /></g><g
           transform="translate(505.0684,278.0684)"
           id="g40"><path
             id="path42"
             style="fill:#422c88;fill-opacity:1;fill-rule:nonzero;stroke:none"
             d="m 0,0 c 7.353,0 22.745,4.479 22.745,25.723 0,14.93 -7.244,40.313 -27.795,40.313 -5.517,0 -22.63,-2.528 -22.63,-25.954 C -27.68,21.129 -18.607,0 0,0 m -1.835,70.515 c 21.013,0 37.9,-16.304 37.9,-37.208 0,-19.3 -15.168,-37.446 -38.593,-37.446 -24.235,0 -38.587,17.914 -38.587,38.017 0,22.398 19.293,36.637 39.28,36.637" /></g><g
           transform="translate(541.3594,278.6426)"
           id="g44"><path
             id="path46"
             style="fill:#422c88;fill-opacity:1;fill-rule:nonzero;stroke:none"
             d="m 0,0 c 3.907,0.455 9.072,0.917 10.683,3.676 2.181,3.901 2.181,22.964 2.181,29.169 0,5.28 0,26.877 -1.725,30.201 -0.572,1.148 -1.49,3.105 -10.222,3.105 l 0.115,3.099 c 1.495,0 5.974,-0.115 10.107,-0.23 4.254,-0.232 8.154,-0.341 8.732,-0.341 2.868,0 12.974,0.341 15.964,0.456 V 65.58 c -5.628,0 -7.469,-0.347 -8.732,-1.726 C 24.35,60.749 24.35,40.999 24.35,35.147 c 0,-5.286 0,-26.999 0.686,-30.323 C 25.838,1.373 26.531,0.687 35.148,0 L 34.91,-2.875 16.649,-2.644 C 8.039,-2.413 3.555,-2.644 0,-2.875 Z" /></g><g
           transform="translate(654.3672,295.6406)"
           id="g48"><path
             id="path50"
             style="fill:#422c88;fill-opacity:1;fill-rule:nonzero;stroke:none"
             d="m 0,0 c 0,3.561 0.347,19.749 0.347,22.97 0,24.465 -0.917,25.613 -11.716,26.64 l 1.033,2.528 c 0.692,0.116 1.726,0.231 2.874,0.231 0.918,0 3.445,-0.115 6.083,-0.347 2.644,-0.339 5.402,-0.455 6.319,-0.455 0.572,0 7.925,0.116 9.42,0.116 V 48.808 C 12.75,48.924 9.528,48.924 8.155,46.28 5.974,42.147 5.749,22.623 5.749,16.534 5.634,12.633 5.402,-4.485 5.402,-7.925 c 0,-1.263 0.232,-5.973 0.347,-9.187 l 0.225,-4.37 H 2.528 c -3.907,7.353 -9.99,13.327 -16.079,19.069 l -35.258,33.885 c -1.494,1.488 -3.213,3.214 -4.709,4.362 -0.115,-2.297 -0.346,-7.584 -0.346,-9.881 l -0.455,-26.531 c -0.117,-10.677 -0.117,-14.816 12.627,-16.766 0.346,-1.38 0.115,-2.297 0,-3.105 -1.489,0.115 -2.869,0.346 -4.588,0.577 -1.611,0.116 -3.561,0.231 -6.321,0.231 -2.527,0 -13.666,-0.693 -15.962,-0.808 -0.117,1.27 -0.117,1.61 0,3.105 7.237,0.115 7.923,4.132 8.154,13.892 l 0.571,33.659 c 0.232,9.528 0.115,17.337 -9.643,18.832 -0.116,1.264 -0.116,1.72 0,3.445 0.571,0 2.99,-0.23 5.396,-0.346 2.412,-0.116 4.94,-0.231 5.857,-0.231 h 5.404 c 7.115,-8.155 7.462,-8.495 26.871,-27.102 5.28,-5.287 10.567,-10.452 16.079,-15.508 z" /></g><g
           transform="translate(740.7334,339.0537)"
           id="g52"><path
             id="path54"
             style="fill:#422c88;fill-opacity:1;fill-rule:nonzero;stroke:none"
             d="m 0,0 c -3.901,2.983 -12.403,2.983 -16.997,2.983 -4.369,0 -5.172,0 -7.237,-0.346 -0.456,-9.99 -0.918,-29.515 -0.918,-49.27 0,-12.172 1.033,-12.403 6.205,-13.436 4.132,-0.571 4.593,-0.571 5.627,-0.802 l -0.347,-2.874 c -1.835,0 -9.997,0.692 -11.254,0.692 -11.145,0 -12.403,0 -24.004,-1.841 l -1.032,2.99 c 1.835,0.456 10.336,2.637 11.254,4.133 1.379,2.065 1.495,25.266 1.495,29.052 0,10.452 0,26.762 -1.155,31.356 -3.215,0.231 -4.703,0.346 -10.677,0.346 -14.584,0 -15.502,-2.072 -17.35,-6.775 l -2.861,0.687 c 2.861,7.122 3.9,10.914 4.594,13.205 h 1.95 c 0.918,-0.687 3.1,-1.258 4.595,-1.373 4.593,-0.579 21.706,-0.579 27.673,-0.579 8.386,0 25.158,0.117 32.274,0.462 1.61,0.117 1.956,0.232 2.644,0.687 L 6.204,8.265 C 5.28,5.743 3.445,1.143 2.983,-3.792 l -3.439,-0.577 z" /></g><g
           transform="translate(15.1074,227.7725)"
           id="g56"><path
             id="path58"
             style="fill:#422c88;fill-opacity:1;fill-rule:nonzero;stroke:none"
             d="m 0,0 c -0.339,17.99 -2.542,18.156 -12.045,19.006 v 3.902 H 33.26 l 1.022,-3.902 c -0.339,0 -1.865,-0.166 -2.721,-0.339 -13.743,-2.21 -14.593,-2.548 -14.593,-45.305 0,-29.53 2.21,-37.5 8.999,-42.935 7.127,-5.767 16.285,-6.788 21.886,-6.788 2.887,0 24.102,0.172 30.207,15.953 3.73,9.841 4.745,29.012 4.745,50.055 0,27.66 -3.219,27.832 -14.42,28.509 l -0.677,4.752 9.165,0.338 c 2.541,0 5.594,-0.338 8.991,-0.338 h 16.631 V 18.156 C 98.765,17.99 93.841,17.818 92.487,14.593 91.293,11.713 91.293,-5.939 91.293,-10.353 91.12,-25.111 89.428,-54.98 84.166,-66.348 77.045,-81.617 54.807,-83.993 41.914,-83.993 c -15.781,0 -42.253,3.736 -42.253,33.426 0,4.413 0.85,26.298 0.85,31.223 z" /></g><g
           transform="translate(188.3447,165.6875)"
           id="g60"><path
             id="path62"
             style="fill:#422c88;fill-opacity:1;fill-rule:nonzero;stroke:none"
             d="m 0,0 c 0,3.683 0.358,20.426 0.358,23.757 0,25.304 -0.955,26.491 -12.117,27.553 l 1.068,2.615 c 0.717,0.119 1.786,0.238 2.967,0.238 0.955,0 3.57,-0.119 6.297,-0.358 2.735,-0.352 5.588,-0.471 6.537,-0.471 0.591,0 8.196,0.119 9.742,0.119 V 50.48 C 13.186,50.6 9.861,50.6 8.435,47.866 6.178,43.592 5.939,23.398 5.939,17.101 5.82,13.066 5.581,-4.639 5.581,-8.196 c 0,-1.308 0.239,-6.178 0.358,-9.503 l 0.239,-4.52 H 2.615 c -4.042,7.606 -10.339,13.783 -16.631,19.723 L -50.481,32.55 c -1.54,1.539 -3.325,3.324 -4.871,4.513 -0.119,-2.376 -0.358,-7.845 -0.358,-10.22 l -0.471,-27.441 c -0.126,-11.043 -0.126,-15.323 13.059,-17.339 0.359,-1.428 0.12,-2.376 0,-3.212 -1.539,0.119 -2.966,0.357 -4.744,0.596 -1.666,0.119 -3.69,0.24 -6.537,0.24 -2.615,0 -14.135,-0.717 -16.511,-0.836 -0.119,1.313 -0.119,1.665 0,3.212 7.479,0.119 8.196,4.273 8.435,14.366 l 0.591,34.813 c 0.239,9.855 0.119,17.931 -9.974,19.477 -0.12,1.307 -0.12,1.779 0,3.564 0.597,0 3.086,-0.239 5.581,-0.358 2.495,-0.12 5.11,-0.239 6.058,-0.239 h 5.588 c 7.359,-8.435 7.718,-8.787 27.792,-28.032 5.468,-5.467 10.93,-10.809 16.63,-16.039 z" /></g><g
           transform="translate(209.8472,148.1064)"
           id="g64"><path
             id="path66"
             style="fill:#422c88;fill-opacity:1;fill-rule:nonzero;stroke:none"
             d="m 0,0 c 4.035,0.472 9.383,0.949 11.042,3.803 2.263,4.035 2.263,23.75 2.263,30.168 0,5.461 0,27.799 -1.784,31.236 -0.598,1.188 -1.547,3.212 -10.572,3.212 l 0.119,3.205 c 1.54,0 6.179,-0.12 10.453,-0.239 4.393,-0.239 8.434,-0.352 9.031,-0.352 2.967,0 13.418,0.352 16.511,0.471 v -3.676 c -5.82,0 -7.725,-0.358 -9.032,-1.785 -2.847,-3.212 -2.847,-23.638 -2.847,-29.69 0,-5.468 0,-27.925 0.71,-31.363 C 26.724,1.42 27.434,0.71 36.346,0 L 36.107,-2.973 17.221,-2.734 C 8.315,-2.495 3.683,-2.734 0,-2.973 Z" /></g><g
           transform="translate(268.9951,199.8955)"
           id="g68"><path
             id="path70"
             style="fill:#422c88;fill-opacity:1;fill-rule:nonzero;stroke:none"
             d="m 0,0 c -8.196,16.511 -8.315,16.511 -14.964,16.75 v 2.495 H 15.681 V 16.159 C 9.502,15.92 8.673,15.92 8.673,13.896 c 0,-2.973 3.796,-11.52 21.62,-52.027 1.301,3.092 1.66,3.803 4.746,10.451 3.092,6.537 16.629,35.405 16.629,40.269 0,3.331 -3.915,3.682 -6.171,3.922 l 0.352,3.086 c 8.315,-0.472 12.356,-0.472 22.098,-0.472 l 0.119,-2.854 C 62.008,14.845 58.796,12.111 53.812,2.018 L 38.131,-29.816 c -2.608,-5.342 -7.247,-15.562 -10.213,-26.252 l -2.734,-0.598 c -1.308,4.048 -6.417,15.687 -6.417,15.687 z" /></g><g
           transform="translate(397.6348,170.6758)"
           id="g72"><path
             id="path74"
             style="fill:#422c88;fill-opacity:1;fill-rule:nonzero;stroke:none"
             d="m 0,0 h -2.728 c -1.426,10.213 -1.426,10.69 -20.2,10.69 -4.864,0 -6.41,-0.246 -9.144,-0.716 0,-1.653 -0.359,-15.324 -0.359,-15.675 0,-6.536 0.836,-10.93 1.427,-14.135 3.916,-0.717 9.629,-1.666 16.391,-1.666 17.825,0 21.03,9.145 22.576,13.426 h 2.608 c -0.591,-6.776 -1.659,-10.22 -5.109,-18.177 -15.794,0.949 -20.075,1.068 -31.117,1.068 -10.93,0 -16.033,-0.239 -27.679,-1.068 l 0.358,3.093 c 4.273,0.829 6.649,1.42 7.359,5.342 1.195,6.649 1.433,27.201 1.433,35.038 0,2.973 -0.836,17.58 -0.836,20.911 -0.477,6.529 -1.539,7.127 -5.939,8.188 -0.478,0.127 -1.187,0.24 -1.307,0.359 v 2.024 h 37.534 c 8.315,0 12.475,0 20.194,0.591 C 5.819,41.097 4.034,33.499 2.495,33.499 1.897,33.499 0.836,33.73 0,33.851 c 0.358,1.426 0.717,3.091 0.717,4.631 0,4.52 -4.99,6.538 -16.75,6.538 -4.877,0 -9.861,-0.598 -14.971,-1.308 -0.829,-7.128 -1.188,-11.521 -1.188,-18.409 0,-2.615 0,-4.751 0.12,-10.332 2.734,-0.119 6.649,-0.359 10.816,-0.359 8.309,0 14.487,0.824 15.436,1.301 2.017,0.836 3.092,6.656 3.092,6.775 l 2.728,0 z" /></g><g
           transform="translate(440.6348,216.7656)"
           id="g76"><path
             id="path78"
             style="fill:#422c88;fill-opacity:1;fill-rule:nonzero;stroke:none"
             d="m 0,0 c -6.179,0 -6.179,-1.547 -6.537,-9.151 -0.472,-11.282 -0.472,-12.708 -0.352,-23.041 1.779,-0.359 2.256,-0.478 5.461,-0.478 5.701,0 17.938,0 17.938,15.203 C 16.51,-13.187 14.373,0 0,0 m -28.031,-69.606 c 5.102,1.539 7.008,2.369 7.837,6.171 0.829,3.206 1.068,30.414 1.068,36.472 0,15.436 -0.119,17.931 -0.471,20.665 -0.716,5.349 -5.468,5.468 -7.957,5.581 l 0.465,3.092 c 1.672,0 8.68,-0.119 10.1,-0.119 1.552,0 5.707,0.232 9.742,0.591 4.16,0.358 8.202,0.716 9.622,0.716 19.483,0 26.963,-10.929 26.963,-19.835 0,-8.792 -6.889,-16.04 -16.272,-19.132 13.305,-25.416 22.45,-36.227 34.448,-37.175 v -3.086 c -11.527,-0.239 -28.151,-0.239 -47.634,38.834 -3.205,0.12 -4.154,0.12 -7.127,0.477 -0.119,-2.607 -0.239,-4.75 -0.239,-11.4 0,-3.922 0,-15.801 1.547,-18.296 1.545,-2.256 6.296,-3.324 7.956,-3.556 L 1.546,-72.46 c -3.803,0.471 -5.94,0.591 -7.844,0.71 -2.017,0.119 -3.796,0.119 -7.128,0.119 -4.87,0 -5.819,0 -14.605,-0.829 z" /></g><g
           transform="translate(488.5029,165.4473)"
           id="g80"><path
             id="path82"
             style="fill:#422c88;fill-opacity:1;fill-rule:nonzero;stroke:none"
             d="m 0,0 c 1.307,-5.819 2.973,-9.622 11.64,-13.657 5.109,-2.263 11.519,-3.803 16.39,-3.803 2.854,0 11.766,0.83 11.766,12.237 0,9.736 -8.315,13.299 -19.005,16.982 C 10.1,15.556 1.068,20.426 1.068,33.141 c 0,12.349 10.213,21.142 24.826,21.142 2.615,0 14.493,-1.427 16.391,-1.427 1.188,0 2.495,0.24 3.331,0.836 l 2.018,-0.477 c -0.12,-0.829 -0.472,-6.655 -0.472,-6.888 0,-1.068 0.233,-6.649 0.233,-6.895 v -3.564 h -2.496 c -2.734,15.21 -18.766,15.21 -20.313,15.21 -10.93,0 -13.544,-7.718 -13.544,-12.947 0,-6.052 2.383,-10.339 16.637,-15.322 9.622,-3.564 22.682,-8.442 22.682,-23.407 0,-7.837 -4.274,-20.784 -27.082,-20.784 -5.939,0 -11.281,0.717 -16.982,1.899 -0.238,0 -1.075,0.238 -1.427,0.238 -1.068,0 -1.187,-0.59 -1.187,-1.068 H 0.471 c -0.352,6.417 -1.069,10.213 -3.319,19.596 z" /></g><g
           transform="translate(542.5479,148.1064)"
           id="g84"><path
             id="path86"
             style="fill:#422c88;fill-opacity:1;fill-rule:nonzero;stroke:none"
             d="m 0,0 c 4.034,0.472 9.383,0.949 11.042,3.803 2.263,4.035 2.263,23.75 2.263,30.168 0,5.461 0,27.799 -1.784,31.236 -0.591,1.188 -1.547,3.212 -10.573,3.212 l 0.12,3.205 c 1.539,0 6.178,-0.12 10.453,-0.239 4.392,-0.239 8.434,-0.352 9.031,-0.352 2.967,0 13.418,0.352 16.511,0.471 v -3.676 c -5.821,0 -7.725,-0.358 -9.032,-1.785 -2.847,-3.212 -2.847,-23.638 -2.847,-29.69 0,-5.468 0,-27.925 0.71,-31.363 0.83,-3.57 1.54,-4.28 10.452,-4.99 l -0.24,-2.973 -18.885,0.239 C 8.314,-2.495 3.683,-2.734 0,-2.973 Z" /></g><g
           transform="translate(654.7998,210.5879)"
           id="g88"><path
             id="path90"
             style="fill:#422c88;fill-opacity:1;fill-rule:nonzero;stroke:none"
             d="m 0,0 c -4.041,3.086 -12.828,3.086 -17.579,3.086 -4.513,0 -5.349,0 -7.485,-0.358 -0.479,-10.332 -0.95,-30.527 -0.95,-50.958 0,-12.589 1.069,-12.829 6.41,-13.897 4.281,-0.591 4.759,-0.591 5.821,-0.83 l -0.359,-2.973 c -1.891,0 -10.333,0.717 -11.632,0.717 -11.528,0 -12.835,0 -24.827,-1.904 l -1.075,3.093 c 1.905,0.47 10.697,2.726 11.647,4.273 1.42,2.137 1.54,26.133 1.54,30.048 0,10.81 0,27.68 -1.182,32.431 -3.331,0.239 -4.878,0.358 -11.056,0.358 -15.077,0 -16.033,-2.144 -17.93,-7.008 l -2.967,0.71 c 2.967,7.366 4.035,11.288 4.745,13.657 h 2.025 c 0.948,-0.71 3.205,-1.3 4.75,-1.42 4.752,-0.596 22.451,-0.596 28.623,-0.596 8.672,0 26.019,0.119 33.378,0.477 1.666,0.119 2.025,0.239 2.735,0.71 L 6.41,8.548 C 5.462,5.939 3.563,1.182 3.086,-3.922 l -3.564,-0.597 z" /></g><g
           transform="translate(713.2373,180.0566)"
           id="g92"><path
             id="path94"
             style="fill:#422c88;fill-opacity:1;fill-rule:nonzero;stroke:none"
             d="m 0,0 c 0,-4.513 0,-26.126 0.471,-28.509 0.596,-2.495 7.253,-3.915 9.861,-4.273 l -0.239,-2.735 c -3.915,0.359 -10.093,0.95 -15.084,0.95 -2.734,0 -14.845,-0.95 -17.221,-0.95 l 0.12,2.735 c 7.36,0.597 8.547,2.256 9.264,4.632 0.71,2.495 0.71,18.886 0.71,23.041 0,1.426 0,2.023 -0.119,4.161 -3.677,5.945 -6.77,10.929 -19.126,27.439 -4.506,5.581 -8.076,9.982 -15.555,9.982 l -0.478,2.846 c 1.188,0 4.513,-0.119 7.957,-0.119 3.451,-0.12 6.888,-0.239 8.076,-0.239 l 16.279,0.239 -0.472,-3.206 c -1.075,0 -6.298,0 -6.298,-2.137 0,-2.143 13.067,-20.2 20.195,-28.86 14.964,23.393 15.674,24.58 15.674,27.195 0,3.564 -4.035,3.564 -7.36,3.683 l 0.352,3.444 c 1.068,0 3.205,-0.119 5.707,-0.239 2.376,-0.119 5.103,-0.238 7.121,-0.238 1.904,0 10.1,0.238 11.879,0.238 l -0.12,-3.796 C 23.398,35.165 19.125,32.072 4.87,8.076 Z" /></g><g
           transform="translate(558.126,485.1548)"
           id="g96"><path
             id="path98"
             style="fill:#422c88;fill-opacity:1;fill-rule:nonzero;stroke:none"
             d="m 0,0 -18.233,9.639 h -132.72 l 20.268,-10.255 z" /></g><path
           id="path100"
           style="fill:#422c88;fill-opacity:1;fill-rule:nonzero;stroke:none"
           d="m 545.818,456.218 h -11.701 v 17.624 h 11.701 z m 0,-26.884 h -11.701 v 18.734 h 11.701 z m -30.384,26.884 H 503.74 v 17.624 h 11.694 z m 0,-26.884 H 503.74 v 18.734 h 11.694 z m -31.596,26.884 h -11.695 v 17.624 h 11.695 z m 0,-26.884 h -11.695 v 18.734 h 11.695 z m -32.668,26.884 h -11.694 v 17.624 h 11.694 z m 0,-26.884 h -11.694 v 18.734 h 11.694 z m -24.911,-9.132 h 127.912 v 61.524 H 426.259 Z" /><g
           transform="translate(188.7939,485.1548)"
           id="g102"><path
             id="path104"
             style="fill:#422c88;fill-opacity:1;fill-rule:nonzero;stroke:none"
             d="M 0,0 18.227,9.639 H 150.953 L 130.684,-0.616 Z" /></g><path
           id="path106"
           style="fill:#422c88;fill-opacity:1;fill-rule:nonzero;stroke:none"
           d="m 307.447,456.218 h -11.695 v 17.624 h 11.695 z m 0,-26.884 h -11.695 v 18.734 h 11.695 z m -32.668,26.884 h -11.695 v 17.624 h 11.695 z m 0,-26.884 h -11.695 v 18.734 h 11.695 z m -31.595,26.884 h -11.695 v 17.624 h 11.695 z m 0,-26.884 h -11.695 v 18.734 h 11.695 z m -30.385,26.884 h -11.701 v 17.624 h 11.701 z m 0,-26.884 h -11.701 v 18.734 h 11.701 z m -20.054,-9.132 h 127.919 v 61.524 H 192.745 Z" /><g
           transform="translate(362.6196,579.855)"
           id="g108"><path
             id="path110"
             style="fill:#422c88;fill-opacity:1;fill-rule:nonzero;stroke:none"
             d="M 0,0 10.337,29.078 20.75,0.044 Z" /></g><g
           transform="translate(373.0337,552.9238)"
           id="g112"><path
             id="path114"
             style="fill:#422c88;fill-opacity:1;fill-rule:nonzero;stroke:none"
             d="m 0,0 c 4.37,0 10.47,-0.082 12.024,-0.082 1.573,0 2.562,-0.577 2.562,-1.979 V -9.64 c 0,-0.818 -0.742,-1.141 -1.484,-1.141 h -25.044 c -1.142,0 -2.55,0.323 -2.55,2.048 0,1.725 -0.082,5.099 -0.082,6.26 0,1.147 0.736,2.391 1.725,2.391 C -11.86,-0.082 -2.968,0 0,0" /></g><g
           transform="translate(377.6094,563.7129)"
           id="g116"><path
             id="path118"
             style="fill:#422c88;fill-opacity:1;fill-rule:nonzero;stroke:none"
             d="m 0,0 c 0,-2.594 -2.105,-4.7 -4.693,-4.7 -2.6,0 -4.693,2.106 -4.693,4.7 v 2.625 c 0,2.607 2.093,4.706 4.693,4.706 C -2.105,7.331 0,5.232 0,2.625 Z m 4.37,12.354 h -9.228 c -3.627,0 -7.667,0.083 -9.062,0.083 -1.402,0 -2.804,-1.319 -2.804,-2.385 V -8.156 H 7.243 V 8.815 c 0,1.979 -1.979,3.539 -2.873,3.539" /></g><g
           transform="translate(379.2207,495.1426)"
           id="g120"><path
             id="path122"
             style="fill:#422c88;fill-opacity:1;fill-rule:nonzero;stroke:none"
             d="m 0,0 c 0,-3.45 -2.784,-6.228 -6.229,-6.228 -3.424,0 -6.208,2.778 -6.208,6.228 0,3.438 2.784,6.221 6.208,6.221 C -2.784,6.221 0,3.438 0,0" /></g><g
           transform="translate(432.1953,412.9849)"
           id="g124"><path
             id="path126"
             style="fill:#422c88;fill-opacity:1;fill-rule:nonzero;stroke:none"
             d="m 0,0 h -119.123 c -0.266,0 -0.481,0.222 -0.481,0.488 0,0.273 0.215,0.494 0.481,0.494 H 0 C 0.272,0.982 0.501,0.761 0.501,0.488 0.501,0.222 0.272,0 0,0 M -118.196,4.566 H -1.541 c 0.552,0 0.989,-0.444 0.989,-0.989 0,-0.54 -0.437,-0.983 -0.989,-0.983 h -116.655 c -0.546,0 -0.983,0.443 -0.983,0.983 0,0.545 0.437,0.989 0.983,0.989 m 4.629,3.501 H -6.469 V 7.084 h -107.098 z m 7.826,55.993 c 0,2.29 1.548,3.584 3.837,3.584 1.973,0 4.383,-0.311 4.383,-3.653 0,-3.324 -0.241,-44.344 -0.241,-46.132 0,-1.795 -0.248,-4.084 -3.767,-4.084 -2.975,0 -4.212,1.357 -4.212,3.76 z m 25.4,-0.069 c 0,-3.324 -0.247,-44.344 -0.247,-46.132 0,-1.795 -0.26,-4.084 -3.774,-4.084 -2.968,0 -4.198,1.357 -4.198,3.76 V 64.06 c 0,2.29 1.541,3.584 3.831,3.584 1.972,0 4.388,-0.311 4.388,-3.653 m 16.305,0 c 0,-3.324 -0.247,-44.344 -0.247,-46.132 0,-1.795 -0.254,-4.084 -3.767,-4.084 -2.968,0 -4.199,1.357 -4.199,3.76 V 64.06 c 0,2.29 1.535,3.584 3.818,3.584 1.979,0 4.395,-0.311 4.395,-3.653 m 18.405,0 c 0,-3.324 -0.247,-44.344 -0.247,-46.132 0,-1.795 -0.241,-4.084 -3.768,-4.084 -2.967,0 -4.198,1.357 -4.198,3.76 V 64.06 c 0,2.29 1.541,3.584 3.83,3.584 1.98,0 4.383,-0.311 4.383,-3.653 m 18.404,0 c 0,-3.324 -0.241,-44.344 -0.241,-46.132 0,-1.795 -0.247,-4.084 -3.766,-4.084 -2.962,0 -4.199,1.357 -4.199,3.76 V 64.06 c 0,2.29 1.547,3.584 3.825,3.584 1.971,0 4.381,-0.311 4.381,-3.653 m -72.089,13.255 c 1.979,0.9 21.41,9.107 24.702,10.426 3.298,1.319 8.784,3.5 10.686,4.236 1.89,0.749 3.209,1.402 4.77,1.402 2.061,0 18.702,-7.16 23.566,-9.222 4.852,-2.054 13.331,-5.929 15.564,-7.249 2.214,-1.312 2.214,-1.889 2.131,-2.549 -0.077,-0.66 -0.743,-1.326 -2.467,-1.326 -1.725,0 -32.782,0.165 -38.877,0.165 -6.094,0 -39.378,0.254 -40.938,0.254 -1.56,0 -2.353,0.425 -2.353,1.325 0,0.908 1.243,1.612 3.216,2.538 m 87.671,-13.255 c 0,-3.324 -0.259,-44.344 -0.259,-46.132 0,-1.795 -0.242,-4.084 -3.767,-4.084 -2.969,0 -4.205,1.357 -4.205,3.76 V 64.06 c 0,2.29 1.554,3.584 3.837,3.584 1.978,0 4.394,-0.311 4.394,-3.653 M 1.554,1.065 v 4.858 l -2.48,1.56 h -2.391 l -1.484,1.326 v 62.354 c 0,2.391 -3.457,3.463 -6.666,4.858 -3.215,1.408 -21.005,9.64 -22.406,10.382 -1.408,0.736 -4.033,2.645 -4.033,3.209 v 8.15 c 0,2.144 -0.742,2.226 -2.81,2.226 h -18.442 c -3.704,0 -15.735,0.076 -17.295,0.076 -2.315,0 -3.4,-0.603 -3.4,-1.763 V 92.98 c 0,-2.067 0.21,-3.945 -0.615,-4.522 -0.824,-0.583 -5.454,-2.81 -8.175,-4.04 -2.714,-1.236 -19.691,-8.238 -21.417,-9.056 -1.731,-0.824 -3.545,-0.989 -3.545,-3.127 0,-2.15 -0.323,-62.513 -0.323,-62.513 l -1.573,-1.903 h -2.302 l -2.638,-1.477 V 3.944 h -0.901 V -1.491 H 2.955 v 2.556 z" /></g><g
           transform="translate(372.958,518.3257)"
           id="g128"><path
             id="path130"
             style="fill:#422c88;fill-opacity:1;fill-rule:nonzero;stroke:none"
             d="m 0,0 c -3.843,0 -6.957,3.114 -6.957,6.963 0,3.85 3.114,6.964 6.957,6.964 3.85,0 6.964,-3.114 6.964,-6.964 C 6.964,3.114 3.85,0 0,0 M 18.665,20.674 H -19.14 c -1.072,0 -1.402,-0.653 -1.402,-1.731 0,-1.065 -0.076,-16.717 -0.076,-17.954 0,-1.23 0.076,-3.044 1.066,-3.044 h 38.629 c 1.154,0 1.732,0.171 1.732,1.148 v 19.28 c 0,1.889 -0.826,2.301 -2.144,2.301" /></g></g></g></g></svg>