<svg width="83" height="104" viewBox="0 0 83 104" fill="none" xmlns="http://www.w3.org/2000/svg">
<path d="M17.4246 63.4413C17.3114 62.9079 16.9881 62.4715 16.5356 62.1806C16.2123 61.9704 15.8244 61.8573 15.4365 61.8573C14.7414 61.8573 14.1111 62.1967 13.7393 62.7786L0.824755 83.1445C0.242873 84.0981 0.51765 85.3265 1.43896 85.9084C1.76223 86.1347 2.13399 86.2479 2.53807 86.2479C3.21694 86.2479 3.86347 85.8923 4.25139 85.3104L17.1659 64.9607C17.4569 64.5081 17.5377 63.9747 17.4246 63.4413Z" fill="#91A93E"/>
<path d="M26.1205 77.0022C25.7972 76.7921 25.4255 76.679 25.0375 76.679C24.3425 76.679 23.7121 77.0346 23.3404 77.6164L10.4258 97.95C9.82779 98.8875 10.0864 100.132 11.04 100.746C11.3795 100.956 11.7512 101.053 12.1068 101.053C12.8019 101.053 13.4484 100.698 13.8201 100.116L26.7347 79.7662C27.0256 79.3136 27.1226 78.764 27.0095 78.2306C26.8963 77.7296 26.5731 77.277 26.1205 77.0022Z" fill="#91A93E"/>
<path d="M43.6257 79.3947C43.3024 79.1846 42.9306 79.0714 42.5427 79.0714C41.8477 79.0714 41.2012 79.427 40.8294 80.0089L27.9149 100.342C27.333 101.28 27.6078 102.524 28.5452 103.139C28.8685 103.349 29.2403 103.446 29.6282 103.446C30.3232 103.446 30.9859 103.09 31.3415 102.508L44.256 82.1748C44.547 81.7222 44.644 81.1727 44.5308 80.6554C44.4015 80.122 44.0782 79.6695 43.6257 79.3947Z" fill="#91A93E"/>
<path d="M36.8208 62.4067L48.9757 52.0136L43.4155 49.4275L36.8208 62.4067Z" fill="#91A93E"/>
<path d="M74.6264 0L0 28.3506L23.2268 38.582L74.6264 0Z" fill="#91A93E"/>
<path d="M31.9393 64.5728L41.1525 46.4859C41.1848 46.4374 41.2171 46.4051 41.2495 46.3404C41.2818 46.3081 41.2979 46.2435 41.3303 46.195L79.1203 0L25.3608 41.1843L31.9393 64.5728Z" fill="#91A93E"/>
<path d="M45.3066 46.6153L73.7865 59.7561L82.5309 0.0970459L45.3066 46.6153Z" fill="#91A93E"/>
</svg>
