<svg width="79" height="86" viewBox="0 0 79 86" fill="none" xmlns="http://www.w3.org/2000/svg">
<path d="M67.8754 66.4981C67.9013 66.5203 67.9309 66.5462 67.9642 66.561C70.5112 67.89 72.6583 69.6855 74.4057 71.9511C74.9202 72.6137 75.4015 73.3837 75.8606 74.2463C76.3418 75.1496 76.7416 76.038 77.06 76.9265C77.9781 79.4476 78.5666 82.0352 78.8221 84.6969C78.8332 84.8191 78.8369 84.919 78.8332 84.9857C78.8147 85.3522 78.6296 85.5743 78.2743 85.6594C78.0892 85.7038 77.9152 85.7261 77.7523 85.7261C74.4316 85.7409 68.4122 85.7631 59.7052 85.7853C59.3942 85.7927 58.95 85.7927 58.3725 85.7927C51.013 85.826 40.7661 85.8593 27.6243 85.9112C27.4207 85.9149 27.2985 85.9149 27.2467 85.9149C15.3038 85.9556 6.6266 85.9778 1.22185 86C0.944202 86 0.710982 85.9593 0.548091 85.7483C0.400012 85.5484 0.30746 85.4077 0.259336 85.3189C0.188998 85.1856 0.159382 85.0264 0.174191 84.8524C0.429625 81.9759 1.08117 79.1773 2.12513 76.4674C2.4398 75.6382 2.83961 74.7942 3.30976 73.9389C3.72438 73.1912 4.15751 72.5248 4.61655 71.9325C5.83453 70.348 7.28196 68.9709 8.95522 67.8158C8.99594 67.7862 9.05518 67.7492 9.12921 67.7122C9.13662 67.7048 9.14772 67.6974 9.14772 67.6826C9.14772 67.6678 9.14402 67.6567 9.12921 67.6455C8.60353 67.3013 8.14076 66.9015 7.72983 66.4424C7.4744 66.1611 7.26338 65.876 7.09309 65.5873C6.30087 64.2361 6.1713 62.6109 6.43784 61.0783C6.70068 59.6012 7.21155 58.25 7.98155 57.021C8.41839 56.3287 8.91075 55.6735 9.45864 55.0516C9.9584 54.4889 10.4545 53.9595 10.9579 53.4745C11.4318 53.0229 12.0944 52.3788 12.9422 51.5495C13.4827 51.0313 14.0898 50.3908 14.5562 49.8577C14.882 49.4875 15.1893 49.0914 15.4743 48.6694C15.8519 48.1104 16.1777 47.4292 16.3147 46.7814C16.5701 45.5597 16.2591 44.4676 15.3707 43.5199C15.1856 43.3163 14.9783 43.1201 14.7561 42.9276C14.4341 42.65 13.9935 42.3168 13.442 41.9318C12.5794 41.3247 12.0167 40.9249 11.7501 40.7324C11.3096 40.414 10.8913 40.0734 10.4915 39.7107C9.82514 39.0961 9.25502 38.4076 8.79226 37.6376C8.60345 37.3192 8.44797 37.0008 8.32211 36.6788C7.87047 35.5349 7.67797 34.3577 7.7409 33.1544C7.85937 31.0184 8.62567 28.9935 9.76586 27.2128C10.5396 26.006 11.4391 24.9065 12.4646 23.9143C12.6608 23.7218 13.0532 23.3665 13.6308 22.8482C14.138 22.4002 14.8783 21.7487 15.8668 20.8972C16.0963 20.6973 16.4036 20.3938 16.7738 20.0051C17.3476 19.409 17.8399 18.7575 18.162 18.0171C18.5248 17.1804 18.6876 16.292 18.6432 15.3517C18.6136 14.6594 18.5988 14.1115 18.5951 13.7117C18.5951 13.3526 18.621 12.9268 18.6728 12.4419C18.8024 11.3573 19.1319 10.3651 19.6798 9.45818C19.8575 9.16202 20.0611 8.86586 20.2943 8.57711C21.0791 7.59605 22.0601 6.7706 23.2411 6.10048C24.3813 5.45264 25.5956 5.06018 26.8764 4.91215C27.8685 4.7974 28.8384 4.92696 29.7787 5.29716C29.8194 5.31197 29.849 5.30086 29.875 5.26754C30.1748 4.82331 30.5561 4.39758 31.0225 3.98293C32.3182 2.84645 33.8435 1.99863 35.4464 1.40632C36.5237 1.01021 37.6232 0.706648 38.7486 0.488231C41.9212 -0.122592 45.0863 -0.159609 48.2446 0.373474C48.5333 0.425302 48.8813 0.491937 49.2922 0.588185C51.1395 1.00281 52.9201 1.67653 54.5305 2.68346C56.2667 3.7755 57.6401 5.21193 58.6545 6.99996C59.0765 7.73295 59.4541 8.55846 59.8021 9.4729C60.1204 10.3244 60.3685 11.0351 60.5425 11.5978C61.0644 13.3377 61.4013 14.4409 61.5494 14.9074C62.001 16.3437 62.5563 17.6247 63.2005 18.7611C63.9039 19.9902 64.7479 21.1119 65.7327 22.1262C66.1473 22.552 66.6877 23.0443 67.269 23.5441C68.3241 24.4437 69.0422 25.0286 69.9307 25.9023C70.5267 26.4872 71.0561 27.1572 71.5189 27.9161C71.9002 28.5455 72.1852 29.2118 72.374 29.9004C72.7479 31.3183 72.6924 32.8435 72.2852 34.2502C71.9001 35.5718 71.2671 36.7971 70.5008 37.9707C70.2454 38.3631 70.0196 38.7074 69.8048 39.0035C69.2051 39.8586 68.7202 40.5583 68.3537 41.1173C67.7614 42.0095 67.2839 42.8869 66.91 43.7457C66.7027 44.2196 66.5435 44.7342 66.4287 45.282C66.3547 45.6485 66.3214 46.0039 66.3214 46.3445C66.3325 47.1922 66.5694 48.0067 67.0322 48.7767C67.2728 49.1802 67.5171 49.5282 67.7577 49.817C68.3908 50.5648 68.8573 51.0238 69.7864 51.9493C70.2047 52.375 70.6193 52.8822 71.0266 53.4745C71.6337 54.3593 72.0224 55.3329 72.1964 56.3991C72.2852 56.9247 72.3223 57.48 72.3149 58.0501C72.2741 60.3231 71.4708 62.5184 70.1233 64.3361C69.8938 64.6396 69.668 64.9173 69.4421 65.1542C69.0127 65.5984 68.4944 66.039 67.88 66.4684C67.8651 66.4758 67.8643 66.487 67.8754 66.4981ZM46.9112 21.4377C46.7039 21.2933 46.3893 21.0527 45.9561 20.701C44.9566 19.8977 44.0607 18.9944 43.2686 17.9911C43.2537 17.9726 43.2352 17.9652 43.2167 17.9763C42.3801 18.4539 41.4694 18.7908 40.4847 18.9943C39.3001 19.235 38.1154 19.3238 36.9271 19.2609C35.5537 19.1868 34.2432 18.85 32.9994 18.2466C32.5144 18.017 32.0702 17.7394 31.6592 17.4136C31.6555 17.4099 31.6444 17.4025 31.637 17.4099C31.6259 17.4136 31.6222 17.4247 31.6222 17.4321C31.637 17.7283 31.6296 18.0244 31.6 18.3206C31.5667 18.7315 31.5222 19.1017 31.463 19.4312C31.2742 20.4381 30.9188 21.3821 30.3858 22.2595C30.3561 22.3113 30.3709 22.3299 30.4265 22.3113C31.4371 21.956 32.4996 21.7931 33.6139 21.8227C34.3654 21.8449 35.1168 21.9412 35.8647 22.1115C36.1164 22.1707 36.3348 22.2447 36.5088 22.3336C36.7235 22.4446 36.842 22.6075 36.8642 22.8185C36.8864 23.0555 36.7532 23.2961 36.5088 23.3664C36.3756 23.4071 36.2571 23.4108 36.1571 23.3775C35.8647 23.2776 35.5944 23.2072 35.3464 23.1628C34.5764 23.0221 33.8175 22.9703 33.0734 23.0073C32.5626 23.0258 31.948 23.1258 31.5039 23.248C31.2151 23.3257 30.7968 23.4812 30.2452 23.6959C29.9676 23.807 29.6899 23.9254 29.4197 24.0476C29.2864 24.1068 29.179 24.1216 28.9865 24.1549C28.9199 24.166 28.8755 24.1846 28.8459 24.2216C28.4165 24.6436 28.0092 25.0138 27.6279 25.3248C27.1207 25.7394 26.5765 26.1059 26.0028 26.4205C25.9843 26.4316 25.9732 26.4501 25.9732 26.4761C25.9732 26.8611 25.9991 27.2757 26.0398 27.7236C26.3693 31.1553 26.9505 34.5463 27.7909 37.8963C28.087 39.0772 28.4128 40.1989 28.7681 41.2651C28.9199 41.7315 29.0976 42.1869 29.2864 42.6311C29.5678 43.2826 29.9231 43.8749 30.3563 44.408C30.5117 44.5968 30.6635 44.7597 30.8264 44.9004C31.2966 45.3076 31.8223 45.6704 32.4109 45.9924C33.0476 46.3367 33.8435 46.6995 34.806 47.0697C35.8574 47.4732 36.9383 47.8286 38.0045 48.0395C38.4672 48.1358 38.9263 48.195 39.3705 48.2135C39.9813 48.2394 40.5699 48.1543 41.1733 48.0062C41.6916 47.873 42.1506 47.7508 42.543 47.6397C44.0386 47.2103 45.4306 46.5143 46.6966 45.5925C47.1779 45.2371 47.6925 44.804 48.2404 44.2931C48.9696 43.6119 49.5434 42.842 49.9618 41.9794C50.3579 41.1539 50.7022 40.2765 50.9946 39.3547C51.4869 37.7888 51.8682 36.3265 52.1237 34.9753C52.3532 33.7759 52.505 32.6097 52.6641 31.2845C52.8418 29.774 52.9899 28.3969 53.1084 27.1531C53.1676 26.4793 53.212 25.8537 53.2342 25.265C53.2416 25.1614 53.2305 25.0873 53.2046 25.0503C53.0788 24.8504 52.964 24.6431 52.864 24.4284C52.827 24.3433 52.7752 24.2951 52.6937 24.2803C52.1385 24.1693 51.6165 24.0212 51.1167 23.8361C50.9464 23.7695 50.6873 23.6621 50.343 23.514C50.2134 23.4548 50.0505 23.4252 49.9431 23.3956C49.8395 23.3696 49.7395 23.3363 49.6507 23.2956C49.2916 23.1401 48.9103 23.0142 48.5105 22.9328C48.033 22.8329 47.5924 22.7625 47.1889 22.7144C46.5485 22.6404 45.8859 22.6367 45.1936 22.6996C44.6123 22.7551 44.0237 22.8921 43.4388 23.1142C43.2315 23.1919 43.0834 23.229 42.9872 23.2216C42.7724 23.2031 42.617 23.0994 42.5355 22.9069C42.4059 22.6292 42.5355 22.359 42.7724 22.1998C42.9057 22.111 43.0723 22.0369 43.2685 21.9703C44.4642 21.5557 45.6822 21.4002 46.9335 21.5002C46.9816 21.5002 46.9853 21.489 46.9483 21.4557C46.9409 21.4557 46.9335 21.4451 46.9112 21.4377ZM54.3004 28.5084C54.8187 27.9605 55.411 27.5422 56.0884 27.2608C56.5771 27.0535 57.6173 26.8462 57.9505 27.4237C58.1022 27.6903 57.9801 28.0568 57.6987 28.1752C57.5729 28.2233 57.4655 28.2493 57.3804 28.2419C57.0768 28.227 56.7954 28.2641 56.5326 28.3418C56.4586 28.3677 56.4401 28.4121 56.4697 28.4788C56.6622 28.9193 56.7806 29.3821 56.814 29.8633C56.8732 30.6629 56.7695 31.3737 56.2624 31.9845C56.1217 32.1511 55.9551 32.2363 55.7589 32.24C55.2776 32.24 55.0666 31.7624 55.2739 31.3626C55.2999 31.3182 55.3776 31.196 55.5109 30.9961C55.5701 30.9035 55.6182 30.7555 55.6441 30.5519C55.7182 30.0484 55.6626 29.5449 55.4776 29.0489C55.4627 29.0082 55.4368 29.0045 55.4035 29.0267C55.1074 29.2858 54.8593 29.5413 54.6779 29.8041C54.4558 30.1188 54.3373 30.3557 54.0597 30.4556C54.0153 30.4705 53.9894 30.5001 53.9857 30.5445C53.8339 32.0327 53.634 33.4987 53.3934 34.935C53.3822 34.9794 53.3971 35.0053 53.4415 35.0202C53.597 35.0794 53.7302 35.1275 53.9116 35.1386C54.7001 35.1793 55.485 34.8462 56.118 34.3982C56.5585 34.0873 56.9509 33.7282 57.3026 33.3136C58.0245 32.4547 58.5612 31.4848 58.9129 30.4112C59.1721 29.6005 59.2831 28.7157 59.2313 27.7532C59.1721 26.6204 58.5205 24.5362 57.0397 24.5695C56.6029 24.5806 56.2068 24.7287 55.8477 25.01C55.4849 25.2951 55.1851 25.6431 54.937 26.0428C54.863 26.165 54.7371 26.3871 54.5668 26.7018C54.4891 26.8462 54.3558 26.9683 54.341 27.1682C54.2855 27.7828 54.2411 28.2418 54.2041 28.5527C54.1966 28.5935 54.2078 28.5972 54.2374 28.5749C54.2522 28.5601 54.2708 28.538 54.3004 28.5084ZM24.9879 29.3339C24.9953 29.345 25.0065 29.345 25.0176 29.3339C25.0398 29.3191 25.0472 29.2932 25.0361 29.2636C25.025 29.2155 25.0176 29.1377 25.0065 29.0229C25.0028 28.9822 24.9657 28.5195 24.8917 27.631C24.8843 27.5236 24.8399 27.4088 24.7658 27.3015C24.292 26.5981 23.6775 26.065 22.9297 25.7059C22.4928 25.4949 22.0005 25.3765 21.5303 25.4098C20.6492 25.469 20.0495 26.065 19.857 26.909C19.6423 27.8789 19.7312 28.934 19.9607 29.9002C20.168 30.7812 20.4641 31.6549 20.8454 32.5285C21.1453 33.2171 21.5303 33.8316 22.0005 34.3573C22.3855 34.7979 22.8557 35.1125 23.3962 35.3124C23.8515 35.4753 24.3846 35.5234 24.8288 35.405C25.0695 35.342 25.2472 35.2458 25.3656 35.1273C25.5211 34.9644 25.6433 34.846 25.7321 34.7571C25.758 34.7349 25.7728 34.709 25.7802 34.6831C25.7913 34.6535 25.795 34.6202 25.7913 34.5942C25.5433 33.3911 25.3582 32.2176 25.2324 31.0811C25.2286 31.0256 25.2138 30.9811 25.1842 30.9441C25.1731 30.9293 25.1657 30.9182 25.1435 30.9071C25.0176 30.8479 24.9177 30.7887 24.8585 30.722C24.6808 30.5295 24.5142 30.3814 24.3661 30.2778C24.0996 30.1001 23.8108 29.9446 23.5072 29.8224C23.4517 29.7965 23.4221 29.8187 23.4221 29.878C23.4258 29.9816 23.4332 30.1297 23.4332 30.3222C23.4369 30.6258 23.5294 30.933 23.7071 31.2403C23.7442 31.3032 23.8219 31.4217 23.9367 31.5883C24.0403 31.7512 24.1033 31.8696 24.1218 31.9548C24.1625 32.0917 24.1477 32.2324 24.0847 32.3583C23.9515 32.6322 23.6627 32.7211 23.3814 32.6322C23.1741 32.5619 23.0667 32.3805 22.9149 32.1732C22.6188 31.7512 22.4263 31.3069 22.3374 30.833C22.2708 30.4739 22.2856 30.026 22.3115 29.6262C22.3115 29.5855 22.293 29.5596 22.2486 29.5596C22.0783 29.5596 21.9376 29.5522 21.808 29.53C21.4415 29.4819 21.2564 29.3005 21.2416 28.9784C21.2305 28.6526 21.4489 28.4194 21.7599 28.3824C22.0413 28.3453 22.3559 28.3898 22.6262 28.4305C23.1074 28.5045 23.4258 28.5638 23.5886 28.6193C24.0884 28.7859 24.5511 29.0229 24.9879 29.3339ZM48.2844 45.8998C46.8887 47.1029 45.308 48.0099 43.5422 48.6318C43.2756 48.728 42.8388 48.8502 42.2317 49.0094C41.5949 49.1723 41.2506 49.2611 41.1951 49.2685C40.2733 49.4758 39.3292 49.5018 38.3668 49.3574C37.6115 49.2389 36.8712 49.0723 36.153 48.8502C34.9425 48.4763 33.7097 47.9951 32.5325 47.4434C31.818 47.1029 31.1776 46.729 30.6186 46.3144C30.6075 46.3069 30.6038 46.3069 30.5927 46.3144C30.589 46.3144 30.5853 46.3218 30.5853 46.3292C30.5927 46.4328 30.6149 46.5365 30.6149 46.629C30.6334 48.0543 30.6519 49.2315 30.6816 50.1495C30.7334 51.7969 30.6927 53.348 30.5705 54.7992C30.4891 55.7061 30.341 56.5539 30.1263 57.3461C29.7264 58.7861 28.9935 60.03 27.9273 61.0703C27.9088 61.0925 27.9088 61.111 27.9273 61.1295C29.2156 62.5177 30.6927 63.6431 32.3512 64.5057C33.9912 65.3609 35.7237 65.9051 37.5488 66.1346C39.2368 66.353 40.9139 66.279 42.5797 65.9125C44.2382 65.5497 45.7856 64.9167 47.222 64.0134C48.5843 63.1583 49.7837 62.1143 50.8166 60.8704C50.8314 60.8482 50.8314 60.8297 50.8166 60.8112C49.7949 59.7043 49.1137 58.4124 48.7732 56.9315C48.577 56.0764 48.4511 55.1879 48.3919 54.2513C48.3289 53.2073 48.2993 52.2374 48.303 51.3231C48.3104 50.6382 48.3252 49.9941 48.3437 49.3981C48.3548 49.1464 48.3585 48.791 48.3622 48.3283C48.3734 47.351 48.3993 46.5106 48.4363 45.8147C48.4363 45.811 48.4326 45.7999 48.4289 45.7999C48.4178 45.7962 48.4141 45.7962 48.4067 45.7999C48.3622 45.8332 48.3251 45.8701 48.2844 45.8998ZM53.0784 62.5329C53.0969 62.5144 53.0932 62.4922 53.0673 62.4774C52.5935 62.2256 52.1677 61.9591 51.7938 61.6777C51.7753 61.6629 51.7605 61.6703 51.7457 61.6851C50.835 62.7698 49.8244 63.7027 48.7175 64.4912C46.5999 66.009 44.2603 66.9493 41.706 67.3195C39.5515 67.6379 37.3376 67.4972 35.2794 66.9493C32.1031 66.1127 29.2156 64.3542 26.9907 61.9294C26.9574 61.8924 26.9167 61.885 26.8723 61.922C26.4873 62.1812 26.0875 62.4107 25.6839 62.6032C25.6543 62.6106 25.6469 62.6328 25.6728 62.6513C26.9759 64.0433 28.4086 65.2612 29.9671 66.2978C30.9037 66.9271 31.892 67.4639 32.9249 67.9267C34.5575 68.6523 36.2493 69.1076 37.9967 69.289C38.3669 69.3297 38.7222 69.3557 39.0628 69.3631C40.8472 69.4038 42.5501 69.1632 44.1715 68.6338C45.8411 68.097 47.3959 67.3196 48.8471 66.3201C50.0799 65.4612 51.2422 64.4617 52.3159 63.3363C52.4121 63.2401 52.6638 62.9734 53.0784 62.5329ZM63.2444 72.5577C63.4628 72.317 63.7627 72.2652 64.0366 72.4577C64.218 72.5836 64.3106 72.7983 64.318 73.1056C64.3624 74.6604 64.4661 78.4512 64.629 84.478C64.629 84.5187 64.6475 84.5372 64.6882 84.5372L77.5191 84.4891C77.545 84.4928 77.5599 84.478 77.5562 84.4484C77.3081 82.1531 76.7935 79.8913 76.0161 77.6701C75.6645 76.6706 75.2387 75.7007 74.7464 74.7752C74.0356 73.4313 73.1435 72.2208 72.0699 71.1362C71.8441 70.903 71.5887 70.6586 71.2999 70.3958C70.1448 69.3259 68.8529 68.4153 67.4128 67.6712C66.0505 66.9604 64.7066 66.4014 63.2555 65.8979C62.119 65.5055 61.0455 65.1575 60.0275 64.8613C58.3579 64.3838 57.2177 64.0469 56.6105 63.8618C55.9293 63.6582 55.1742 63.3916 54.3375 63.0658C54.2783 63.0473 54.2265 63.0621 54.1895 63.1103C53.1751 64.2912 52.0756 65.3722 50.8799 66.3383C49.3694 67.5674 47.7369 68.5558 45.9785 69.2962C45.6453 69.4332 45.3121 69.5628 44.9826 69.6738C41.4621 70.8732 37.923 70.914 34.3655 69.7923C32.2924 69.137 30.3119 68.0967 28.5461 66.8159C27.0911 65.7645 25.7437 64.5651 24.5035 63.2176C24.4628 63.1806 24.4147 63.1658 24.3592 63.188C23.5003 63.51 22.6267 63.8062 21.7345 64.0616C21.1533 64.2319 20.1797 64.5133 18.8174 64.9131C17.0849 65.4203 15.4856 65.9645 14.0085 66.5494C12.8905 67.001 11.8096 67.523 10.7767 68.1265C9.82898 68.6744 8.9553 69.2963 8.14463 69.996C7.63376 70.4439 7.15248 70.8993 6.71938 71.362C5.87534 72.2505 5.12013 73.25 4.51304 74.3236C3.88 75.4305 3.36177 76.5855 2.94715 77.7961C2.8546 78.07 2.74724 78.4106 2.61767 78.8104C2.01425 80.7613 1.62182 82.7271 1.43304 84.7114C1.42193 84.7595 1.44785 84.778 1.49597 84.7743C1.5478 84.7632 1.58112 84.7632 1.60703 84.7632C6.69354 84.741 11.3655 84.7262 15.615 84.7151C15.6483 84.7151 15.6669 84.6965 15.6632 84.6595C15.6298 83.3675 15.5891 81.4981 15.5336 79.0584C15.4669 75.7822 15.4225 73.4425 15.3966 72.0395C15.3929 71.9211 15.4077 71.8063 15.4447 71.699C15.5484 71.3695 15.8853 71.2214 16.211 71.3325C16.4739 71.4213 16.6109 71.6953 16.6145 71.9544C16.6997 75.3676 16.7441 77.3963 16.7589 78.0368C16.7626 78.4329 16.807 80.6318 16.8922 84.6448C16.8922 84.6855 16.9107 84.7114 16.9551 84.7114L63.3262 84.5411C63.3706 84.5411 63.3891 84.5226 63.3891 84.4782C63.2299 78.5366 63.1337 74.823 63.0819 73.3465C63.0745 73.0873 63.063 72.7613 63.2444 72.5577Z" fill="#ECEFBB"/>
<path d="M46.318 30.4484C46.0366 30.4558 45.7664 30.3855 45.5036 30.2522C45.2444 30.1189 45.0149 29.9264 44.815 29.6784C44.6151 29.4341 44.4596 29.1453 44.3485 28.8195C44.2412 28.4938 44.1857 28.1606 44.1857 27.8089C44.1857 27.4535 44.2375 27.1166 44.3448 26.7909C44.4522 26.4651 44.6003 26.1801 44.8039 25.9283C45.0001 25.6803 45.2296 25.4878 45.4888 25.3508C45.7479 25.2176 46.0181 25.1472 46.2995 25.1472C46.5808 25.1472 46.8511 25.2139 47.1139 25.3471C47.3768 25.4804 47.6026 25.6729 47.8062 25.9172C48.0024 26.1653 48.1616 26.4503 48.2689 26.7761C48.3763 27.1019 48.4318 27.4387 48.4318 27.7941C48.4318 28.1458 48.3837 28.479 48.2726 28.8047C48.1653 29.1305 48.0172 29.4193 47.8136 29.671C47.6174 29.9153 47.3916 30.1078 47.1287 30.2485C46.8733 30.3818 46.5993 30.4484 46.318 30.4484Z" fill="#ECEFBB"/>
<path d="M33.0321 30.8143C32.7545 30.818 32.4843 30.7513 32.2214 30.6181C31.966 30.4848 31.7328 30.2923 31.5365 30.0405C31.3329 29.7888 31.1812 29.5001 31.0664 29.1706C30.959 28.8411 30.9035 28.5005 30.8998 28.1378C30.8961 27.7824 30.9479 27.4381 31.0516 27.1087C31.1553 26.7755 31.3033 26.4867 31.5032 26.235C31.6994 25.9759 31.9216 25.7797 32.1844 25.6427C32.4398 25.502 32.7064 25.4354 32.9877 25.428C33.2691 25.428 33.5356 25.4946 33.7985 25.6279C34.0576 25.7649 34.2871 25.9574 34.487 26.2054C34.6869 26.4571 34.8424 26.7459 34.9535 27.0791C35.0608 27.4048 35.1201 27.7491 35.1201 28.1045C35.1238 28.4599 35.0756 28.8041 34.972 29.1373C34.8683 29.4668 34.7165 29.7592 34.524 30.0146C34.3241 30.2664 34.0983 30.4626 33.8429 30.6033C33.5837 30.7402 33.3135 30.8143 33.0321 30.8143Z" fill="#ECEFBB"/>
<path d="M39.1666 33.6725C39.2073 33.8243 39.7367 34.0427 39.8034 34.0686C40.0699 34.1575 40.2476 34.2167 40.3438 34.25C40.7326 34.3944 40.9954 34.8608 40.6696 35.2162C40.4993 35.4013 40.2846 35.4642 40.0218 35.405C39.559 35.3013 39.1222 35.1236 38.7187 34.8682C38.3929 34.6646 38.1227 34.3944 38.019 34.0427C37.8894 33.5984 38.0079 33.095 38.1708 32.6174C38.2782 32.2991 38.4522 31.8474 38.6928 31.2477C38.8483 30.8738 38.9963 30.5517 39.137 30.2926C39.2555 30.0779 39.4109 29.9557 39.6035 29.915C39.9329 29.8521 40.2439 30.1186 40.2402 30.4555C40.2328 30.5332 40.1995 30.648 40.1291 30.7998C39.7515 31.629 39.4332 32.4583 39.1888 33.2912C39.1444 33.4356 39.137 33.5652 39.1666 33.6725Z" fill="#ECEFBB"/>
<path d="M43.5346 39.6695C43.616 39.6103 43.7715 39.4659 44.0047 39.2438C44.3157 38.9476 44.8821 39.0328 45.0117 39.4733C45.1264 39.8879 44.8451 40.173 44.5341 40.4506C44.1269 40.8097 43.6974 41.0873 43.2384 41.2835C42.7349 41.4945 42.2018 41.65 41.6318 41.7426C40.3213 41.9499 39.0551 41.8351 37.8188 41.3983C37.5374 41.2983 37.1783 41.1465 36.7452 40.9466C36.649 40.9096 36.5231 40.8282 36.3491 40.7245C36.1011 40.569 35.9197 40.3617 35.9752 40.073C36.0085 39.8879 36.1122 39.7583 36.2751 39.6806C36.4491 39.5991 36.6342 39.6139 36.8378 39.725C37.3523 39.9989 37.9039 40.2285 38.4925 40.3987C39.8252 40.7949 41.2468 40.7097 42.5536 40.2285C42.9238 40.0878 43.2495 39.9064 43.5346 39.6695Z" fill="#ECEFBB"/>
</svg>
