<svg width="72" height="86" viewBox="0 0 72 86" fill="none" xmlns="http://www.w3.org/2000/svg">
<path d="M16.074 29.8228C15.8279 29.3424 15.699 28.8463 15.5896 28.3228C15.5779 28.2642 15.5466 28.2486 15.4959 28.2682C15.3396 28.3385 15.1912 28.3932 15.0466 28.4517C14.7185 28.5767 14.1131 28.8736 13.8083 28.5728C13.7458 28.5025 13.6873 28.3775 13.6404 28.2017C13.5974 28.0455 13.5662 27.8541 13.5349 27.6275C13.5115 27.4166 13.4997 27.2213 13.5037 27.0572V26.5885C13.4997 26.3932 13.5037 26.2369 13.5193 26.108C13.6365 25.1861 13.8122 24.3892 14.0622 23.7174C14.3708 22.8776 14.8083 22.0924 15.363 21.358C15.3709 21.3541 15.3709 21.3463 15.3709 21.3385C15.363 21.3306 15.3591 21.3267 15.3474 21.3267C15.3162 21.3228 15.2927 21.3267 15.2693 21.3306C14.6052 21.5142 13.8904 21.7447 13.1209 22.0025C12.9529 22.065 12.6717 22.1588 12.4529 22.1744C12.2029 22.1978 12.0115 22.0611 11.9256 21.8307C11.8396 21.5728 11.8904 21.3424 11.9412 21.0494C11.9725 20.8424 12.1053 20.151 12.3318 18.9635C12.3904 18.6588 12.5115 18.1588 12.6873 17.4674C12.7967 17.0494 12.8943 16.6901 12.9881 16.3776C13.6404 14.2604 14.5936 12.2643 15.8475 10.3932C16.5506 9.34631 17.285 8.40491 18.0506 7.57681C18.449 7.14322 18.7029 6.86197 18.8123 6.74869C19.074 6.45181 19.3318 6.18228 19.5896 5.93619C20.8552 4.71349 22.2654 3.66669 23.824 2.79949C26.6092 1.25259 29.5935 0.338588 32.7693 0.0572877C33.0428 0.0299437 33.2537 0.0182247 33.4178 0.0182247C33.9256 0.0182247 34.3748 -0.0169313 34.8319 0.0104127C35.0116 0.0182247 35.1834 0.0260377 35.3475 0.0182247C35.4686 0.0143187 35.6405 0.0260377 35.8631 0.0416627C36.5741 0.0924437 37.3319 0.201823 38.1287 0.369783C39.6756 0.690093 41.0896 1.23697 42.3748 2.01428C43.0936 2.45178 43.7771 2.98303 44.406 3.61198C44.4216 3.62761 44.4412 3.63933 44.4802 3.65105C44.4998 3.65495 44.5271 3.65886 44.5584 3.65886C44.8709 3.65495 45.0974 3.65495 45.2498 3.66667C47.2225 3.79948 49.1209 4.23698 50.9334 4.98307C53.5311 6.04557 55.8631 7.90107 57.3318 10.2995C57.7615 10.9948 58.1287 11.6979 58.4412 12.405C59.0037 13.6823 59.4373 14.6862 60.1131 15.7136C60.5506 16.3776 60.9842 16.9245 61.4061 17.3464C61.8436 17.7839 61.4686 18.2175 61.0975 18.487C60.4569 18.9557 59.7069 19.3854 58.9725 19.5768C58.785 19.6276 58.5819 19.6744 58.3631 19.7291C58.3084 19.7369 58.2811 19.776 58.3006 19.8385C58.4842 20.5182 58.7147 21.2213 58.9842 21.9518C59.5037 23.3385 59.9959 24.5416 60.4569 25.5612C60.7225 26.1432 61.0272 26.7487 61.3592 27.3698C61.4256 27.4948 61.4647 27.6237 61.4686 27.7604C61.4725 27.8698 61.4413 27.9635 61.3749 28.0339C61.3006 28.1081 61.2147 28.1667 61.0975 28.1901C60.8866 28.2526 60.6835 28.2917 60.496 28.2917C60.0585 28.2956 59.6132 28.2956 59.1679 28.2956C58.9999 28.2956 58.8749 28.2917 58.8007 28.2799C58.6718 28.2682 58.5507 28.2604 58.4413 28.2526C58.3788 28.2526 58.3436 28.2838 58.328 28.3463C58.1913 29.0417 57.9999 29.7057 57.746 30.3385C57.5116 30.9323 57.2343 31.4244 56.9218 31.8229C56.8554 31.905 56.6757 32.1081 56.3866 32.4323C56.3475 32.4675 56.3319 32.5105 56.3397 32.5612C56.4999 34.0924 56.2929 35.5456 55.7186 36.9089C55.2186 38.0925 54.5272 39.1237 53.6444 40.0105C52.8397 40.8152 51.8006 41.448 50.6835 41.6746C50.3085 41.7489 49.9179 41.7645 49.5038 41.7176C49.3437 41.6981 49.2226 41.6512 49.0742 41.6121C49.0195 41.6043 48.996 41.6199 48.9843 41.6707C48.9726 41.7684 48.9531 41.8699 48.9335 41.9676C48.5663 43.5301 48.1249 45.0028 47.6093 46.3895C47.3242 47.159 46.9726 47.909 46.5507 48.6434C46.2968 49.0809 45.9999 49.4872 45.6562 49.8582C45.5351 49.9832 45.4374 50.1082 45.3554 50.2332C45.2773 50.3543 45.1523 50.4988 44.9804 50.6668C44.9687 50.6824 44.9531 50.7137 44.9414 50.7606C44.9335 50.7918 44.9335 50.8231 44.9335 50.8621C44.9218 52.6121 44.9257 54.1199 44.9374 55.3738C44.9414 56.1511 44.9804 56.9324 45.0468 57.7176C45.0976 58.3856 45.2031 59.034 45.3632 59.6668C45.4648 60.0613 45.582 60.4168 45.7226 60.7332C46.0586 61.4715 46.5039 62.1199 47.0664 62.659C47.6367 63.202 48.3086 63.6121 49.0195 63.9402C50.0781 64.4324 51.1679 64.784 52.2812 65.1043C53.5937 65.4832 54.6367 65.784 55.3945 66.0184C56.125 66.2371 56.9687 66.5184 57.9375 66.8621C59.1992 67.3113 60.4063 67.8426 61.5586 68.4559C63.082 69.2684 64.4844 70.3231 65.75 71.6082C66.9414 72.823 67.9102 74.1902 68.6562 75.7293C69.0742 76.5926 69.4257 77.4793 69.7304 78.3934C70.3789 80.3934 70.8085 82.4325 71.0116 84.5106C71.0272 84.6981 71.0194 84.8466 70.9843 84.952C70.8163 85.4638 70.0819 85.4091 69.6562 85.4091C61.1289 85.4364 55.5662 85.452 52.9802 85.4638C44.074 85.5028 35.1562 85.5341 26.2142 85.5731C26.2064 85.5731 18.0736 85.5966 1.80017 85.6513C1.71424 85.6513 1.60876 85.6239 1.48767 85.5731C1.41736 85.5341 1.33923 85.4677 1.26501 85.3583C1.06579 85.0731 0.956423 84.952 0.983763 84.6356C1.10876 83.12 1.3861 81.5497 1.81579 79.9247C2.3861 77.8114 3.13609 75.8622 4.26889 74.0731C4.6517 73.4677 5.10483 72.8739 5.62439 72.2801C6.89389 70.8426 8.33139 69.6668 9.93689 68.7371C10.9408 68.159 12.0307 67.6433 13.1986 67.1902C15.4486 66.3152 17.5033 65.7488 20.1361 64.9832C21.0189 64.7215 21.8783 64.4168 22.7299 64.0574C23.5033 63.7293 24.2651 63.2801 24.8744 62.7136C25.7377 61.9011 26.3236 60.8738 26.6205 59.7214C26.7924 59.0769 26.9017 58.3933 26.9564 57.6745C27.0189 56.905 27.0502 56.1433 27.0619 55.405C27.0736 54.2058 27.0775 53.155 27.0658 52.2527C27.0658 52.1551 27.0189 52.0965 26.9369 52.0457C26.4838 51.7528 26.1049 51.4637 25.7924 51.1746C24.433 49.9207 23.7533 48.1668 23.2143 46.4363C22.7065 44.8386 22.2846 43.2136 21.937 41.5496C21.9253 41.4949 21.9018 41.4832 21.8589 41.5184C21.73 41.6278 21.5776 41.7215 21.4058 41.7996C20.0894 42.3895 18.48 41.9637 17.4097 41.0574C16.0659 39.9051 15.3706 38.2644 14.8433 36.6199C14.4097 35.2761 14.1558 33.8387 14.355 32.4519C14.4253 31.9324 14.5503 31.4949 14.73 31.1511C14.9878 30.6433 15.5112 30.0456 16.0581 29.8581C16.0776 29.8542 16.0818 29.8385 16.074 29.8228ZM34.426 18.5338C34.4846 18.4401 34.4729 18.4362 34.3908 18.5104C33.719 19.1276 32.9689 19.6901 32.1564 20.1862C31.0587 20.8542 29.9689 21.4089 28.8791 21.862C27.6877 22.362 26.3791 22.8893 24.9689 23.4479C24.6213 23.5885 24.2502 23.7643 23.8595 23.9792C23.4806 24.1862 23.1095 24.4557 22.7618 24.776C22.2775 25.2174 21.9337 25.737 21.7384 26.3385C21.4962 27.0768 21.3908 27.8463 21.422 28.6432C21.4377 28.9635 21.4962 29.4675 21.6056 30.1666C21.6212 30.2604 21.6525 30.5416 21.6994 31.0104C21.715 31.1432 21.7697 31.2369 21.7931 31.3619C21.797 31.3854 21.797 31.401 21.7931 31.4166C21.7619 31.5026 21.7501 31.5963 21.7619 31.6979C21.7814 31.8619 21.7853 31.9479 21.7853 31.9518C21.797 32.3073 21.8087 32.5729 21.8244 32.7604C22.1447 36.2956 22.7462 39.7995 23.6096 43.2804C23.801 44.0499 24.0314 44.8702 24.2932 45.7296C24.5041 46.4327 24.7346 47.0968 24.9885 47.7296C25.2072 48.2921 25.4885 48.8234 25.8283 49.3234C26.1838 49.8546 26.6291 50.3117 27.1681 50.7023C27.5939 51.0109 27.9884 51.2531 28.3478 51.4406C29.2228 51.8898 30.1876 52.3078 31.2345 52.6828C31.6525 52.8312 32.0118 52.9523 32.3009 53.046C33.0197 53.2648 33.7462 53.4328 34.465 53.5421C35.2931 53.6671 36.1369 53.6242 37.0041 53.4054C37.8166 53.2023 38.3908 53.046 38.7229 52.9406C40.387 52.4093 41.8909 51.5773 43.2502 50.4484C43.9572 49.8585 44.6408 49.2218 45.176 48.4875C45.3596 48.2453 45.551 47.9211 45.7541 47.5187C46.0783 46.8937 46.3557 46.2531 46.5901 45.5929C47.4065 43.2531 47.9846 40.8937 48.3128 38.5109C48.5823 36.5421 48.8128 34.5109 49.0042 32.4171C49.0745 31.6593 49.1136 30.9991 49.1292 30.4405C49.137 30.3897 49.1253 30.3429 49.0979 30.2999C49.0198 30.1515 48.9339 30.0108 48.8479 29.8858C48.7971 29.8077 48.6878 29.6905 48.5159 29.5304C47.9846 29.0265 47.5003 28.4718 47.0628 27.8781C46.5784 27.2179 46.098 26.4562 45.6253 25.5929C45.5901 25.5187 45.5433 25.4835 45.4886 25.4796C43.4691 25.1554 41.4105 25.3077 39.3128 25.9249C39.1448 25.9718 38.9886 25.9522 38.8323 25.8546C38.6136 25.7179 38.5511 25.4093 38.6604 25.1983C38.7346 25.0577 38.8479 24.9562 39.012 24.8937C39.2971 24.7921 39.6057 24.6983 39.9339 24.6202C41.1761 24.3272 42.4691 24.1905 43.8167 24.2179C44.2229 24.2296 44.6057 24.253 44.9651 24.3077C44.9807 24.3077 44.9885 24.2999 45.0002 24.2921C45.0041 24.2804 45.0119 24.2647 45.0041 24.2491C44.6252 23.3272 44.3752 22.3897 44.2463 21.4366C44.1838 20.9991 44.1448 20.7179 44.1369 20.6085C44.1096 20.3858 44.0979 20.1671 44.094 19.9562C44.094 19.2687 44.094 18.7335 44.0979 18.3429C44.1057 18.296 44.0901 18.2921 44.0588 18.3272C43.8283 18.6202 43.5979 18.9015 43.3635 19.1397C42.1408 20.4014 40.7229 21.3585 39.1096 22.0108C38.1448 22.3936 37.1252 22.6436 36.0432 22.753C35.8557 22.7765 35.6291 22.7843 35.3635 22.7843H34.6877C34.2659 22.7843 33.9338 22.7647 33.6838 22.7296C33.1096 22.6436 32.5588 22.4952 32.0354 22.2765C31.8636 22.2022 31.6097 22.0616 31.2698 21.8546C31.1839 21.7999 31.1214 21.7491 31.094 21.6905C30.969 21.4796 31.137 21.3468 31.3167 21.2335C31.8753 20.8937 32.5159 20.4718 32.9573 20.128C33.551 19.6671 34.0431 19.1355 34.426 18.5338ZM50.156 33.8778C50.7849 33.206 51.6677 32.5926 52.5818 32.4208C52.7302 32.3896 52.9255 32.3779 53.1755 32.3896C53.4216 32.4013 53.6208 32.4833 53.7654 32.6396C54.0935 32.9951 53.8748 33.4873 53.4255 33.5615C53.3162 33.581 53.2537 33.5888 53.2458 33.5888C52.9529 33.5654 52.6755 33.5966 52.4099 33.6865C52.3552 33.706 52.3396 33.7451 52.363 33.7958C52.6677 34.4951 52.781 35.2138 52.7146 35.9638C52.6677 36.4678 52.4998 36.9014 52.199 37.292C52.0505 37.4834 51.8709 37.581 51.656 37.5888C51.4216 37.5888 51.2537 37.4951 51.1599 37.2998C50.9841 36.9521 51.1755 36.6826 51.3709 36.4013C51.4685 36.2646 51.5349 36.0185 51.5584 35.8388C51.6091 35.3545 51.5505 34.874 51.3904 34.4052C51.3709 34.3466 51.3396 34.3427 51.2966 34.3779C51.0779 34.5615 50.8787 34.7607 50.7029 34.9677C50.4724 35.2451 50.3084 35.6513 49.9646 35.7998C49.9099 35.8232 49.8865 35.8623 49.8787 35.9169C49.7224 37.3857 49.531 38.831 49.2927 40.2528C49.281 40.3232 49.3005 40.37 49.363 40.3935C49.5154 40.4638 49.6912 40.4989 49.8904 40.4989C50.7771 40.5146 51.6599 40.0732 52.3396 39.5107C53.3279 38.6982 54.0779 37.6045 54.574 36.4248C55.0271 35.3584 55.2146 34.249 55.1404 33.0967C55.0896 32.3232 54.8748 31.5811 54.5037 30.9248C54.156 30.3154 53.574 29.831 52.8396 29.8936C51.7771 29.9873 50.9998 30.9639 50.5584 31.8702C50.5115 31.9561 50.4568 32.0498 50.3904 32.1514C50.2967 32.2842 50.2459 32.3858 50.2381 32.4366C50.1873 33.0616 50.1404 33.5421 50.0974 33.8858C50.0974 33.8897 50.1053 33.9014 50.1131 33.9053C50.1209 33.9092 50.1287 33.9092 50.1404 33.9053C50.1404 33.9014 50.1443 33.8936 50.1443 33.8897C50.1521 33.8858 50.1521 33.8778 50.156 33.8778ZM20.765 34.6591C20.7923 34.6747 20.808 34.6708 20.8236 34.6435C20.8314 34.6239 20.8392 34.6044 20.8314 34.5771C20.7962 34.2802 20.765 33.9794 20.7533 33.6747C20.7455 33.4482 20.722 33.2841 20.6986 33.0107C20.683 32.8466 20.6439 32.7372 20.5619 32.6122C20.2455 32.1552 19.8626 31.7646 19.4174 31.4364C18.8314 31.0145 18.1557 30.7294 17.433 30.7333C16.5423 30.7372 15.8705 31.327 15.6596 32.1903C15.5346 32.7215 15.4955 33.2645 15.5346 33.8231C15.5736 34.2918 15.6361 34.7176 15.7221 35.1043C15.9525 36.1277 16.2963 37.1277 16.7377 38.0926C16.972 38.5965 17.2767 39.0809 17.6439 39.534C18.3744 40.4363 19.5267 41.0574 20.7025 40.7449C20.8314 40.7136 21.058 40.5965 21.14 40.5144C21.2689 40.3855 21.4056 40.2488 21.5463 40.1043C21.5931 40.0574 21.6088 40.0027 21.597 39.948C21.3549 38.7371 21.1674 37.5496 21.0306 36.3699C21.0267 36.3152 20.9994 36.2801 20.9525 36.2527C20.8549 36.2059 20.7533 36.1512 20.6713 36.073C20.5775 35.9832 20.4095 35.7957 20.2689 35.6902C19.9877 35.4949 19.683 35.323 19.3431 35.1746C19.3158 35.159 19.2924 35.159 19.2689 35.159C19.2533 35.1668 19.2455 35.1746 19.2377 35.1902C19.1752 35.8074 19.3158 36.3543 19.6596 36.8269C19.7963 37.0144 19.89 37.1433 19.933 37.3308C19.9838 37.5574 19.8783 37.8152 19.6869 37.9363C19.5463 38.0183 19.39 38.034 19.2064 37.9871C19.0463 37.948 18.933 37.8152 18.8275 37.6824C18.3783 37.0926 18.0931 36.409 18.0931 35.6668C18.0931 35.3856 18.097 35.159 18.1088 34.9871C18.1127 34.9324 18.0892 34.9051 18.0306 34.9012C17.6713 34.8856 17.265 34.9051 17.0931 34.5613C17.0111 34.3895 17.0111 34.2137 17.0931 34.0418C17.1908 33.8231 17.3861 33.7137 17.6596 33.7059C18.0111 33.702 18.4721 33.7606 19.0502 33.8738C19.3705 33.9402 19.6712 34.0418 19.9525 34.1746C20.2611 34.327 20.5306 34.4872 20.765 34.6591ZM28.1244 52.7761C28.1674 54.2292 28.1713 55.405 28.14 56.2956C28.1205 56.8698 28.0892 57.4167 28.0424 57.9245C27.9525 58.8737 27.7845 59.8386 27.4681 60.7057C26.8119 62.4948 25.6204 63.8307 23.8861 64.7213C23.8549 64.7447 23.8471 64.7643 23.8744 64.7916C25.5189 66.5768 27.4369 67.9713 29.6244 68.9791C33.0658 70.5611 37.0033 70.9479 40.6124 69.8307C43.0186 69.0924 45.0968 67.8112 46.8468 65.983C47.1828 65.6353 47.5499 65.2056 47.9562 64.6978C47.9797 64.6704 47.9718 64.6431 47.9406 64.6275C46.6437 63.94 45.6515 62.9516 44.9562 61.6586C44.6203 61.0415 44.3742 60.3578 44.2179 59.6234C44.0578 58.8461 43.9523 58.0727 43.9054 57.2954C43.8429 56.1235 43.8234 55.0492 43.8468 54.0765C43.8742 53.1234 43.8859 52.2836 43.8898 51.557C43.8898 51.5414 43.8859 51.5297 43.8703 51.518C43.8546 51.5141 43.839 51.5141 43.8273 51.5297C43.7492 51.5922 43.714 51.6664 43.6203 51.7328C42.5031 52.6039 41.3078 53.2914 40.0148 53.7992C39.2491 54.1078 38.4328 54.3227 37.6203 54.5297C37.1437 54.6508 36.7648 54.7328 36.4836 54.7758C35.2141 54.9672 33.8859 54.7641 32.5969 54.4203C31.4055 54.1039 30.011 53.5805 28.4055 52.8617C28.3898 52.8578 28.3547 52.8383 28.3 52.7992C28.2492 52.7641 28.2023 52.7445 28.175 52.7367C28.1398 52.7289 28.1244 52.7448 28.1244 52.7761ZM51.0814 65.9641C51.0892 65.9524 51.0931 65.9407 51.097 65.9368C51.1126 65.9172 51.1087 65.9016 51.0775 65.8899C50.3861 65.675 49.7064 65.4328 49.0423 65.1594C48.9993 65.1399 48.9563 65.1516 48.9329 65.1907C48.8587 65.3078 48.7845 65.4055 48.7181 65.4992C47.515 67.0461 46.0892 68.3156 44.4369 69.3234C41.0658 71.3703 37.0267 72.0266 33.1559 71.2648C29.1598 70.4875 25.5661 68.3273 22.8439 65.296C22.8009 65.2531 22.754 65.2374 22.6993 65.2648C22.0939 65.5031 21.4688 65.7218 20.8243 65.921C20.7657 65.9406 20.7618 65.9718 20.8009 66.0148C21.3556 66.5734 21.8907 67.0812 22.4103 67.546C24.8322 69.6866 27.6564 71.3741 30.7306 72.3585C34.4181 73.5343 38.3751 73.5655 42.0466 72.3233C44.0505 71.6397 45.9099 70.6358 47.6247 69.2999C48.8395 68.3546 49.9955 67.2375 51.0814 65.9641ZM6.39039 73.0774C5.13649 74.5032 4.22239 76.218 3.57399 78.011C2.81227 80.1048 2.32399 82.2649 2.09349 84.4954C2.09349 84.5305 2.10912 84.5462 2.14427 84.5462L69.8283 84.3079C69.8634 84.3079 69.8791 84.2923 69.8751 84.2532C69.6681 82.2688 69.215 80.3079 68.5626 78.3899C68.3126 77.6594 68.0041 76.9172 67.6408 76.1672C66.9103 74.6711 65.9728 73.3625 64.8283 72.2453C64.0587 71.4953 63.2306 70.7844 62.3478 70.2141C60.2228 68.8274 57.922 67.9563 55.3751 67.1672C54.5977 66.925 53.5743 66.6242 52.3009 66.261C52.2618 66.2492 52.2306 66.261 52.2071 66.2922C52.1446 66.3781 52.0899 66.4563 52.0313 66.5266C50.5782 68.2922 48.9024 69.843 46.9961 71.1086C45.25 72.2648 43.3789 73.1203 41.3867 73.675C39.207 74.2844 36.9101 74.4797 34.5 74.2609C34.1524 74.2297 33.7774 74.1828 33.3789 74.1203C31.3086 73.7805 29.3242 73.1516 27.4258 72.2219C25.5156 71.2922 23.7305 70.1203 22.0664 68.7024C21.1875 67.9524 20.3867 67.1868 19.6602 66.4094C19.5821 66.3235 19.543 66.3078 19.4337 66.3391C17.3009 66.9407 15.3321 67.5305 13.379 68.3C12.3438 68.7141 11.3556 69.1906 10.3946 69.7492C8.93758 70.5929 7.59739 71.7024 6.39039 73.0774Z" fill="#191919"/>
<path d="M26.043 25.4678C25.6211 25.5264 25.1758 25.6397 24.7032 25.8077C24.5274 25.8702 24.3438 25.8467 24.168 25.7452C24.0665 25.6866 24.0001 25.5811 23.9532 25.4366C23.8751 25.1553 24.0665 24.8897 24.3165 24.7842C24.5313 24.6905 24.7696 24.6124 25.043 24.5499C26.6758 24.1592 28.4219 24.1358 30.1055 24.3467C30.918 24.4522 31.6758 24.6202 32.3789 24.8467C32.4532 24.8741 32.5313 24.9053 32.6211 24.9561C33.0157 25.171 32.9844 25.7374 32.5743 25.9053C32.4493 25.9639 32.3086 25.9639 32.1602 25.921C30.1524 25.3155 28.1133 25.167 26.043 25.4678Z" fill="#191919"/>
<path d="M29.004 32.7448C28.754 32.7644 28.5118 32.7214 28.2696 32.6237C28.0313 32.5183 27.8126 32.362 27.6134 32.1511C27.4181 31.9362 27.2618 31.6862 27.1407 31.4011C27.0196 31.112 26.9415 30.8073 26.9181 30.487C26.8907 30.1667 26.9102 29.8542 26.9806 29.5456C27.0509 29.2448 27.1681 28.9714 27.3243 28.7292C27.4806 28.487 27.6681 28.2956 27.8868 28.1511C28.1056 28.0105 28.3438 27.9245 28.5899 27.905C28.8399 27.8855 29.0821 27.9245 29.3282 28.03C29.5665 28.1276 29.7852 28.2917 29.9805 28.4987C30.1759 28.7136 30.3321 28.9636 30.4571 29.2487C30.5782 29.5417 30.6524 29.8425 30.6759 30.1667C30.7071 30.4831 30.6876 30.7956 30.6134 31.1042C30.547 31.405 30.4337 31.6823 30.2774 31.9206C30.1212 32.1667 29.9259 32.3581 29.7071 32.4987C29.4884 32.6394 29.254 32.7214 29.004 32.7448Z" fill="#191919"/>
<path d="M42.496 32.7448C42.246 32.7214 42.0116 32.6394 41.7929 32.4948C41.5741 32.3542 41.3866 32.1589 41.2304 31.9167C41.0741 31.6745 40.9569 31.4011 40.8905 31.0964C40.8241 30.7917 40.8007 30.4792 40.828 30.1589C40.8593 29.8386 40.9335 29.5339 41.0585 29.2449C41.1757 28.9558 41.3398 28.7058 41.5312 28.4988C41.7304 28.2839 41.9491 28.1277 42.1913 28.0261C42.4335 27.9245 42.6757 27.8855 42.9257 27.905C43.1757 27.9324 43.4101 28.0144 43.6288 28.155C43.8476 28.2995 44.0351 28.4948 44.1913 28.7331C44.3476 28.9792 44.4648 29.2488 44.5312 29.5574C44.5976 29.8581 44.621 30.1706 44.5898 30.4949C44.5624 30.8152 44.4882 31.1199 44.3632 31.405C44.246 31.6902 44.0819 31.9402 43.8866 32.155C43.6913 32.362 43.4726 32.5183 43.2304 32.6238C42.9882 32.7292 42.746 32.7644 42.496 32.7448Z" fill="#191919"/>
<path d="M33.566 37.9088C33.5465 37.9713 33.5621 38.026 33.6129 38.0611C33.7496 38.1666 33.9097 38.2643 34.0972 38.3541C34.2926 38.4479 34.5894 38.5729 34.984 38.7291C35.3316 38.8697 35.6285 39.2291 35.3902 39.5924C35.2613 39.7916 34.9801 39.8697 34.7652 39.7994C34.2301 39.6353 33.7066 39.4088 33.2144 39.1197C33.0269 39.0103 32.855 38.8853 32.7066 38.733C32.2066 38.2291 32.5113 37.4869 32.7535 36.9478C33.4957 35.3111 34.2223 33.733 34.9488 32.2134C35.0347 32.0259 35.1089 31.9048 35.1675 31.8579C35.3746 31.6861 35.7457 31.7212 35.8785 31.9712C35.941 32.0806 35.9644 32.2017 35.9488 32.3267C35.941 32.3853 35.8941 32.5142 35.8082 32.7134C34.8707 34.8462 34.2457 36.2759 33.9332 36.9868C33.73 37.4556 33.609 37.7643 33.566 37.9088Z" fill="#191919"/>
<path d="M39.637 43.4638C39.8245 43.3153 39.9886 43.1864 40.1839 43.1747C40.5276 43.1552 40.7815 43.3896 40.7542 43.7333C40.7308 44.0575 40.4339 44.2646 40.1722 44.4325C39.9065 44.6044 39.6526 44.7489 39.3948 44.87C37.8323 45.6278 36.0745 45.9872 34.3401 45.9716C33.8284 45.9677 33.2776 45.9365 32.676 45.8857C32.1877 45.8388 31.6877 45.749 31.1721 45.6123C30.9963 45.5654 30.7542 45.4873 30.6526 45.3466C30.3557 44.9521 30.7229 44.4716 31.1878 44.5888C31.7034 44.7177 32.1916 44.8076 32.6604 44.8466C33.012 44.8857 33.5472 44.9052 34.2659 44.9091C35.012 44.9169 35.8479 44.8154 36.7776 44.6123C37.5316 44.4521 38.2542 44.1982 38.9534 43.8623C39.2464 43.7177 39.4729 43.5888 39.637 43.4638Z" fill="#191919"/>
</svg>
