<svg width="21" height="21" viewBox="0 0 21 21" fill="none" xmlns="http://www.w3.org/2000/svg">
<g id="Group 1000002935">
<g id="Group 1000002933">
<g id="Group 1000002932">
<circle id="Ellipse 93" cx="10.5" cy="10.5" r="10.5" fill="#F0A456"/>
</g>
<g id="Group 1000002931">
<g id="Group 1000002927">
<path id="Vector" d="M11.2876 2.04084C11.2057 2.08226 11.1446 2.14408 11.0834 2.20589C11.0325 2.27791 10.9919 2.36013 10.9615 2.43204C10.9008 2.59636 10.8606 2.76059 10.8411 2.94521C10.8112 3.11963 10.8018 3.29395 10.8027 3.47847C10.8029 3.51948 10.8031 3.56048 10.8034 3.60148L10.8143 3.7347L10.8361 4.00112L10.9357 5.44605C11.0371 5.24052 11.1488 5.02467 11.2811 4.82923C11.4133 4.61329 11.5558 4.40754 11.7292 4.2324C11.8209 4.13967 11.9025 4.05725 12.0149 3.98493C12.1171 3.9229 12.2398 3.86078 12.3628 3.83965C12.2399 3.88128 12.1481 3.9535 12.0665 4.03592C11.9849 4.11834 11.9136 4.21097 11.8526 4.31379C11.7203 4.50923 11.6291 4.72497 11.5483 4.9509C11.4674 5.17684 11.3865 5.40277 11.3261 5.62861C11.3059 5.69022 11.2961 5.76203 11.2759 5.82364C13.0716 6.17338 13.4506 8.13972 13.2362 10.3551L11.4115 10.3643L11.414 10.8563L13.1772 10.8474C13.1081 11.3706 13.0185 11.9144 12.8981 12.4276L12.2831 12.4307L12.2855 12.9227L12.7776 12.9202C12.2355 15.1987 11.4049 17.1917 11.1911 17.4696C11.0179 17.6857 10.8441 17.7788 10.7108 17.7693C10.5672 17.77 10.3925 17.6786 10.2275 17.4744C10.0933 17.3008 9.73045 16.4928 9.34553 15.3773L9.67356 15.3757L9.67108 14.8836L9.17903 14.8861C8.90837 14.0674 8.63719 13.1461 8.43762 12.1938L9.58573 12.188L9.58325 11.6959L8.33263 11.7022C8.18518 10.9239 8.08894 10.135 8.07502 9.40723L10.1662 9.39669L10.1638 8.90464L8.05225 8.95629C8.10538 7.29531 8.69343 6.00068 10.2302 5.8084C10.2196 5.7572 10.1989 5.7163 10.1987 5.6753C10.1465 5.48078 10.0841 5.29658 10.0011 5.11247C9.9699 5.02037 9.91818 4.92837 9.86646 4.83636C9.81474 4.74436 9.77332 4.66256 9.7114 4.58086C9.59776 4.40716 9.46372 4.25407 9.30929 4.12158C9.50452 4.21286 9.66916 4.33504 9.8237 4.48804C9.89582 4.55943 9.97824 4.64103 10.0402 4.72272C10.1021 4.80442 10.1743 4.89632 10.2362 4.97802C10.3189 5.10062 10.4015 5.22322 10.4636 5.34592L10.5389 4.01287L10.5581 3.74624L10.5676 3.61292C10.5776 3.56162 10.5774 3.52061 10.5874 3.46931C10.607 3.28468 10.6471 3.09996 10.6974 2.92543C10.7478 2.75091 10.8084 2.56608 10.8999 2.41185C10.9405 2.32963 10.9914 2.25761 11.0628 2.1855C11.1239 2.12368 11.1954 2.07206 11.2876 2.04084Z" fill="#362613"/>
</g>
</g>
</g>
</g>
</svg>
