<svg width="21" height="21" viewBox="0 0 21 21" fill="none" xmlns="http://www.w3.org/2000/svg">
<g id="Group 1000002936">
<g id="Group 1000002930">
<circle id="Ellipse 94" cx="10.5" cy="10.5" r="10.5" fill="#FEDE80"/>
<g id="Group 1000002926">
<path id="Vector" d="M14.9479 11.5023C14.9479 11.5023 14.7223 11.8202 14.2412 12.0477C13.9358 12.1922 13.5933 12.2354 13.2568 12.2065C12.6903 12.1577 11.5376 12.1669 11.2408 12.9955C11.1604 13.2201 11.1638 13.4616 11.2327 13.6845C10.955 13.8699 10.6851 14.1009 10.4601 14.3815V11.6698C10.7787 11.1193 11.1081 10.6844 11.3959 10.3564C11.5679 10.5026 11.8206 10.5829 12.1308 10.5853C12.6855 10.5896 13.1696 10.2448 13.4314 9.75581C13.5754 9.48691 13.8869 9.14482 14.537 8.77308C14.537 8.77308 11.9501 7.6554 11.2316 9.03258C11.0962 9.29211 11.0647 9.5946 11.1308 9.87703C10.9254 10.1004 10.6958 10.3784 10.4601 10.7129V7.59422C10.7002 7.54551 10.9294 7.42908 11.1156 7.24284C11.5509 6.80757 11.6185 6.12563 11.2772 5.61337L10.2023 4L9.1274 5.61337C8.78611 6.12563 8.85372 6.80757 9.289 7.24284C9.47522 7.42907 9.70437 7.54549 9.94448 7.59421V10.5152C9.74789 10.2079 9.52033 9.95995 9.29389 9.76361C9.32857 9.51497 9.29043 9.25769 9.173 9.03258C8.45456 7.6554 5.86764 8.77308 5.86764 8.77308C6.51771 9.14482 6.82919 9.48691 6.97318 9.75581C7.23507 10.2448 7.71911 10.5896 8.27381 10.5853C8.63504 10.5825 8.91877 10.4745 9.08661 10.2786C9.46902 10.6529 9.83439 11.2038 9.94448 11.9876V14.5738C9.73913 14.2845 9.50784 14.0451 9.2726 13.8485C9.34486 13.505 9.30303 13.1404 9.13907 12.8261C8.23941 11.1016 5 12.5012 5 12.5012C5.81403 12.9667 6.20407 13.3951 6.38439 13.7318C6.71232 14.3441 7.31846 14.7758 8.01307 14.7705C8.48411 14.7668 8.85125 14.6214 9.0573 14.3563C9.41041 14.6786 9.74111 15.1121 9.94448 15.6921V16.9414C9.94448 17.0838 10.0599 17.1992 10.2023 17.1992C10.3447 17.1992 10.4601 17.0838 10.4601 16.9414V15.5496C10.5829 14.9155 11.0225 14.4564 11.4944 14.1353C11.5033 14.1448 11.5108 14.1554 11.52 14.1645C11.7348 14.3774 12.0713 14.585 12.5817 14.6248C13.1499 14.6692 13.7196 14.4811 14.1581 14.1169C14.6849 13.6793 15.2542 12.8691 14.9479 11.5023Z" fill="#5F5633"/>
</g>
<g id="Mask group">
<mask id="mask0_3400_3492" style="mask-type:alpha" maskUnits="userSpaceOnUse" x="0" y="0" width="21" height="21">
<circle id="Ellipse 96" cx="10.5" cy="10.5" r="10.5" fill="#5F5633"/>
</mask>
<g mask="url(#mask0_3400_3492)">
<line id="Line 160" x1="4.41603" y1="1.72265" x2="16.416" y2="19.7227" stroke="#5F5633"/>
</g>
</g>
</g>
</g>
</svg>
