<svg width="21" height="21" viewBox="0 0 21 21" fill="none" xmlns="http://www.w3.org/2000/svg">
<g id="Group 1000002935">
<g id="Group 1000002933">
<g id="Group 1000002932">
<circle id="Ellipse 93" cx="10.5" cy="10.5" r="10.5" fill="#F0A456"/>
<path id="Vector" fill-rule="evenodd" clip-rule="evenodd" d="M14.5374 9.49124C14.3407 10.1845 13.9226 10.857 13.0848 11.0303C12.6912 11.0957 12.2723 11.0303 11.8788 10.8793C10.9928 13.4598 11.1406 16.7126 11.1406 16.7126C11.1406 17.0808 10.525 17.1032 10.4996 16.7335C10.4996 16.7335 10.4751 15.585 10.6229 14.1099C10.3282 12.5486 9.71169 10.3372 8.65345 8.19032C8.55548 8.03857 8.50566 7.90839 8.43135 7.75666C8.08676 7.92997 7.66789 8.01627 7.27431 7.95154C6.586 7.79979 6.24059 7.25753 6.0683 6.6721C5.74736 5.52283 5.05821 4.78568 4 4.11313C5.45263 3.91825 7.12653 3.89667 8.35782 4.69854C8.92367 5.06675 9.41687 5.58746 9.46586 6.23832C9.48951 6.6943 9.26908 7.10566 8.89917 7.4523C8.99714 7.58321 9.07146 7.75654 9.14493 7.90827C9.93289 9.40418 10.4996 11.2259 10.8442 12.4844C10.9675 11.8551 11.1406 11.205 11.361 10.5973C11.1896 10.4671 11.0418 10.3377 10.9185 10.1852C9.93373 9.03589 10.6474 7.86423 11.8053 7.10633C13.2587 6.17354 15.2773 6.1527 17 6.39074C15.7678 7.19261 14.9309 8.14625 14.5372 9.49109L14.5374 9.49124Z" fill="#362613"/>
</g>
</g>
</g>
</svg>
