<svg width="242" height="215" viewBox="0 0 242 215" fill="none" xmlns="http://www.w3.org/2000/svg">
<g id="Group 1000002691">
<g id="Group">
<g id="Group_2">
<g id="Group_3">
<path id="Vector" d="M213.169 208.513L214.412 208.027L215.061 207.756L216.899 207C216.899 207 223.765 171.427 209.547 165.697C205.168 163.913 200.194 168.454 206.303 181.591C211.925 193.701 213.169 208.513 213.169 208.513Z" fill="#CADEEA" fill-opacity="0.2"/>
<g id="Group_4">
<path id="Vector_2" d="M214.413 207.974L215.061 207.703C215.548 199.486 214.358 191.323 213.223 185.646C211.872 178.943 210.25 174.294 210.25 174.24C210.196 174.077 210.034 173.969 209.871 174.023C209.709 174.077 209.601 174.24 209.655 174.402C209.655 174.456 211.277 179.051 212.629 185.755C213.71 191.485 214.953 199.756 214.413 207.974Z" fill="#B2CAD6"/>
</g>
</g>
<g id="Group_5">
<path id="Vector_3" d="M219.117 210.73C227.875 200.513 249.229 173.104 238.849 158.561C234.903 152.993 225.28 154.615 222.469 175.374C220.468 190.133 214.089 204.729 211.278 210.73H219.117Z" fill="#E0EBF5" fill-opacity="0.2"/>
<g id="Group_6">
<g id="Group_7">
<path id="Vector_4" d="M215.116 210.73C220.901 202.026 225.063 192.674 227.712 185.808C231.281 176.564 232.956 169.644 232.956 169.59C233.01 169.319 232.848 169.103 232.632 169.049C232.362 168.995 232.145 169.157 232.091 169.373C232.091 169.427 230.416 176.293 226.847 185.484C224.144 192.457 219.874 201.918 213.981 210.73H215.116Z" fill="#CADEEA" fill-opacity="0.2"/>
</g>
</g>
</g>
</g>
<g id="Group_8">
<g id="Group_9">
<path id="Vector_5" d="M28.497 208.191L27.2536 207.704L26.6049 207.434L24.7668 206.677C24.7668 206.677 17.9011 171.105 32.1191 165.374C36.4981 163.59 41.4717 168.131 35.3628 181.268C29.7404 193.378 28.497 208.191 28.497 208.191Z" fill="#CADEEA" fill-opacity="0.2"/>
<g id="Group_10">
<path id="Vector_6" d="M27.2541 207.705L26.6053 207.434C26.1188 199.217 27.3081 191.054 28.4434 185.377C29.7949 178.674 31.4168 174.025 31.4168 173.971C31.4708 173.808 31.633 173.7 31.7952 173.754C31.9574 173.808 32.0655 173.971 32.0114 174.133C32.0114 174.187 30.3896 178.782 29.0381 185.486C27.9028 191.162 26.7135 199.433 27.2541 207.705Z" fill="#B2CAD6"/>
</g>
</g>
<g id="Group_11">
<path id="Vector_7" d="M22.5498 210.406C13.7378 200.243 -7.5622 172.834 2.76346 158.238C6.70991 152.669 16.3328 154.291 19.144 175.051C21.1442 189.809 27.5234 204.406 30.3346 210.406H22.5498Z" fill="#E0EBF5" fill-opacity="0.2"/>
<g id="Group_12">
<g id="Group_13">
<path id="Vector_8" d="M26.5496 210.407C20.7651 201.704 16.6024 192.351 13.9534 185.485C10.3853 176.241 8.70945 169.321 8.70945 169.267C8.65539 168.997 8.81757 168.78 9.03382 168.726C9.30412 168.672 9.52037 168.834 9.57443 169.051C9.57443 169.105 11.2503 175.97 14.8183 185.161C17.5214 192.135 21.7922 201.595 27.6849 210.407H26.5496Z" fill="#CADEEA" fill-opacity="0.2"/>
</g>
</g>
</g>
</g>
</g>
<g id="Group_14">
<path id="Vector_9" d="M97.6405 59.1969C89.153 28.3821 50.8777 18.4889 28.983 41.5189C28.6587 41.8433 28.3343 42.1676 28.064 42.5461C-3.34548 76.7126 11.4672 160.886 77.0433 182.24C142.619 203.594 210.844 164.616 214.683 129.801C218.521 94.9853 188.247 84.0109 141.322 93.7419C114.778 99.202 102.939 78.3885 97.6405 59.1969Z" fill="#E0EBF5" fill-opacity="0.2"/>
<path id="Vector_10" d="M154.945 66.4954C146.458 69.1444 145.106 77.1454 152.566 81.6865C155.053 83.2002 158.405 84.2274 163.054 84.3896C180.624 84.8761 188.679 75.9561 180.462 67.0901C175.38 61.5758 163.379 63.9005 154.945 66.4954Z" fill="#E0EBF5" fill-opacity="0.2"/>
<path id="Vector_11" d="M165.758 184.996C160.892 189.159 162.298 194.835 168.515 195.7C170.569 195.971 173.11 195.7 176.192 194.511C187.923 189.808 190.734 181.645 182.733 178.131C177.867 175.914 170.623 180.888 165.758 184.996Z" fill="#E0EBF5" fill-opacity="0.2"/>
<path id="Vector_12" d="M100.831 34.4377C97.2628 31.0318 92.992 32.5455 92.7757 37.411C92.7217 39.0328 93.1001 40.979 94.3435 43.2496C98.8846 51.9534 105.426 53.4671 107.48 46.9798C108.778 43.0334 104.399 37.8435 100.831 34.4377Z" fill="#E0EBF5" fill-opacity="0.2"/>
<path id="Vector_13" d="M54.0677 178.563C48.9319 177.211 45.7423 180.887 48.121 185.536C48.9319 187.05 50.2835 188.672 52.6081 190.186C61.42 195.916 68.2858 193.97 66.8802 186.834C66.0152 182.401 59.2035 179.86 54.0677 178.563Z" fill="#E0EBF5" fill-opacity="0.2"/>
<g id="Group_15">
<path id="Vector_14" d="M204.519 46.9799C204.519 47.5205 204.303 48.0071 203.925 48.3314C203.6 48.7099 203.06 48.9261 202.573 48.9261H160.838C159.757 48.9261 158.892 48.0611 158.892 46.9799C158.892 46.4393 159.108 45.9527 159.487 45.6284C159.811 45.2499 160.351 45.0337 160.838 45.0337H162.784C163.541 43.2497 165.379 41.9522 167.434 41.9522C168.839 41.9522 170.137 42.5469 171.056 43.4659C172.299 41.3576 174.57 40.006 177.164 40.006C177.867 40.006 178.57 40.1141 179.219 40.3304C180.57 37.7895 183.273 36.0596 186.355 36.0596C190.085 36.0596 193.221 38.5464 194.14 42.0063C194.842 41.6819 195.599 41.4657 196.41 41.4657C198.735 41.4657 200.681 43.0334 201.276 45.1418H202.519C203.6 45.0337 204.519 45.8987 204.519 46.9799Z" fill="#E0EBF5"/>
<path id="Vector_15" d="M77.3676 10.9203C77.3676 11.4609 77.1514 11.9475 76.773 12.2719C76.4486 12.6503 75.908 12.8665 75.4215 12.8665H33.7404C32.6592 12.8665 31.7942 12.0016 31.7942 10.9203C31.7942 10.3797 32.0104 9.89317 32.3889 9.5688C32.7132 9.19038 33.2538 8.97413 33.7404 8.97413H35.6866C36.4434 7.19012 38.2815 5.89265 40.3358 5.89265C41.7414 5.89265 43.0389 6.48733 43.9579 7.40636C45.2013 5.29798 47.4719 3.94646 50.0668 3.94646C50.7696 3.94646 51.4724 4.05458 52.1211 4.27082C53.4727 1.72995 56.1757 0 59.2572 0C62.9874 0 66.123 2.48681 67.042 5.94671C67.7448 5.62235 68.5016 5.4061 69.3125 5.4061C71.6372 5.4061 73.5834 6.97387 74.178 9.08225H75.4215C76.5027 8.97413 77.3676 9.89317 77.3676 10.9203Z" fill="#E0EBF5"/>
<path id="Vector_16" d="M154.404 24.4892C154.404 25.192 154.133 25.8407 153.647 26.3273C153.16 26.8138 152.512 27.0841 151.809 27.0841H96.7746C95.369 27.0841 94.1797 25.9488 94.1797 24.4892C94.1797 23.7864 94.45 23.1377 94.9365 22.6511C95.4231 22.1646 96.0718 21.8943 96.7746 21.8943H99.3696C100.397 19.5156 102.775 17.8397 105.533 17.8397C107.371 17.8397 109.101 18.5965 110.29 19.8399C111.912 17.0828 114.885 15.2448 118.345 15.2448C119.264 15.2448 120.183 15.4069 121.048 15.6232C122.832 12.2714 126.4 9.94678 130.455 9.94678C135.374 9.94678 139.483 13.2445 140.726 17.7856C141.645 17.3531 142.672 17.0828 143.754 17.0828C146.835 17.0828 149.376 19.1372 150.187 21.8943H151.863C153.214 21.8943 154.404 23.0836 154.404 24.4892Z" fill="#E0EBF5"/>
</g>
</g>
<g id="Group_16">
<path id="Vector_17" d="M150.296 210.893C150.296 212.46 140.457 213.758 128.347 213.758C116.238 213.758 106.398 212.46 106.398 210.893C106.398 209.325 116.238 208.027 128.347 208.027C140.457 208.027 150.296 209.325 150.296 210.893Z" fill="#E0EBF5" fill-opacity="0.2"/>
<g id="Group_17">
<g id="Group_18">
<g id="Group_19">
<path id="Vector_18" d="M142.619 108.555L142.186 159.318L138.835 195.81L134.51 195.918H133.807L132.618 195.972C132.618 195.972 131.644 177.05 130.401 169.266C129.374 162.724 130.455 151.317 130.455 151.317L125.914 118.178C125.319 118.232 124.671 118.286 124.13 118.34L120.021 150.128C121.048 152.182 122.022 162.508 121.859 168.671C121.751 172.78 123.211 186.295 123.211 186.295C122.778 186.403 122.346 186.511 121.805 186.619C121.589 186.673 121.373 186.727 121.103 186.781C119.102 187.214 117.048 187.7 117.048 187.7C117.048 187.7 108.831 161.481 107.047 154.291C105.263 147.101 108.831 108.339 108.831 108.339C112.182 104.338 142.619 108.555 142.619 108.555Z" fill="#3D1500"/>
<g id="Group_20">
<path id="Vector_19" d="M118.346 150.075C118.346 150.129 118.346 150.183 118.346 150.292C118.616 151.481 120.455 160.779 120.455 166.834C120.455 170.024 121.536 183.053 121.806 186.567C121.59 186.621 121.374 186.675 121.103 186.729C120.833 183.323 119.752 170.132 119.752 166.834C119.752 160.888 117.914 151.643 117.643 150.454C117.589 150.292 117.589 150.183 117.643 150.021L121.914 117.801C121.914 117.585 122.13 117.477 122.293 117.477C122.509 117.477 122.617 117.693 122.617 117.855L118.346 150.075Z" fill="#E1A549"/>
</g>
<g id="Group_21">
<path id="Vector_20" d="M134.51 195.92H133.807C133.753 194.244 132.888 174.836 131.969 169.213C130.834 162.348 132.077 151.536 132.185 150.725L127.265 117.91C127.211 117.693 127.374 117.531 127.536 117.531C127.698 117.477 127.914 117.639 127.914 117.801L132.834 150.671C132.834 150.725 132.834 150.725 132.834 150.779C132.834 150.887 131.428 162.131 132.618 169.105C133.591 174.782 134.456 194.298 134.51 195.92Z" fill="#E1A549"/>
</g>
</g>
<g id="Group_22">
<path id="Vector_21" d="M118.075 188.189L119.157 194.838C120.778 196.893 121.806 196.244 124.184 193.541L122.833 187.811L118.075 188.189Z" fill="#F9CEB0"/>
<path id="Vector_22" d="M124.185 185.323C124.833 186.836 124.833 187.539 124.671 188.783C124.671 188.783 121.265 190.08 116.724 190.459L116.13 186.891C116.184 186.945 119.103 186.242 124.185 185.323Z" fill="#B96C43"/>
<g id="Group_23">
<path id="Vector_23" d="M125.59 196.837C125.644 196.999 125.699 197.161 125.699 197.323C125.644 198.08 120.563 205.108 117.86 208.946C116.346 211.055 112.994 210.838 111.426 209.379C110.724 208.73 110.345 207.703 110.615 206.459C110.832 205.432 111.805 204.459 112.237 203.432C112.886 201.918 115.643 196.674 115.643 196.674C115.643 196.674 115.211 193.701 117.914 192.782C120.617 191.863 121.752 193.755 121.752 193.755C123.158 193.701 123.428 191.809 123.59 190.944C123.59 190.944 124.834 193.214 125.59 196.837Z" fill="#3D1500"/>
<path id="Vector_24" d="M125.59 196.837C125.644 197 125.752 197.162 125.698 197.324C125.481 198.459 120.292 205.487 117.859 208.947C116.345 211.055 112.993 210.839 111.426 209.38C112.561 210.082 114.669 210.461 116.724 208.731C118.94 206.839 123.914 199.054 125.59 196.837Z" fill="#B96C43"/>
</g>
<g id="Group_24">
<g id="Group_25">
<path id="Vector_25" d="M118.724 200.189C118.832 200.189 118.94 200.135 118.994 200.027C119.102 199.81 119.048 199.594 118.886 199.432C118.832 199.378 117.318 198.405 115.967 198.405C114.183 198.405 113.426 199.756 113.426 199.81C113.318 200.027 113.426 200.243 113.588 200.351C113.804 200.459 114.021 200.351 114.129 200.189C114.129 200.135 114.669 199.216 115.967 199.216C117.048 199.216 118.399 200.135 118.454 200.135C118.508 200.189 118.616 200.189 118.724 200.189Z" fill="black"/>
</g>
<g id="Group_26">
<path id="Vector_26" d="M119.319 198.569C119.427 198.569 119.535 198.515 119.589 198.407C119.697 198.191 119.643 197.974 119.481 197.812C119.427 197.758 117.913 196.785 116.561 196.731C114.777 196.731 114.021 198.082 114.021 198.137C113.912 198.353 114.021 198.569 114.183 198.677C114.399 198.785 114.615 198.677 114.723 198.515C114.723 198.461 115.264 197.542 116.561 197.542C117.697 197.542 118.994 198.461 119.048 198.461C119.102 198.569 119.21 198.623 119.319 198.569Z" fill="black"/>
</g>
<g id="Group_27">
<path id="Vector_27" d="M117.642 201.758C117.75 201.758 117.859 201.704 117.913 201.596C118.021 201.38 117.967 201.163 117.804 201.001C117.75 200.947 116.237 199.974 114.885 199.974C113.101 199.974 112.344 201.326 112.344 201.38C112.236 201.596 112.344 201.812 112.506 201.92C112.723 202.028 112.939 201.92 113.047 201.758C113.047 201.704 113.588 200.785 114.885 200.785C116.02 200.785 117.318 201.704 117.372 201.704C117.426 201.758 117.534 201.758 117.642 201.758Z" fill="black"/>
</g>
</g>
</g>
<g id="Group_28">
<path id="Vector_28" d="M133.158 198.566L133.429 203.323H138.835V198.188L133.158 198.566Z" fill="#F9CEB0"/>
<g id="Group_29">
<g id="Group_30">
<g id="Group_31">
<path id="Vector_29" d="M131.321 210.889C130.996 210.673 130.834 210.132 130.834 209.484C130.78 208.403 131.159 206.889 131.591 205.754C131.807 204.402 132.402 201.807 133.267 200.996L133.375 203.051C134.078 202.402 135.159 201.753 136.835 201.807C137.538 201.807 138.187 202.186 138.835 202.51V200.456C138.835 200.456 139.917 202.077 140.295 203.429C141.755 204.835 142.89 206.889 143.268 208.673C143.322 208.889 143.376 209.159 143.376 209.376C143.863 212.403 132.564 211.7 131.321 210.889Z" fill="#3D1500"/>
<path id="Vector_30" d="M131.321 210.889C130.997 210.673 130.834 210.132 130.834 209.483C132.132 209.97 134.511 210.673 137.16 210.565C141.647 210.348 142.782 209.483 143.323 208.727C143.377 208.943 143.431 209.213 143.431 209.429C143.863 212.403 132.564 211.7 131.321 210.889Z" fill="#B96C43"/>
</g>
<g id="Group_32">
<g id="Group_33">
<path id="Vector_31" d="M139.484 204.943C139.592 204.943 139.7 204.835 139.809 204.727C139.971 204.511 139.917 204.241 139.7 204.079C139.646 204.024 137.916 202.889 136.403 202.889C134.348 202.889 133.537 204.457 133.483 204.511C133.375 204.727 133.429 204.998 133.7 205.16C133.916 205.268 134.24 205.214 134.348 204.943C134.348 204.889 134.943 203.808 136.403 203.862C137.646 203.862 139.214 204.889 139.214 204.889C139.268 204.943 139.376 204.998 139.484 204.943Z" fill="black"/>
</g>
</g>
<g id="Group_34">
<g id="Group_35">
<path id="Vector_32" d="M139.267 203.321C139.375 203.321 139.484 203.213 139.592 203.105C139.754 202.889 139.7 202.619 139.484 202.456C139.43 202.402 137.7 201.267 136.186 201.267C134.132 201.267 133.321 202.835 133.267 202.889C133.158 203.105 133.213 203.375 133.483 203.538C133.699 203.646 134.023 203.592 134.132 203.321C134.132 203.267 134.726 202.186 136.186 202.24C137.429 202.24 138.997 203.267 138.997 203.267C138.997 203.321 139.105 203.321 139.267 203.321Z" fill="black"/>
</g>
</g>
</g>
</g>
<path id="Vector_33" d="M131.698 195.376L131.806 198.674L140.294 198.35L140.51 194.998L131.698 195.376Z" fill="#B96C43"/>
</g>
</g>
<g id="Group_36">
<g id="Group_37">
<path id="Vector_34" d="M143.267 56.4405C143.105 62.0628 140.51 72.2803 140.834 80.3895C140.889 81.2545 140.943 82.0654 141.051 82.8763C141.051 82.9844 141.051 83.0925 141.105 83.1466C141.159 83.6332 141.267 84.1197 141.321 84.6063C141.429 85.4172 141.537 86.2281 141.645 87.0931C141.699 87.6877 141.753 88.2283 141.808 88.823C141.916 89.6339 141.97 90.4989 142.024 91.3098C142.673 98.6081 142.889 105.96 142.618 108.447C130.725 119.53 109.047 111.745 108.884 108.123C108.776 106.014 109.857 99.5812 110.236 91.5801C110.29 90.7692 110.29 89.9042 110.344 89.0393C110.344 88.4446 110.344 87.8499 110.398 87.2552C110.398 86.4443 110.398 85.5794 110.398 84.7144C110.398 84.0656 110.344 83.3629 110.344 82.6601C110.29 81.7951 110.29 80.9842 110.182 80.1192C110.02 77.8486 109.749 75.524 109.371 73.2534C107.587 62.8197 102.235 55.0889 106.776 53.0887C111.317 51.0344 120.507 47.0879 120.507 47.0879H128.671C133.482 49.6288 143.429 50.1694 143.267 56.4405Z" fill="#E1A549"/>
<path id="Vector_35" d="M114.723 51.5205C114.723 51.5205 110.128 48.7634 113.317 42.8707C115.966 37.9512 122.075 39.1405 126.292 39.2486C130.509 39.3027 136.131 41.6273 136.834 46.7631C137.537 51.8989 131.482 51.088 131.482 51.088L114.723 51.5205Z" fill="#E1A549"/>
<path id="Vector_36" d="M121.318 42.3307C121.318 42.3307 117.696 43.4119 117.372 45.3041C116.939 47.6287 120.453 48.3315 120.453 48.3315L128.671 47.7368C128.671 47.7368 130.779 48.0612 131.266 46.4394C131.806 44.8716 131.86 40.5467 121.318 42.3307Z" fill="#E1A549"/>
<g id="Group_38">
<g id="Group_39">
<path id="Vector_37" d="M141.05 82.9302C136.347 83.8493 131.535 84.1736 127.048 84.1736C123.426 84.1736 120.02 83.9574 117.047 83.6871C114.614 83.4708 112.344 83.1465 110.289 82.8221C110.235 81.9571 110.235 81.1462 110.127 80.2812C112.236 80.6056 114.668 80.93 117.317 81.2003C123.805 81.849 132.508 82.0653 140.834 80.4434C140.888 81.2543 140.942 82.1193 141.05 82.9302Z" fill="#E1A549"/>
</g>
<g id="Group_40">
<path id="Vector_38" d="M141.591 87.1489C136.509 88.2301 131.319 88.6086 126.454 88.6086C122.832 88.6086 119.426 88.3923 116.453 88.122C114.236 87.9058 112.236 87.6355 110.344 87.3652C110.344 86.5542 110.344 85.6893 110.344 84.8243C112.29 85.0946 114.452 85.419 116.723 85.6352C123.481 86.2839 132.617 86.5542 141.267 84.6621C141.375 85.473 141.483 86.2839 141.591 87.1489Z" fill="#E1A549"/>
</g>
<g id="Group_41">
<path id="Vector_39" d="M142.023 91.4188C136.834 92.5541 131.428 92.9325 126.454 92.9325C122.832 92.9325 119.426 92.7163 116.453 92.446C114.236 92.2297 112.128 91.9594 110.236 91.6891C110.29 90.8782 110.29 90.0132 110.344 89.1482C112.29 89.4185 114.452 89.7429 116.777 89.9592C123.643 90.6079 133.049 90.8782 141.807 88.8779C141.861 89.7429 141.969 90.5538 142.023 91.4188Z" fill="#E1A549"/>
</g>
</g>
<g id="Group_42">
<path id="Vector_40" d="M129.968 57.2531C122.345 57.2531 118.074 51.0901 117.858 50.8198C117.696 50.6036 117.75 50.3333 117.966 50.2252C118.182 50.063 118.453 50.117 118.561 50.3333C118.615 50.3873 122.994 56.6584 130.508 56.3881C130.779 56.3881 130.941 56.5503 130.941 56.8206C130.941 57.0369 130.779 57.2531 130.508 57.2531C130.346 57.2531 130.184 57.2531 129.968 57.2531Z" fill="#E1A549"/>
</g>
<g id="Group_43">
<path id="Vector_41" d="M128.292 60.0624C125.265 60.0624 123.048 58.6568 122.94 58.6028C122.724 58.4946 122.67 58.2243 122.832 58.0081C122.94 57.7918 123.21 57.7378 123.427 57.9C123.481 57.954 126.67 59.9002 130.454 58.9271C130.671 58.8731 130.941 59.0352 130.995 59.2515C131.049 59.4677 130.887 59.738 130.671 59.7921C129.86 59.9543 129.049 60.0624 128.292 60.0624Z" fill="#E1A549"/>
</g>
<g id="Group_44">
<path id="Vector_42" d="M129.211 102.987C124.453 102.987 121.102 101.581 120.939 101.527C120.723 101.419 120.615 101.203 120.723 100.932C120.831 100.716 121.047 100.608 121.318 100.716C121.372 100.716 126.291 102.717 132.4 101.906C132.617 101.852 132.833 102.014 132.887 102.284C132.941 102.5 132.779 102.771 132.508 102.771C131.373 102.933 130.238 102.987 129.211 102.987Z" fill="#E1A549"/>
</g>
<g id="Group_45">
<path id="Vector_43" d="M132.509 77.5799C128.076 77.5799 123.751 75.85 119.913 72.4982C116.723 69.687 115.102 66.8218 114.994 66.7137C114.885 66.4974 114.939 66.2271 115.156 66.119C115.372 66.0109 115.642 66.0649 115.75 66.2812C115.804 66.3893 122.4 77.6881 133.861 76.715C134.077 76.715 134.293 76.8771 134.347 77.0934C134.347 77.3096 134.185 77.5259 133.969 77.5799C133.482 77.5259 132.996 77.5799 132.509 77.5799Z" fill="#E1A549"/>
</g>
</g>
<g id="Group_46">
<path id="Vector_44" d="M114.02 28.1126C114.02 28.1126 112.02 25.0312 112.398 23.7337C112.777 22.3822 113.75 23.0309 113.75 23.0309C113.75 23.0309 112.615 19.6251 114.128 19.0304C115.642 18.3816 116.345 18.5979 116.345 18.5979C116.345 18.5979 118.345 14.4893 120.94 13.6783C123.535 12.8674 122.238 15.2461 122.238 15.2461C122.238 15.2461 127.373 12.489 129.644 12.9755C131.915 13.4621 128.617 15.5705 128.617 15.5705C128.617 15.5705 131.806 14.1108 133.482 14.3271C135.212 14.4893 132.023 17.9492 132.023 17.9492C132.023 17.9492 134.563 17.7329 135.374 18.7601C136.185 19.7872 133.969 21.355 133.969 21.355C133.969 21.355 135.266 22.5443 135.158 23.4634C135.05 24.3284 134.672 25.0852 134.672 25.0852C134.672 25.0852 135.645 24.9771 135.374 26.1664C135.104 27.3558 134.509 29.356 134.509 29.356L114.02 28.1126Z" fill="#133248"/>
<path id="Vector_45" d="M114.02 28.8147C114.02 35.0858 117.858 39.4107 124.129 39.4107C130.4 39.4107 134.779 34.7614 134.779 28.4904C134.779 22.2193 131.049 17.4619 124.832 17.4619C117.317 17.4619 114.02 22.5437 114.02 28.8147Z" fill="#133248"/>
<g id="Group_47">
<path id="Vector_46" d="M115.426 29.7333C115.426 29.7333 113.696 27.4086 112.398 29.3548C111.101 31.247 112.939 36.9234 116.075 35.5718L115.426 29.7333Z" fill="#F9CEB0"/>
<g id="Group_48">
<path id="Vector_47" d="M115.426 33.7875C115.318 33.7875 115.21 33.7334 115.156 33.5713C114.669 31.8413 112.831 31.1385 112.831 31.0845C112.669 31.0304 112.615 30.8682 112.669 30.7601C112.723 30.5979 112.885 30.5438 112.993 30.5979C113.101 30.652 115.102 31.4088 115.642 33.4091C115.696 33.5713 115.588 33.6794 115.48 33.7334C115.48 33.7875 115.426 33.7875 115.426 33.7875Z" fill="#E1A549"/>
</g>
<g id="Group_49">
<g id="Group_50">
<path id="Vector_48" d="M113.588 32.9223C113.534 32.9223 113.48 32.9223 113.425 32.8683C113.317 32.8142 113.263 32.598 113.371 32.4898C113.371 32.4898 113.696 32.0033 114.399 31.6789C114.507 31.6249 114.669 31.6789 114.777 31.787C114.831 31.8952 114.777 32.0573 114.669 32.1655C114.128 32.3817 113.912 32.7601 113.912 32.7601C113.75 32.8683 113.696 32.9223 113.588 32.9223Z" fill="#E1A549"/>
</g>
</g>
</g>
<g id="Group_51">
<path id="Vector_49" d="M133.373 29.8407C133.373 29.8407 135.103 27.516 136.401 29.4622C137.698 31.3544 135.86 37.0308 132.725 35.6793L133.373 29.8407Z" fill="#F9CEB0"/>
<g id="Group_52">
<path id="Vector_50" d="M133.373 33.8959C133.481 33.8959 133.589 33.8418 133.643 33.6797C134.13 31.9497 135.968 31.2469 135.968 31.1929C136.13 31.1388 136.184 30.9766 136.13 30.8685C136.076 30.7063 135.914 30.6522 135.806 30.7063C135.698 30.7604 133.697 31.5172 133.157 33.5175C133.103 33.6797 133.211 33.7878 133.319 33.8418C133.319 33.8959 133.373 33.8959 133.373 33.8959Z" fill="#E1A549"/>
</g>
<g id="Group_53">
<g id="Group_54">
<path id="Vector_51" d="M135.211 32.977C135.265 32.977 135.319 32.977 135.373 32.923C135.481 32.8689 135.535 32.6526 135.427 32.5445C135.427 32.5445 135.102 32.058 134.4 31.7336C134.292 31.6795 134.129 31.7336 134.021 31.8417C133.967 31.9499 134.021 32.112 134.129 32.2202C134.67 32.4364 134.886 32.8148 134.886 32.8148C135.048 32.923 135.102 32.977 135.211 32.977Z" fill="#E1A549"/>
</g>
</g>
</g>
<path id="Vector_52" d="M128.671 42.1152V47.7376C128.671 47.7376 126.995 50.6028 124.724 50.8191C122.454 51.0353 120.454 48.3323 120.454 48.3323V42.4937L128.671 42.1152Z" fill="#F9CEB0"/>
<path id="Vector_53" d="M128.671 42.1152V44.602C127.536 46.4401 123.481 47.4673 120.454 46.1158V42.4937L128.671 42.1152Z" fill="#F9CEB0"/>
<path id="Vector_54" d="M114.506 31.3025C114.614 32.4918 114.722 33.7352 114.939 35.0327C115.695 39.1954 118.939 45.1421 123.696 45.5205C128.832 45.953 132.346 40.4388 133.536 36.2761C133.644 35.7896 133.806 35.303 133.86 34.7624C134.022 33.7893 134.184 32.654 134.292 31.5728C134.455 30.2213 134.509 28.8697 134.563 27.6804C134.671 25.1395 133.157 22.8149 130.833 21.9499C127.427 20.6525 122.237 19.6253 117.371 22.3824C115.587 23.4096 114.452 25.3017 114.398 27.4101C114.398 28.4373 114.398 29.8428 114.506 31.3025Z" fill="#F9CEB0"/>
<path id="Vector_55" d="M127.86 39.6816C127.643 40.8169 126.941 42.8712 124.454 42.8712C121.967 42.8712 121.264 41.0332 120.994 39.7357L127.86 39.6816Z" fill="black"/>
<path id="Vector_56" d="M120.994 34.2765C120.994 34.8712 120.67 35.3578 120.292 35.3578C119.913 35.3578 119.589 34.8712 119.589 34.2765C119.589 33.6819 119.913 33.1953 120.292 33.1953C120.67 33.1953 120.994 33.6819 120.994 34.2765Z" fill="#133248"/>
<path id="Vector_57" d="M129.374 34.2765C129.374 34.8712 129.049 35.3578 128.671 35.3578C128.292 35.3578 127.968 34.8712 127.968 34.2765C127.968 33.6819 128.292 33.1953 128.671 33.1953C129.049 33.1953 129.374 33.6819 129.374 34.2765Z" fill="#133248"/>
<path id="Vector_58" d="M134.347 31.5736C133.698 31.5736 133.212 31.033 133.212 30.3843C133.266 29.3031 133.158 28.1137 132.455 27.8975C129.319 26.9244 132.509 25.4107 131.104 24.2754C129.698 23.1401 129.211 27.2487 124.4 27.2487C119.643 27.2487 118.832 23.8429 117.859 24.0591C116.885 24.2754 116.615 24.8701 116.994 26.1135C117.372 27.3569 115.804 28.7625 115.534 30.0599C115.48 30.2221 115.48 30.4383 115.48 30.6546C115.48 31.1952 115.047 31.5736 114.507 31.5736C114.399 30.0059 114.345 28.5462 114.399 27.3569C114.453 25.3026 115.588 23.3564 117.372 22.3292C122.292 19.5721 127.427 20.5992 130.833 21.8967C133.212 22.8157 134.726 25.1404 134.563 27.6272C134.563 28.8165 134.455 30.2221 134.347 31.5736Z" fill="#133248"/>
<path id="Vector_59" d="M117.966 30.7628C117.966 30.7628 119.804 29.8438 122.669 30.6547L122.453 31.79C122.453 31.79 119.804 31.7359 117.966 32.0603C117.804 31.6278 117.804 31.1953 117.966 30.7628Z" fill="#133248"/>
<path id="Vector_60" d="M130.941 30.7624C130.941 30.7624 129.049 29.9515 126.238 30.6543L126.454 31.7895C126.454 31.7895 129.103 31.7355 130.941 32.0599C131.104 31.6274 131.158 31.1949 130.941 30.7624Z" fill="#133248"/>
<g id="Group_55">
<path id="Vector_61" d="M124.454 38.3307C124.4 38.3307 124.4 38.3307 124.454 38.3307C123.264 38.3307 122.724 37.2495 122.724 37.1954C122.67 37.0333 122.724 36.817 122.886 36.7629C123.048 36.7089 123.264 36.763 123.319 36.9251C123.319 36.9792 123.697 37.682 124.508 37.682C125.265 37.682 125.589 36.9792 125.589 36.9251C125.643 36.763 125.859 36.7089 126.022 36.7629C126.184 36.817 126.238 37.0333 126.184 37.1954C126.13 37.2495 125.589 38.3307 124.454 38.3307Z" fill="#E1A549"/>
</g>
</g>
</g>
<g id="Group_56">
<path id="Vector_62" d="M109.154 70.9842L103.802 85.2563L103.424 86.2295L103.37 86.3376L102.667 88.2297C99.0991 89.5812 94.9905 88.2297 94.9905 88.2297C95.0445 87.0944 95.2067 85.9051 95.3689 84.7157C97.4232 71.2005 105.478 54.1172 105.478 54.1172C109.695 61.2532 109.154 70.9842 109.154 70.9842Z" fill="#E1A549"/>
<path id="Vector_63" d="M95.5857 84.3906C95.5857 84.3906 91.2608 94.3919 100.019 95.311C108.777 96.23 112.831 91.3104 112.831 91.3104L112.02 87.9046C112.02 87.9046 108.398 86.8234 104.992 86.5531C102.181 86.3368 95.5857 84.3906 95.5857 84.3906Z" fill="#E1A549"/>
<g id="Group_57" opacity="0.2">
<path id="Vector_64" d="M103.802 85.2559L103.424 86.229C103.316 86.229 103.208 86.283 103.1 86.283C101.316 86.6074 100.18 86.9858 100.18 86.9858C99.964 87.0939 99.6937 86.9317 99.6396 86.7155C99.5315 86.4993 99.6937 86.229 99.9099 86.1749C99.964 86.1749 100.342 86.0127 101.045 85.7965C101.748 85.6343 102.667 85.418 103.802 85.2559Z" fill="#C32D12"/>
</g>
<g id="Group_58">
<path id="Vector_65" d="M120.399 91.5266L115.047 91.4185C114.561 91.4185 114.128 91.0941 114.074 90.6076L111.857 81.9578C111.695 81.3091 112.344 79.9035 112.993 79.9576L122.94 80.336C123.589 80.336 124.021 81.7416 123.859 82.3903L121.426 90.7698C121.318 91.2563 120.886 91.5266 120.399 91.5266Z" fill="#335464"/>
<path id="Vector_66" d="M120.345 92.4453L114.993 92.3371C114.507 92.3371 114.074 92.0128 114.02 91.5262L111.912 82.1196C111.75 81.4709 112.29 80.8221 112.993 80.8762L122.94 81.2546C123.589 81.2546 124.076 81.9034 123.913 82.5521L121.427 91.6884C121.21 92.1209 120.832 92.4453 120.345 92.4453Z" fill="#133248"/>
</g>
<g id="Group_59">
<path id="Vector_67" d="M112.669 87.3649C113.101 87.3649 115.588 86.554 115.048 85.8512C114.615 85.3106 112.561 85.3647 112.561 85.3647C112.561 85.3647 112.507 85.0403 112.399 84.77L112.345 84.4456L111.966 82.6616C111.534 82.7697 111.263 83.0941 111.155 83.3104C110.723 84.1753 111.209 85.7972 111.209 85.7972C111.209 85.7972 108.939 86.554 109.155 87.4731C109.425 88.3921 110.452 88.338 110.452 88.338C110.452 88.338 109.479 89.0408 109.966 89.7977C110.452 90.5005 111.534 90.068 111.534 90.068C111.534 90.068 110.56 91.3654 111.101 91.852C111.642 92.3385 112.399 92.1764 112.399 92.1764C112.399 92.1764 111.642 93.0954 112.669 93.5279C113.642 93.9604 114.939 93.3116 115.696 92.8251C116.453 92.3926 116.075 91.7979 113.804 91.9601C113.804 91.9601 116.075 91.0951 116.183 90.6627C116.507 89.6896 114.399 89.3652 113.101 89.4733C114.129 89.3111 116.615 88.9327 116.345 87.9596C116.183 87.0946 113.101 87.3649 112.669 87.3649Z" fill="#F9CEB0"/>
</g>
</g>
<g id="Group_60">
<path id="Vector_68" d="M142.834 111.638C142.834 111.638 140.294 111.152 139.05 111.638C137.807 112.125 139.375 114.233 139.375 114.233L138.347 115.963C138.347 115.963 139.969 119.099 141.807 119.639C143.645 120.18 146.024 114.828 146.024 114.828L142.834 111.638Z" fill="#F9CEB0"/>
<g id="Group_61">
<path id="Vector_69" d="M146.025 114.829C144.727 114.396 143.7 113.153 142.835 111.639C142.835 111.639 146.619 105.098 147.322 100.665C148.566 92.7718 149.268 87.636 149.268 87.636L148.89 86.8251L141.105 70.9312C141.105 70.9312 138.618 61.2542 142.781 54.1182C142.781 54.1182 156.134 74.2829 157.107 88.1226C157.053 88.1226 158.459 99.4213 146.025 114.829Z" fill="#E1A549"/>
<g id="Group_62" opacity="0.2">
<path id="Vector_70" d="M154.512 86.6644C154.512 86.8807 154.296 87.0969 154.079 87.0969C152.349 87.0969 150.728 87.3672 149.322 87.6916L148.944 86.8807C149.538 86.7185 150.187 86.6104 150.89 86.5022C151.917 86.3401 152.998 86.2319 154.133 86.2319C154.296 86.2319 154.512 86.4482 154.512 86.6644Z" fill="#E33516"/>
</g>
</g>
</g>
</g>
</g>
<g id="Group_63">
<path id="Vector_71" d="M105.263 210.729C105.263 212.783 86.5583 214.459 63.5283 214.459C40.4983 214.459 21.7932 212.783 21.7932 210.729C21.7932 208.674 40.4983 206.999 63.5283 206.999C86.5583 206.999 105.263 208.674 105.263 210.729Z" fill="#E0EBF5" fill-opacity="0.2"/>
<g id="Group_64">
<path id="Vector_72" d="M44.0658 32.7614C44.0658 32.7614 42.4981 39.0325 39.795 40.9787C37.092 42.9249 33.3077 45.3036 34.7133 48.331C36.1189 51.3584 36.0107 53.4668 32.9293 56.332C29.8478 59.1972 29.145 62.7653 32.5508 65.9549C35.9026 69.1985 30.7128 71.4691 33.4158 77.1455C36.1189 82.8219 40.1734 83.5788 43.0927 79.4161C46.012 75.1993 50.1207 59.846 55.8511 59.5216C61.5816 59.1972 62.0682 54.0074 61.3654 49.7906C60.6626 45.5739 61.041 41.8977 60.9869 40.7624C60.9329 39.6812 48.8773 30.8693 44.0658 32.7614Z" fill="#133248"/>
<g id="Group_65">
<g id="Group_66">
<path id="Vector_73" d="M72.4477 66.28L72.5558 66.3341L73.2586 66.7666L73.4208 66.4422L79.6919 66.28C80.2325 66.28 80.665 65.8475 80.7191 65.3069L81.8543 52.2241C81.8543 52.1701 81.8543 52.116 81.8543 52.0079L82.0706 51.6295L81.3137 51.197H81.2597C81.0975 51.1429 80.9353 51.0889 80.7731 51.0889L74.1236 51.2511C73.583 51.2511 73.1505 51.6835 73.0965 52.2241L71.9612 65.3069C71.9612 65.6854 72.1234 66.0638 72.4477 66.28Z" fill="#133248"/>
<path id="Vector_74" d="M73.799 66.8748L80.4485 66.7126C80.9891 66.7126 81.4216 66.2801 81.4757 65.7395L82.6109 52.6568C82.665 52.0621 82.1785 51.5215 81.5297 51.5215L74.8802 51.6837C74.3396 51.6837 73.9071 52.1162 73.8531 52.6568L72.7178 65.7395C72.7178 66.3883 73.2043 66.8748 73.799 66.8748Z" fill="#335464"/>
</g>
<path id="Vector_75" d="M82.1245 58.3873C82.7192 58.4413 82.2327 59.3604 82.6111 60.6038C83.0977 62.1715 79.6918 70.605 79.6918 70.605C77.1509 71.7403 74.9344 70.0104 74.9344 70.0104C74.9344 70.0104 74.2857 62.8203 74.8804 60.6038C74.8804 60.6038 75.2588 58.6035 75.3669 57.4142C75.475 56.2248 76.0156 54.9273 76.34 55.1436C76.7184 55.3598 76.8266 56.3329 76.8266 57.0357C76.8266 57.7385 76.9887 59.1441 76.9887 59.1441C76.9887 59.1441 77.205 57.4142 77.205 56.4951C77.2591 55.5761 77.1509 54.0624 77.7456 53.7921C78.4484 53.4136 78.6646 55.4139 78.7728 56.1708C78.8809 56.8735 78.5565 59.1441 78.5565 59.1441C78.5565 59.1441 79.0431 56.6032 78.9349 55.8464C78.8268 55.0895 78.6646 53.6299 78.7187 53.0352C78.7728 52.4405 79.5296 52.4946 79.7999 53.3055C80.0702 54.1164 80.3405 55.5761 80.3946 56.1167C80.5027 56.7654 80.3405 58.9279 80.3405 58.9279C80.3405 58.9279 80.6649 56.4411 80.6108 55.7923C80.6108 55.2517 80.4487 54.2246 80.6108 53.5758C80.8271 52.9812 81.5299 52.819 81.7461 54.4408C81.9624 56.0626 82.0164 56.2248 81.9624 56.7114C81.9083 57.5763 81.7461 58.4954 81.8542 58.8738C81.9083 59.036 82.1245 59.036 82.1245 59.036V58.3873Z" fill="#F9CEB0"/>
<path id="Vector_76" d="M80.611 68.1729C79.0433 69.7407 76.3402 69.0379 74.7184 67.4701C74.2859 69.0379 73.6912 72.714 73.529 72.3897C73.3669 72.0112 73.2047 71.6869 73.0425 71.3085C72.7722 70.7138 72.4478 70.065 72.1775 69.4163C71.745 68.4973 71.3125 67.5242 70.8801 66.6051C67.5823 59.5772 64.0143 51.5762 64.0143 51.5762C62.879 52.2249 62.6087 60.0638 62.9331 66.443C62.9871 67.6864 63.9602 72.3356 63.9602 72.3356L69.042 84.229C70.2854 87.4186 72.5019 88.8783 73.9075 88.9324C75.2049 88.9324 77.3133 88.2296 77.908 84.9859L80.611 68.1729Z" fill="#E1A549"/>
<g id="Group_67" opacity="0.3">
<path id="Vector_77" d="M72.069 81.5226C72.2852 81.5226 72.4474 81.3604 72.4474 81.1982C72.8259 77.1436 73.2583 74.1703 73.5286 72.3322C73.3665 71.9538 73.2043 71.6294 73.0421 71.251C72.7718 72.8187 72.2312 76.2246 71.7446 81.1441C71.7446 81.3604 71.9068 81.5226 72.069 81.5226Z" fill="#E1A549"/>
</g>
</g>
<g id="Group_68">
<g id="Group_69">
<path id="Vector_78" d="M39.3795 112.137C38.1361 113.759 37.163 135.545 40.0282 151.439C40.0282 151.439 35.1627 165.982 34.6762 174.307C34.4599 177.929 31 193.931 31 193.931L37.8117 196.958L53.5435 154.304C54.8409 145.709 54.949 127.49 55.0031 112.137H39.3795Z" fill="#3D1500"/>
<g id="Group_70">
<path id="Vector_79" d="M33.4869 194.31L32.676 194.148C32.7301 193.985 35.9197 179.281 36.8387 171.442C37.7037 163.927 41.5961 152.845 41.9745 151.71C41.9205 150.737 41.8123 149.818 41.7583 148.844C40.623 135.383 39.5958 122.679 41.5961 114.354L42.407 114.57C40.4068 122.733 41.488 135.383 42.5692 148.79C42.6773 149.764 42.7314 150.737 42.7854 151.764V151.872L42.7314 151.98C42.6773 152.088 38.4606 163.765 37.5956 171.604C36.7306 179.389 33.4869 194.148 33.4869 194.31Z" fill="#E1A549"/>
</g>
</g>
<g id="Group_71">
<g id="Group_72">
<g id="Group_73">
<path id="Vector_80" d="M36.6065 196.134L35.4172 201.486C33.4169 202.513 31.4707 201.972 29.092 201.216L31.1464 193.863L36.6065 196.134Z" fill="#F9CEB0"/>
</g>
</g>
<g id="Group_74">
<path id="Vector_81" d="M30.5502 192.027C29.6312 193.595 29.5231 194.676 29.5771 196.082C29.5771 196.082 32.6045 197.379 37.5241 198.352C38.2269 197.488 38.6053 196.136 38.8756 194.568C38.8756 194.622 36.0104 193.703 30.5502 192.027Z" fill="#B96C43"/>
</g>
<g id="Group_75">
<path id="Vector_82" d="M50.5533 208.786C50.5533 208.894 50.4992 209.056 50.4452 209.164C50.4452 209.272 50.3911 209.326 50.3911 209.434C50.283 209.813 50.1748 210.137 50.0667 210.299C49.7424 210.624 42.8225 210.516 42.8225 210.516H35.1459C34.0106 210.516 30.0641 210.461 28.2801 210.461C27.7936 210.461 27.3611 210.083 27.3611 209.542C27.3611 209.434 27.3611 209.326 27.3611 209.218C27.307 207.975 27.253 206.083 27.253 205.488C27.253 204.515 28.0639 202.677 28.0639 202.677C28.0639 202.677 26.5502 201.163 27.5773 200.622C28.6045 200.082 29.037 200.46 29.037 200.46C29.037 200.46 31.4697 201.758 32.7131 201.595C33.9565 201.433 35.1999 200.19 35.6324 199.217C36.0109 198.244 37.6867 198.946 37.7949 199.866C37.8489 200.244 38.0111 200.46 38.3355 200.676C38.6598 200.893 39.0383 201.163 39.5789 201.541C39.687 201.595 39.7411 201.704 39.8492 201.758C39.9573 201.866 40.1195 201.974 40.2276 202.082C40.4439 202.298 40.7142 202.515 41.0385 202.731C41.0926 202.785 41.1467 202.839 41.2007 202.839C41.5251 203.055 41.8494 203.271 42.2279 203.488C43.4713 204.19 44.8228 204.839 45.6337 205.272C46.6609 205.866 49.2017 207.38 50.2289 207.975C50.4452 208.137 50.6073 208.461 50.5533 208.786Z" fill="#3D1500"/>
<path id="Vector_83" d="M50.3913 209.434C50.2832 209.812 50.1751 210.137 50.067 210.299C49.7426 210.623 42.8228 210.515 42.8228 210.515H35.1461C34.0108 210.515 30.0644 210.461 28.2804 210.461C27.7938 210.461 27.3613 210.083 27.3613 209.542C27.3613 209.434 27.3613 209.326 27.3613 209.218C34.6055 209.596 42.3362 209.65 50.3913 209.434Z" fill="#B96C43"/>
<g id="Group_76">
<g id="Group_77">
<g id="Group_78">
<path id="Vector_84" d="M37.1451 204.787C37.037 204.841 36.9289 204.787 36.8207 204.733C36.6045 204.625 36.5504 204.355 36.6586 204.193C36.7126 204.139 37.5776 202.625 38.7669 202.03C40.3347 201.219 41.5781 202.138 41.6322 202.138C41.7944 202.246 41.8484 202.517 41.7403 202.679C41.6322 202.841 41.3619 202.895 41.1997 202.787C41.1456 202.787 40.3347 202.192 39.1994 202.733C38.2263 203.22 37.4695 204.571 37.4695 204.625C37.3073 204.679 37.1992 204.787 37.1451 204.787Z" fill="black"/>
</g>
</g>
<g id="Group_79">
<g id="Group_80">
<path id="Vector_85" d="M35.9027 203.65C35.7945 203.704 35.6864 203.65 35.5783 203.596C35.3621 203.487 35.308 203.217 35.4161 203.055C35.4702 203.001 36.3352 201.487 37.5245 200.892C39.0923 200.082 40.3357 201.001 40.3897 201.001C40.5519 201.109 40.606 201.379 40.4979 201.541C40.3897 201.703 40.1194 201.757 39.9572 201.649C39.9032 201.649 39.0923 201.055 37.957 201.595C36.9839 202.082 36.227 203.433 36.227 203.487C36.1189 203.596 36.0108 203.65 35.9027 203.65Z" fill="black"/>
</g>
</g>
<g id="Group_81">
<g id="Group_82">
<path id="Vector_86" d="M38.7677 205.706C38.6595 205.76 38.5514 205.706 38.4433 205.652C38.227 205.544 38.173 205.273 38.2811 205.111C38.3352 205.057 39.2001 203.543 40.3895 202.949C41.9573 202.138 43.2007 203.057 43.2547 203.057C43.4169 203.165 43.471 203.435 43.3628 203.597C43.2547 203.76 42.9844 203.814 42.8222 203.705C42.7682 203.705 41.9573 203.111 40.822 203.651C39.8489 204.138 39.092 205.489 39.092 205.544C38.9298 205.598 38.8217 205.706 38.7677 205.706Z" fill="black"/>
</g>
</g>
</g>
</g>
</g>
</g>
<g id="Group_83">
<g id="Group_84">
<path id="Vector_87" d="M76.8971 147.816C78.8973 163.71 84.0872 195.444 84.0872 195.444L77.5458 196.092C77.5458 196.092 71.0044 173.387 68.842 168.089C66.6795 162.845 64.463 150.735 64.463 150.735C64.463 150.735 60.3003 141.437 55.4889 128.624C51.8128 118.839 56.1376 112.676 56.1376 112.676L69.0582 109L76.8971 147.816Z" fill="#3D1500"/>
<g id="Group_85">
<path id="Vector_88" d="M78.2486 194.848C78.1945 194.577 71.5991 169.331 69.9773 165.439C68.1932 161.06 66.3011 150.572 66.1389 149.707L54.678 119.757L55.4348 119.433L66.9498 149.491V149.545C66.9498 149.653 68.9501 160.789 70.7341 165.168C72.3559 169.115 78.7351 193.658 79.0054 194.686L78.2486 194.848Z" fill="#E1A549"/>
</g>
</g>
<g id="Group_86">
<g id="Group_87">
<g id="Group_88">
<path id="Vector_89" d="M83.5312 194.673L84.8827 201.053C82.8824 202.08 80.6119 201.972 78.2332 201.161L77.4763 195.376L83.5312 194.673Z" fill="#F9CEB0"/>
</g>
</g>
<g id="Group_89">
<path id="Vector_90" d="M76.179 193.754C75.9087 195.538 76.2871 196.727 76.7737 198.025C76.7737 198.025 80.4498 197.917 85.3694 197.16L85.2072 193.375C85.2072 193.43 81.9095 193.43 76.179 193.754Z" fill="#B96C43"/>
</g>
<g id="Group_90">
<path id="Vector_91" d="M99.6951 208.678C99.6951 208.786 99.6411 208.948 99.587 209.056C99.587 209.164 99.5329 209.218 99.5329 209.326C99.4248 209.705 99.3167 210.029 99.2086 210.191C98.8842 210.516 91.9644 210.408 91.9644 210.408H84.2877C83.1524 210.408 79.206 210.354 77.422 210.354C76.9354 210.354 76.5029 209.975 76.5029 209.435C76.5029 209.326 76.5029 209.218 76.5029 209.11C76.4489 207.867 76.3948 205.975 76.3948 205.38C76.3948 204.407 77.2057 202.569 77.2057 202.569C77.2057 202.569 75.692 201.055 76.7192 200.514C77.7463 199.974 78.1788 200.352 78.1788 200.352C78.1788 200.352 80.6116 201.65 81.855 201.488C83.0984 201.325 84.3418 200.082 84.7743 199.109C85.1527 198.136 86.8286 198.839 86.9367 199.758C86.9908 200.136 87.153 200.352 87.4773 200.569C87.8017 200.785 88.1801 201.055 88.7207 201.434C88.8289 201.488 88.8829 201.596 88.991 201.65C89.0992 201.758 89.2613 201.866 89.3695 201.974C89.5857 202.19 89.856 202.407 90.1804 202.623C90.2344 202.677 90.2885 202.731 90.3426 202.731C90.6669 202.947 90.9913 203.163 91.3697 203.38C92.6131 204.082 93.9647 204.731 94.7756 205.164C95.8027 205.758 98.3436 207.272 99.3708 207.867C99.587 208.083 99.7492 208.353 99.6951 208.678Z" fill="#3D1500"/>
<path id="Vector_92" d="M99.5332 209.38C99.4251 209.759 99.3169 210.083 99.2088 210.245C98.8844 210.57 91.9646 210.462 91.9646 210.462H84.288C83.1527 210.462 79.2062 210.407 77.4222 210.407C76.9357 210.407 76.5032 210.029 76.5032 209.488C76.5032 209.38 76.5032 209.272 76.5032 209.164C83.7474 209.542 91.4781 209.542 99.5332 209.38Z" fill="#B96C43"/>
<g id="Group_91">
<g id="Group_92">
<g id="Group_93">
<path id="Vector_93" d="M86.2335 204.731C86.1254 204.785 86.0172 204.731 85.9091 204.677C85.6929 204.568 85.6388 204.298 85.7469 204.136C85.801 204.082 86.666 202.568 87.8553 201.974C89.4231 201.163 90.6665 202.082 90.7205 202.082C90.8827 202.19 90.9368 202.46 90.8287 202.622C90.7205 202.784 90.4502 202.838 90.2881 202.73C90.234 202.73 89.4231 202.136 88.2878 202.676C87.3147 203.163 86.5578 204.514 86.5578 204.568C86.4497 204.623 86.3416 204.677 86.2335 204.731Z" fill="black"/>
</g>
</g>
<g id="Group_94">
<g id="Group_95">
<path id="Vector_94" d="M85.0443 203.598C84.9362 203.652 84.828 203.598 84.7199 203.544C84.5037 203.436 84.4496 203.165 84.5577 203.003C84.6118 202.949 85.4768 201.435 86.6661 200.841C88.2339 200.03 89.4773 200.949 89.5313 200.949C89.6935 201.057 89.7476 201.327 89.6395 201.489C89.5313 201.652 89.261 201.706 89.0989 201.598C89.0448 201.598 88.2339 201.003 87.0986 201.544C86.1255 202.03 85.3686 203.382 85.3686 203.436C85.2605 203.49 85.1524 203.544 85.0443 203.598Z" fill="black"/>
</g>
</g>
<g id="Group_96">
<g id="Group_97">
<path id="Vector_95" d="M87.9093 205.651C87.8011 205.705 87.693 205.651 87.5849 205.597C87.3687 205.489 87.3146 205.219 87.4227 205.056C87.4768 205.002 88.3418 203.489 89.5311 202.894C91.0989 202.083 92.3423 203.002 92.3963 203.002C92.5585 203.11 92.6126 203.38 92.5045 203.543C92.3963 203.705 92.126 203.759 91.9638 203.651C91.9098 203.651 91.0989 203.056 89.9636 203.597C88.9905 204.083 88.2336 205.435 88.2336 205.489C88.0714 205.543 87.9633 205.597 87.9093 205.651Z" fill="black"/>
</g>
</g>
</g>
</g>
</g>
</g>
<g id="Group_98">
<g id="Group_99">
<path id="Vector_96" d="M70.7718 112.231C61.3111 118.611 49.9043 120.449 37.4702 115.475C38.0108 111.853 39.6867 104.663 40.4976 99.2567C40.6598 98.1214 40.7679 96.9861 40.8761 95.7427C41.3085 89.2554 40.6058 81.4706 39.6867 75.4698C39.4705 74.1183 39.2542 72.8749 39.038 71.7396C38.6596 69.8475 38.3892 67.6851 38.2271 65.4145C37.6865 59.1434 37.7946 52.7101 37.7946 52.7101C39.038 52.1155 41.0382 51.3046 43.0385 50.5477C44.2819 50.0612 45.5794 49.6287 46.6606 49.1962C48.6068 48.4934 50.0664 48.0068 50.0664 48.0068L58.0675 49.4665L59.6352 50.0071L62.2302 50.8721L63.9601 51.4667C63.9601 51.4667 64.9873 59.5218 66.0144 64.4414C66.2847 65.7929 66.6091 66.8741 66.8794 67.5229C68.1228 70.4962 67.7985 71.9018 66.2847 75.7942C65.9063 76.7132 65.6901 77.6863 65.5279 78.7676C65.5279 78.9838 65.4738 79.146 65.4738 79.3622C65.4738 79.4163 65.4738 79.4704 65.4738 79.5785C65.4738 79.7407 65.4198 79.9569 65.4198 80.1732C65.2576 83.3628 65.7441 87.3092 66.6091 92.5531C67.366 97.2564 69.6365 106.609 70.7718 112.231Z" fill="#E1A549"/>
<g id="Group_100">
<path id="Vector_97" d="M53.9594 59.521C49.3101 59.521 47.0936 49.2494 46.9855 48.8169C46.9314 48.6548 47.0396 48.5466 47.2017 48.4926C47.3639 48.4385 47.472 48.5466 47.5261 48.7088C47.5261 48.8169 49.8507 59.467 54.2297 58.9264C55.0406 58.8182 55.6893 58.4398 56.2299 57.7911C58.2302 55.2502 57.4193 49.4116 57.4193 49.3576C57.4193 49.1954 57.5274 49.0873 57.6355 49.0332C57.7977 49.0332 57.9058 49.1413 57.9599 49.2494C58.0139 49.5197 58.7708 55.3583 56.6624 58.1154C56.0678 58.8723 55.2568 59.3588 54.2837 59.467C54.1756 59.467 54.0675 59.521 53.9594 59.521Z" fill="black"/>
</g>
<g id="Group_101">
<g id="Group_102">
<path id="Vector_98" d="M65.4741 79.4165C65.4741 79.4706 65.4741 79.5246 65.4741 79.6327C65.4741 79.7949 65.4201 80.0112 65.4201 80.2274C61.3114 83.4711 54.3376 87.85 46.5528 87.6338C46.3906 87.6338 46.2825 87.5257 46.2825 87.3635C46.2825 87.2013 46.3906 87.0932 46.5528 87.0932C54.4457 87.3094 61.5277 82.6602 65.4741 79.4165Z" fill="#FF7F4D"/>
</g>
<g id="Group_103">
<path id="Vector_99" d="M57.8517 66.2809C53.8512 66.1728 50.2831 61.8479 50.1209 61.6317C50.0128 61.5236 50.0669 61.3073 50.175 61.2533C50.2831 61.1451 50.4994 61.1992 50.5534 61.3073C50.6075 61.3614 54.3377 65.9025 58.176 65.7403C58.3382 65.7403 58.4463 65.8485 58.4463 66.0106C58.4463 66.1728 58.3382 66.2809 58.176 66.2809C58.122 66.2809 57.9598 66.2809 57.8517 66.2809Z" fill="#FF7F4D"/>
</g>
<g id="Group_104">
<path id="Vector_100" d="M47.4175 106.339C47.2553 106.339 47.1472 106.23 47.1472 106.068C47.1472 105.906 47.2553 105.798 47.4175 105.744C57.7432 104.825 62.5006 87.0928 62.5546 86.9306C62.6087 86.7684 62.7709 86.7144 62.879 86.7144C63.0412 86.7684 63.0952 86.9306 63.0952 87.0387C62.879 87.9037 58.1757 105.419 47.4175 106.339C47.4716 106.339 47.4716 106.339 47.4175 106.339Z" fill="#FF7F4D"/>
</g>
<g id="Group_105">
<path id="Vector_101" d="M51.6885 101.095C51.5804 101.095 51.5263 101.041 51.4723 100.933C51.4182 100.825 51.4182 100.609 51.5804 100.555C57.1487 97.3109 58.1218 92.3913 58.1218 92.3372C58.1758 92.1751 58.284 92.0669 58.4461 92.121C58.6083 92.1751 58.7165 92.2832 58.6624 92.4454C58.6083 92.6616 57.6893 97.6893 51.8507 101.095C51.7966 101.041 51.7426 101.095 51.6885 101.095Z" fill="#FF7F4D"/>
</g>
</g>
</g>
</g>
<g id="Group_106">
<path id="Vector_102" d="M49.3642 43.5754C49.3642 43.5754 44.3906 40.9805 44.0662 35.5203C43.6878 30.0601 45.0393 22.2754 52.6079 20.8698C60.1764 19.5182 66.6097 22.5997 67.4206 29.5195C67.3665 29.5195 60.0683 42.1698 49.3642 43.5754Z" fill="#133248"/>
<g id="Group_107">
<g id="Group_108">
<path id="Vector_103" d="M57.2024 47.1417L56.3374 50.7638L56.0671 52.0072C51.7963 52.5478 48.4985 49.1419 48.4985 49.1419L49.3095 43.5737C49.3635 43.5196 49.4716 43.5196 49.5798 43.4655C51.9584 42.7627 57.2024 47.1417 57.2024 47.1417Z" fill="#F9CEB0"/>
<path id="Vector_104" d="M57.2018 47.142L56.3369 50.7641C52.3363 48.7097 50.3902 45.358 49.6333 43.4118C51.9579 42.763 57.2018 47.142 57.2018 47.142Z" fill="#F9CEB0"/>
</g>
<g id="Group_109">
<path id="Vector_105" d="M65.2049 36.3275C65.2049 36.3275 67.097 34.5975 67.9079 36.4897C68.7188 38.3818 66.232 43.031 63.6912 41.3011L65.2049 36.3275Z" fill="#F9CEB0"/>
<path id="Vector_106" d="M65.2043 40.9771C65.2043 41.1933 65.3665 41.3014 65.5828 41.3014C65.799 41.3014 65.9071 41.1392 65.9071 40.923C65.9071 40.7068 65.745 40.5986 65.5287 40.5986C65.3125 40.6527 65.2043 40.8149 65.2043 40.9771Z" fill="black"/>
<g id="Group_110">
<path id="Vector_107" d="M64.5566 39.8411C64.6647 39.8411 64.7728 39.787 64.8269 39.733C65.5297 38.2733 67.2056 37.949 67.2596 37.949C67.3678 37.949 67.4759 37.7868 67.4759 37.6786C67.4759 37.5705 67.3137 37.4624 67.2056 37.4624C67.1515 37.4624 65.2594 37.8408 64.4485 39.4627C64.3944 39.5708 64.4485 39.733 64.5566 39.787C64.5025 39.8411 64.5566 39.8411 64.5566 39.8411Z" fill="#E1A549"/>
</g>
<g id="Group_111">
<g id="Group_112">
<path id="Vector_108" d="M66.2862 39.3542C66.3403 39.3542 66.3944 39.3542 66.3944 39.3542C66.5025 39.3002 66.5565 39.1921 66.5025 39.0299C66.5025 39.0299 66.2862 38.5433 65.7456 38.1649C65.6375 38.1108 65.4753 38.1108 65.4213 38.219C65.3672 38.3271 65.3672 38.4893 65.4753 38.5433C65.9078 38.8136 66.07 39.1921 66.07 39.1921C66.1781 39.3002 66.2322 39.3542 66.2862 39.3542Z" fill="#F45339"/>
</g>
</g>
</g>
<path id="Vector_109" d="M65.2035 35.5712C65.2035 35.5712 65.2035 40.5989 63.96 44.0047C62.8248 47.0862 64.5547 49.7892 64.5547 49.7892C64.5547 49.7892 63.7438 47.2484 65.0953 44.4913C66.5009 41.7342 67.7984 35.8415 67.5821 30.7598L65.2035 35.5712Z" fill="#133248"/>
<path id="Vector_110" d="M66.2313 38.9236C66.1232 39.4643 66.0151 39.9508 65.8529 40.4374C64.6095 44.546 59.8521 52.547 53.0404 47.3031C51.4186 46.0597 50.2293 44.8163 49.3643 43.5729C48.7156 42.6539 48.229 41.6808 47.7965 40.5995C47.6343 40.167 47.6343 39.7346 47.5262 39.3021C47.5262 39.248 47.5262 39.1399 47.4722 39.0858C47.4722 39.0318 47.4722 38.9777 47.4722 38.9777C47.2559 37.7343 47.1478 36.4909 47.0937 35.3016C46.9856 33.8419 46.9856 32.4363 47.0397 31.3551C47.0937 29.3008 48.2831 27.4086 50.0671 26.4355C54.9326 23.7325 60.0684 24.8678 63.4202 26.1652C65.7448 27.0843 67.2044 29.4089 67.0422 31.8957C66.9882 33.085 66.8801 34.4366 66.7179 35.7881C66.5557 36.8693 66.3935 37.9505 66.2313 38.9236Z" fill="#F9CEB0"/>
<path id="Vector_111" d="M62.0682 34.4906C62.1223 34.2744 62.2845 34.1122 62.5007 34.1662C63.0954 34.2744 63.7982 34.4365 64.3928 34.7609C65.6903 35.4096 65.8525 35.8421 65.8525 35.8421C65.8525 35.8421 65.6362 36.0043 63.9063 35.4096C63.4738 35.2475 62.8251 35.1393 62.3385 35.0312C62.1763 34.9231 62.0142 34.7069 62.0682 34.4906Z" fill="#133248"/>
<path id="Vector_112" d="M57.852 33.7876C57.906 33.5172 57.7979 33.301 57.5276 33.1929C56.8789 32.9766 56.0139 32.8145 55.1489 32.8145C53.419 32.8145 53.0405 33.1929 53.0405 33.1929C53.0405 33.1929 53.1487 33.4632 55.3652 33.7335C55.9058 33.7876 56.6626 34.0038 57.2573 34.1119C57.5276 34.166 57.7438 34.0038 57.852 33.7876Z" fill="#133248"/>
<g id="Group_113">
<path id="Vector_113" d="M59.3107 41.1925H59.3648L60.9866 40.8141L60.8244 36.9757C60.8244 36.8135 60.6622 36.6514 60.5 36.6514C60.3379 36.6514 60.1757 36.8135 60.1757 36.9757L60.2838 40.2735L59.1485 40.5438C58.9863 40.5978 58.8782 40.76 58.9323 40.9222C59.0404 41.1384 59.1485 41.2466 59.3107 41.1925Z" fill="#E1A549"/>
</g>
<path id="Vector_114" d="M50.4995 39.3563C50.4995 39.3563 49.5264 40.7619 47.7964 40.5997C47.6883 40.1672 47.6342 39.7347 47.5261 39.3022C48.337 39.5726 49.6345 39.8429 50.4995 39.3563Z" fill="#E1A549"/>
<path id="Vector_115" d="M49.3643 43.573C48.7156 42.654 48.229 41.6809 47.7965 40.5996C47.6344 40.1672 47.6344 39.7347 47.5262 39.3022C47.5262 39.2481 47.5262 39.14 47.4722 39.0859C47.6344 39.14 47.9587 39.1941 48.3912 39.4103C48.3912 39.4103 50.0671 41.8971 49.3643 43.573Z" fill="#133248"/>
<path id="Vector_116" d="M61.1494 43.411C60.6629 44.4381 59.4195 46.2221 57.0408 45.5734C54.6621 44.9247 54.4459 42.9785 54.554 41.627L61.1494 43.411Z" fill="black"/>
<path id="Vector_117" d="M56.2299 36.2733C56.1218 36.868 55.7434 37.3005 55.365 37.1924C54.9865 37.1383 54.7703 36.5977 54.8784 36.003C54.9865 35.4084 55.365 34.9759 55.7434 35.084C56.1218 35.1381 56.3381 35.6787 56.2299 36.2733Z" fill="#133248"/>
<path id="Vector_118" d="M63.5825 37.4643C63.4744 38.0589 63.0959 38.4914 62.7175 38.3833C62.3391 38.3292 62.1228 37.7886 62.231 37.194C62.3391 36.5993 62.7175 36.1668 63.0959 36.2749C63.4744 36.329 63.6906 36.8696 63.5825 37.4643Z" fill="#133248"/>
<g id="Group_114">
<path id="Vector_119" d="M48.8776 34.6533C48.8776 34.6533 47.4179 32.7071 46.3367 34.329C45.2555 35.9508 46.4448 40.4379 49.5804 39.5729L48.8776 34.6533Z" fill="#F9CEB0"/>
<path id="Vector_120" d="M47.688 38.9775C47.688 39.1938 47.8502 39.3019 48.0664 39.3019C48.2827 39.3019 48.3908 39.1397 48.3908 38.9235C48.3908 38.7072 48.2286 38.5991 48.0124 38.5991C47.7961 38.6532 47.688 38.8154 47.688 38.9775Z" fill="black"/>
<g id="Group_115">
<path id="Vector_121" d="M48.8784 38.06C48.7703 38.06 48.7163 38.0059 48.6622 37.8978C48.2297 36.4382 46.716 35.8435 46.716 35.8435C46.6079 35.7894 46.5538 35.6813 46.6079 35.5732C46.6619 35.4651 46.7701 35.411 46.8782 35.4651C46.9322 35.4651 48.6081 36.1138 49.0947 37.8437C49.1488 37.9519 49.0406 38.06 48.9325 38.114C48.8784 38.06 48.8784 38.06 48.8784 38.06Z" fill="#E1A549"/>
</g>
<g id="Group_116">
<path id="Vector_122" d="M47.3093 37.3016C47.2552 37.3016 47.2011 37.3016 47.2011 37.2476C47.093 37.1935 47.093 37.0313 47.1471 36.9232C47.1471 36.9232 47.4174 36.4907 48.0121 36.2204C48.1202 36.1664 48.2824 36.2204 48.2824 36.3286C48.3364 36.4367 48.2824 36.5989 48.1742 36.5989C47.7418 36.8151 47.5255 37.0854 47.5255 37.0854C47.4714 37.2476 47.4174 37.3016 47.3093 37.3016Z" fill="#E1A549"/>
</g>
</g>
</g>
<path id="Vector_123" d="M49.3639 34.87C48.9314 34.0591 48.3367 33.6266 46.9852 33.6807C43.255 33.8428 45.4174 25.7878 48.8773 24.4903C52.3372 23.1928 65.2037 21.4088 66.6093 28.8152C66.6093 28.8152 59.3111 34.2213 52.175 30.9235C52.175 30.9235 51.5804 31.4642 51.256 32.2751C50.9316 33.1401 50.2829 34.6538 49.3639 34.87Z" fill="#133248"/>
<path id="Vector_124" d="M52.1752 30.9776C52.1752 30.9776 49.9587 33.4103 51.094 37.519C52.2292 41.5736 52.3914 45.2497 48.499 46.8715C48.499 46.8715 50.9318 44.5469 50.7155 41.952C50.4993 39.3571 48.7153 36.0053 49.5262 33.7347C50.283 31.4101 51.4724 30.3829 52.1752 30.9776Z" fill="#133248"/>
<path id="Vector_125" d="M64.8795 29.1403C64.8795 29.1403 63.6361 33.9517 66.7716 36.1142C66.7716 36.1142 69.4747 26.3291 64.8795 29.1403Z" fill="#133248"/>
<g id="Group_117">
<path id="Vector_126" d="M44.1204 28.7088C44.1204 28.7088 42.6608 21.4646 50.3915 18.2209C55.7435 15.9504 63.3121 16.5991 66.2314 25.4651L44.1204 28.7088Z" fill="#BE4E12"/>
<path id="Vector_127" d="M44.0662 32.7634C44.0662 32.7634 47.7423 29.2494 55.5812 28.2764C63.42 27.3033 67.6368 29.4657 67.6368 29.4657C67.6368 29.4657 68.4477 27.087 67.2583 25.1408C66.069 23.1946 57.257 22.654 52.2294 23.8974C46.0664 25.4111 43.2012 28.2223 43.2012 28.2223C43.2012 28.2223 42.6065 31.3038 44.0662 32.7634Z" fill="#F7681C"/>
</g>
</g>
<g id="Group_118">
<path id="Vector_128" d="M40.2277 69.3609C40.2277 69.3609 24.6582 89.4716 20.4955 83.5249C16.3328 77.5782 8.11548 61.5221 8.11548 61.5221C9.467 60.8733 10.8726 59.9543 12.2241 58.6028C12.2241 58.6028 15.4678 62.5492 17.414 64.7657C19.3061 66.9282 24.2797 73.0371 24.4419 73.2533C24.6582 73.1452 24.8744 72.983 25.0366 72.8208C30.5508 68.7122 37.849 52.7642 37.849 52.7642C41.4171 59.6299 40.2277 69.3609 40.2277 69.3609Z" fill="#E1A549"/>
<path id="Vector_129" d="M12.1162 58.9274C12.1162 58.9274 13.5758 55.5756 12.6568 54.0619C11.7378 52.6022 11.7918 52.386 11.4134 50.9264C10.9809 49.4667 10.6025 49.0342 10.224 49.0883C8.98064 49.3045 10.17 51.7373 10.1159 52.6563C10.0078 53.5753 9.7375 53.3591 9.35907 53.0347C8.98064 52.7644 6.00729 45.6824 4.98013 45.5202C4.00703 45.3581 6.71008 50.656 6.71008 51.467C6.71008 51.6291 6.27759 51.6291 5.41262 50.2776C4.54764 48.9261 2.81769 45.8446 2.00677 46.223C1.24992 46.7096 4.872 51.7373 4.81794 52.6022C4.76388 53.1429 1.52022 48.2233 0.979611 48.872C0.439 49.5208 4.00703 53.7916 3.84485 54.4403C3.68266 55.035 1.08773 51.7913 0.655244 52.3319C0.00651193 53.1969 3.79078 56.2243 4.54764 57.5759C5.25043 58.9274 8.27785 61.6304 8.27785 61.6304C8.27785 61.6304 11.5756 59.9545 12.1162 58.9274Z" fill="#F9CEB0"/>
<g id="Group_119" opacity="0.3">
<path id="Vector_130" d="M25.5229 78.6586C25.3066 78.6586 25.1444 78.5504 25.1444 78.3883C24.9282 76.4421 24.6579 74.7121 24.4417 73.3065C24.6579 73.1984 24.8741 73.0362 25.0363 72.874C25.3066 74.3877 25.5229 76.2258 25.7932 78.2801C25.8472 78.4423 25.7391 78.6045 25.5229 78.6586Z" fill="#F7681C"/>
</g>
</g>
</g>
</g>
<g id="Group_120">
<path id="Vector_131" d="M223.333 210.727C223.333 212.782 208.79 214.457 190.896 214.457C173.002 214.457 158.459 212.782 158.459 210.727C158.459 208.673 173.002 206.997 190.896 206.997C208.79 206.997 223.333 208.673 223.333 210.727Z" fill="#E0EBF5" fill-opacity="0.15"/>
<g id="Group_121">
<path id="Vector_132" d="M185.978 18.9741C185.978 18.9741 174.842 18.4335 175.058 32.2191C175.328 48.5455 172.463 47.1399 170.084 51.3567C167.057 56.7628 167.327 63.142 174.95 65.845C178.248 67.0344 186.032 60.3308 192.141 65.2504C196.196 68.494 206.792 71.2511 207.386 59.7902C207.657 54.3841 203.44 53.8975 201.656 47.6805C200.088 42.1663 201.494 40.0038 200.304 32.9218C199.115 25.7858 196.358 18.0551 185.978 18.9741Z" fill="#133248"/>
<g id="Group_122">
<path id="Vector_133" d="M176.192 93.7412L176.138 95.2549C176.138 95.2549 174.786 95.0387 174.516 94.1196L176.192 93.7412Z" fill="#E1A549"/>
<path id="Vector_134" d="M174.787 107.365C186.086 109.689 204.304 104.445 204.304 104.445C203.493 102.121 201.98 98.9851 200.952 96.4442C199.817 93.5249 199.168 91.0381 199.168 91.0381L176.192 91.1462L176.138 94.5521L174.787 107.365Z" fill="#F9CEB0"/>
<path id="Vector_135" d="M176.192 94.5521C178.733 94.4439 193.275 93.8493 201.006 96.4442C199.871 93.5249 199.222 91.0381 199.222 91.0381L176.246 91.1462L176.192 94.5521Z" fill="#FF7F4D"/>
<path id="Vector_136" d="M174.571 94.1185C174.301 90.5505 173.814 81.1439 173.111 76.7109C172.138 70.1695 169.868 69.683 173.598 61.7901C176.463 55.6812 172.733 54.654 172.679 52.3834C172.679 50.1129 184.356 49.9507 184.356 49.9507L192.303 50.4913C192.303 50.4913 199.115 51.0319 203.494 53.1943C203.494 53.1943 202.088 60.2763 202.412 63.6281C202.737 66.9799 203.926 70.602 201.385 76.1162C199.277 80.7114 200.574 89.4152 201.439 93.6861C191.816 91.7399 184.302 91.7399 174.571 94.1185Z" fill="#E1A549"/>
<g id="Group_123">
<path id="Vector_137" d="M188.031 55.9519C187.761 55.9519 187.491 55.9519 187.22 55.8978C182.517 55.3032 182.463 50.0592 182.463 50.0052C182.463 49.843 182.571 49.7349 182.733 49.7349C182.896 49.7349 183.004 49.843 183.004 50.0052C183.004 50.2214 183.004 54.8166 187.22 55.3572C188.68 55.5194 189.924 55.195 190.897 54.3301C192.194 53.1948 192.627 51.3567 192.627 50.4917C192.627 50.3295 192.735 50.2214 192.897 50.2214C193.059 50.2214 193.167 50.3295 193.167 50.4917C193.167 51.4648 192.681 53.4651 191.221 54.7625C190.41 55.5735 189.329 55.9519 188.031 55.9519Z" fill="white" fill-opacity="0.15"/>
</g>
<path id="Vector_138" d="M201.493 93.7404C201.493 93.7404 201.277 94.4432 200.358 94.6594L199.925 93.416C199.925 93.4701 201.006 93.5241 201.493 93.7404Z" fill="#E1A549"/>
<g id="Group_124">
<path id="Vector_139" d="M187.437 60.0065C191.978 59.5199 195.817 57.1412 196.033 56.979C196.195 56.8709 196.249 56.6547 196.141 56.4925C196.033 56.3303 195.817 56.2763 195.654 56.3844C195.6 56.4384 189.816 60.0605 184.248 59.2496C184.031 59.2496 183.869 59.3577 183.869 59.574C183.869 59.7902 183.977 59.9524 184.194 59.9524C185.275 60.1686 186.356 60.1146 187.437 60.0065Z" fill="#E1A549"/>
</g>
<g id="Group_125">
<path id="Vector_140" d="M187.004 58.0615C188.896 57.8452 190.464 57.1965 190.572 57.1425C190.734 57.0884 190.842 56.8721 190.734 56.6559C190.68 56.4937 190.464 56.3856 190.248 56.4937C190.194 56.4937 186.842 57.9534 184.031 57.1425C183.869 57.0884 183.652 57.1965 183.598 57.3587C183.544 57.5209 183.652 57.7371 183.815 57.7912C184.95 58.1696 186.031 58.1696 187.004 58.0615Z" fill="#E1A549"/>
</g>
<g id="Group_126">
<path id="Vector_141" d="M193.546 78.0095C193.708 78.0095 193.87 77.7933 193.87 77.6311C193.87 77.4148 193.708 77.3067 193.492 77.3067C193.384 77.3067 185.004 77.9554 178.679 76.2255C178.517 76.1714 178.301 76.2795 178.247 76.4417C178.193 76.6039 178.301 76.8202 178.463 76.8742C184.896 78.6582 193.438 78.0095 193.546 78.0095Z" fill="#E1A549"/>
</g>
</g>
<path id="Vector_142" d="M186.357 98.4439C186.411 99.1467 186.681 99.6874 186.897 99.6874C187.167 99.6874 187.276 99.0927 187.221 98.3899C187.167 97.6871 186.897 97.1465 186.681 97.1465C186.411 97.2005 186.302 97.7412 186.357 98.4439Z" fill="#E1A549"/>
<g id="Group_127">
<g id="Group_128">
<g id="Group_129">
<path id="Vector_143" d="M179.221 36.0598C179.221 36.0598 177.437 33.8973 176.247 35.8435C175.112 37.7897 177.166 43.1418 180.194 41.628L179.221 36.0598Z" fill="#F9CEB0"/>
<path id="Vector_144" d="M179.166 41.5742C179.166 41.8986 178.95 42.1689 178.572 42.223C178.247 42.223 177.923 42.0067 177.923 41.6283C177.923 41.3039 178.139 41.0336 178.518 40.9796C178.896 40.9255 179.166 41.2499 179.166 41.5742Z" fill="white" fill-opacity="0.15"/>
<g id="Group_130">
<path id="Vector_145" d="M179.437 40.0065C179.329 40.0065 179.221 39.9524 179.167 39.8443C178.572 38.1684 176.788 37.5737 176.788 37.5737C176.626 37.5197 176.572 37.4115 176.626 37.2494C176.68 37.0872 176.788 37.0331 176.951 37.0872C177.059 37.0872 179.005 37.7359 179.654 39.6821C179.708 39.8443 179.654 39.9524 179.491 40.0065H179.437Z" fill="#E1A549"/>
</g>
<g id="Group_131">
<path id="Vector_146" d="M177.599 39.2498C177.545 39.2498 177.491 39.2498 177.437 39.1958C177.329 39.1417 177.275 38.9795 177.329 38.8173C177.329 38.8173 177.599 38.3308 178.248 37.9524C178.356 37.8983 178.518 37.9524 178.572 38.0605C178.626 38.1686 178.572 38.3308 178.464 38.3848C177.977 38.6552 177.761 39.0336 177.761 39.0336C177.761 39.1958 177.707 39.2498 177.599 39.2498Z" fill="#E1A549"/>
</g>
</g>
<path id="Vector_147" d="M191.655 45.52L191.98 50.9802C191.98 50.9802 191.331 53.1967 187.871 53.1967C185.655 53.1967 184.033 51.2505 184.033 51.2505L183.762 46.4391L191.655 45.52Z" fill="#F9CEB0"/>
<path id="Vector_148" d="M191.655 45.52L191.818 47.9528C190.466 49.6827 187.871 50.3855 183.979 50.0611L183.762 46.385L191.655 45.52Z" fill="#F9CEB0"/>
<path id="Vector_149" d="M196.574 31.2482C196.574 33.3566 196.574 36.0056 196.25 38.1681C196.196 38.7087 196.088 39.1952 195.98 39.6818C195.061 43.7363 191.493 51.413 184.194 47.899C182.086 46.8719 179.599 43.3579 178.626 39.3574C177.977 36.6544 177.707 33.7351 177.599 31.7348C177.545 29.7345 177.923 28.1668 179.599 27.0855C184.194 24.1122 189.222 24.815 192.574 25.8962C194.952 26.599 196.52 28.7614 196.574 31.2482Z" fill="#F9CEB0"/>
<path id="Vector_150" d="M183.383 37.0335C183.437 37.6282 183.167 38.1147 182.789 38.1147C182.41 38.1147 182.086 37.6822 182.032 37.0876C181.978 36.4929 182.248 36.0063 182.626 36.0063C183.005 36.0063 183.329 36.4388 183.383 37.0335Z" fill="#133248"/>
<path id="Vector_151" d="M191.655 36.5467C191.709 37.1414 191.439 37.6279 191.06 37.6279C190.682 37.6279 190.357 37.1954 190.303 36.6008C190.249 36.0061 190.52 35.5195 190.898 35.5195C191.276 35.5195 191.601 35.952 191.655 36.5467Z" fill="#133248"/>
<path id="Vector_152" d="M181.221 34.0053C181.761 33.7891 182.897 33.4647 184.032 33.4106C184.356 33.4106 184.572 33.6809 184.572 33.9513C184.518 34.2216 184.356 34.3837 184.086 34.3837C183.275 34.3837 181.167 34.654 180.194 35.0865C180.139 34.9244 180.248 34.7081 180.41 34.5459C180.572 34.2756 180.896 34.1134 181.221 34.0053Z" fill="#133248"/>
<path id="Vector_153" d="M192.034 33.4107C191.493 33.3026 190.358 33.0863 189.168 33.1404C188.844 33.1404 188.628 33.4647 188.682 33.735C188.736 33.9513 188.952 34.1135 189.222 34.1135C190.033 34.0053 192.142 34.0053 193.169 34.3838C193.169 34.2216 193.061 34.0053 192.899 33.8432C192.682 33.6269 192.358 33.4647 192.034 33.4107Z" fill="#133248"/>
<g id="Group_132">
<path id="Vector_154" d="M187.275 41.1414C187.059 41.1414 186.897 41.1414 186.681 41.0333C186.519 40.9252 186.302 40.763 186.248 40.4387C186.086 39.5196 186.14 36.4922 186.194 36.3841C186.194 36.2219 186.302 36.1138 186.465 36.1138C186.627 36.1138 186.735 36.2219 186.735 36.3841C186.735 36.4381 186.681 39.4656 186.789 40.3305C186.789 40.4927 186.897 40.5468 186.951 40.5468C187.221 40.6549 187.762 40.4927 187.978 40.3846C188.086 40.3305 188.249 40.3846 188.303 40.4927C188.357 40.6008 188.303 40.763 188.194 40.8171C188.14 40.9252 187.708 41.0874 187.275 41.1414Z" fill="#E1A549"/>
</g>
<path id="Vector_155" d="M184.032 42.7095C184.303 43.6826 185.06 45.4666 187.222 45.3044C189.439 45.1963 189.925 43.4663 190.087 42.3311L184.032 42.7095Z" fill="white" fill-opacity="0.15"/>
<g id="Group_133">
<path id="Vector_156" d="M187.33 46.7649C186.681 46.8189 186.14 46.4946 186.086 46.4946C185.978 46.4405 185.924 46.2783 185.978 46.1702C186.032 46.0621 186.194 46.008 186.303 46.0621C186.303 46.0621 186.789 46.3324 187.276 46.2783C187.816 46.2243 188.249 45.954 188.249 45.954C188.357 45.8999 188.519 45.8999 188.627 46.008C188.681 46.1161 188.681 46.2783 188.573 46.3865C188.573 46.3324 188.033 46.7108 187.33 46.7649Z" fill="#E1A549"/>
</g>
<g id="Group_134">
<path id="Vector_157" d="M195.547 35.0334C195.547 35.0334 197.115 32.7088 198.467 34.4928C199.818 36.2768 198.358 41.8451 195.223 40.7098L195.547 35.0334Z" fill="#F9CEB0"/>
<path id="Vector_158" d="M197.17 40.6562C197.17 40.9806 196.953 41.2509 196.575 41.3049C196.251 41.3049 195.98 41.0887 195.926 40.7103C195.926 40.3859 196.143 40.0615 196.521 40.0615C196.845 40.1156 197.17 40.3318 197.17 40.6562Z" fill="white" fill-opacity="0.15"/>
<g id="Group_135">
<path id="Vector_159" d="M195.817 38.9253C195.925 38.9253 196.034 38.8172 196.034 38.7091C196.412 36.9791 198.142 36.2222 198.142 36.2222C198.25 36.1682 198.304 36.006 198.25 35.8979C198.196 35.7898 198.034 35.7357 197.926 35.7898C197.872 35.8438 195.98 36.7088 195.547 38.655C195.493 38.8172 195.601 38.9253 195.763 38.9794C195.763 38.9253 195.763 38.9253 195.817 38.9253Z" fill="#E1A549"/>
</g>
<g id="Group_136">
<path id="Vector_160" d="M197.547 38.0061C197.601 38.0061 197.655 38.0061 197.709 37.9521C197.817 37.844 197.872 37.6818 197.763 37.5737C197.763 37.5737 197.439 37.0871 196.736 36.8709C196.628 36.8168 196.466 36.8709 196.412 37.033C196.358 37.1412 196.412 37.3033 196.574 37.3574C197.115 37.5736 197.331 37.898 197.331 37.898C197.331 37.9521 197.439 38.0061 197.547 38.0061Z" fill="#E1A549"/>
</g>
</g>
</g>
<path id="Vector_161" d="M197.007 31.2466C197.061 31.8413 196.952 32.8685 196.844 33.5172C196.466 35.9499 195.709 36.8149 195.439 35.8959C195.277 35.3012 195.385 32.5441 195.385 31.4088C194.628 31.4088 193.979 31.3007 193.979 31.3007L192.898 27.7327L192.79 31.3548C191.492 31.8954 188.465 31.3548 188.465 31.3548L187.221 27.8408L186.789 31.3007C184.897 32.3819 182.41 31.8954 182.41 31.8954L181.653 28.2192L180.572 32.0035C180.572 32.0035 179.491 32.49 178.41 32.7063C178.464 33.7875 178.68 36.3824 178.572 36.9771C178.464 37.788 177.923 36.7609 177.653 35.139C177.49 34.1119 177.328 33.301 177.274 32.8685C176.788 32.8685 176.409 32.7063 176.355 32.2738C176.301 31.4088 176.788 28.922 177.22 26.9758C177.707 24.8674 178.95 23.0294 180.734 21.9481C185.708 18.8667 191.222 20.4885 193.168 21.5156C197.277 23.6781 197.601 30.706 197.601 30.706C197.493 30.9763 197.277 31.1385 197.007 31.2466Z" fill="#133248"/>
<g id="Group_137">
<g id="Group_138">
<path id="Vector_162" d="M182.572 40.9265C180.842 40.9805 179.382 39.629 179.328 37.899C179.274 36.1691 180.626 34.7094 182.356 34.6554C184.086 34.6013 185.545 35.9528 185.599 37.6828C185.653 39.4128 184.302 40.8724 182.572 40.9265ZM182.356 35.0879C180.896 35.1419 179.761 36.3853 179.761 37.845C179.815 39.3046 181.058 40.4399 182.518 40.4399C183.977 40.3858 185.113 39.1424 185.113 37.6828C185.059 36.2231 183.869 35.0879 182.356 35.0879Z" fill="#234763"/>
</g>
<g id="Group_139">
<path id="Vector_163" d="M191.168 40.654C189.438 40.7081 187.979 39.3565 187.925 37.6266C187.871 35.8966 189.222 34.437 190.952 34.3829C192.682 34.3289 194.142 35.6804 194.196 37.4103C194.304 39.1403 192.898 40.5999 191.168 40.654ZM191.006 34.8154C189.546 34.8695 188.411 36.1129 188.411 37.5725C188.465 39.0322 189.709 40.1674 191.168 40.1674C192.628 40.1134 193.763 38.87 193.763 37.4103C193.709 35.9507 192.466 34.7613 191.006 34.8154Z" fill="#234763"/>
</g>
<g id="Group_140">
<path id="Vector_164" d="M177.653 35.3022C178.734 35.5726 179.923 36.3835 179.977 36.3835C180.086 36.4916 180.086 36.6538 179.977 36.7078C179.923 36.7619 179.869 36.7619 179.815 36.7619C179.761 36.7619 179.707 36.7619 179.653 36.7078C179.653 36.7078 178.734 36.1132 177.815 35.8429C177.653 35.8429 177.599 35.5726 177.653 35.3022Z" fill="#234763"/>
</g>
<g id="Group_141">
<path id="Vector_165" d="M193.601 35.9521C193.655 35.8981 195.817 33.8438 196.898 33.4653C196.898 33.5735 196.952 33.8438 196.79 33.9519C195.925 34.3303 193.871 36.3306 193.871 36.3306C193.817 36.3846 193.763 36.3846 193.763 36.3846C193.709 36.3846 193.601 36.3306 193.547 36.2765C193.438 36.1684 193.438 36.0062 193.601 35.9521Z" fill="#234763"/>
</g>
<g id="Group_142">
<path id="Vector_166" d="M188.086 36.8695C188.086 36.8695 187.491 36.1126 186.681 36.1126C185.924 36.1126 185.437 36.9235 185.437 36.9235L185.005 36.6532C185.005 36.5992 185.653 35.6261 186.681 35.572C187.708 35.5179 188.41 36.491 188.465 36.491L188.086 36.8695Z" fill="#234763"/>
</g>
</g>
</g>
<g id="Group_143">
<g id="Group_144">
<path id="Vector_167" d="M218.09 86.3324C218.09 93.3063 198.628 89.0355 192.519 85.6296L193.6 81.6291C193.6 81.6291 207.656 81.5751 209.17 82.2238C209.17 82.2238 209.17 82.2238 209.17 82.1697C209.062 81.8454 209.008 81.5751 208.9 81.2507C207.44 77.0339 204.088 72.4928 202.034 68.0598C200.953 62.1131 201.223 55.1392 203.547 53.2471C203.547 53.2471 218.036 75.6283 218.09 86.3324Z" fill="#E1A549"/>
<g id="Group_145">
<path id="Vector_168" d="M212.522 83.6287C212.414 83.7909 212.197 83.8449 212.035 83.7368C211.981 83.7368 210.9 83.034 209.17 82.169C209.062 81.8447 209.008 81.5744 208.9 81.25C211.008 82.2772 212.414 83.1421 212.414 83.1421C212.576 83.2503 212.63 83.4665 212.522 83.6287Z" fill="#E1A549"/>
</g>
</g>
<g id="Group_146">
<path id="Vector_169" d="M184.626 84.3328L189.978 84.7112C190.465 84.7653 190.897 84.4409 191.06 84.0084L194.033 75.5749C194.249 74.9261 193.763 73.5206 193.06 73.4665L183.113 72.9259C182.464 72.8718 181.869 74.2234 182.031 74.8721L183.707 83.4137C183.761 83.9543 184.194 84.3328 184.626 84.3328Z" fill="#335464"/>
<path id="Vector_170" d="M184.626 85.2517L189.978 85.6302C190.464 85.6842 190.897 85.3599 191.059 84.9274L194.032 75.7911C194.249 75.1423 193.762 74.4395 193.113 74.4395L183.166 73.8989C182.517 73.8449 181.977 74.4395 182.085 75.1423L183.707 84.4408C183.761 84.8733 184.139 85.2517 184.626 85.2517Z" fill="#133248"/>
</g>
<g id="Group_147">
<path id="Vector_171" d="M192.736 80.8739C192.304 80.8198 189.871 79.7926 190.466 79.1439C190.952 78.6033 193.006 78.8736 193.006 78.8736C193.006 78.8736 193.115 78.5492 193.223 78.2789L193.331 77.9546L193.871 76.2246C194.304 76.3868 194.52 76.7112 194.628 76.9815C194.953 77.9005 194.358 79.4683 194.358 79.4683C194.358 79.4683 196.574 80.4414 196.25 81.3063C195.926 82.2254 194.899 82.0091 194.899 82.0091C194.899 82.0091 195.818 82.8201 195.277 83.4688C194.736 84.1716 193.655 83.5769 193.655 83.5769C193.655 83.5769 194.52 84.9825 193.925 85.3609C193.331 85.7934 192.574 85.5772 192.574 85.5772C192.574 85.5772 193.223 86.5503 192.195 86.9287C191.168 87.2531 189.925 86.4962 189.222 85.9556C188.519 85.415 188.952 84.8744 191.168 85.2528C191.168 85.2528 189.006 84.1716 188.898 83.7932C188.681 82.8201 190.79 82.6579 192.087 82.8741C191.114 82.6579 188.627 82.0091 189.006 81.0901C189.276 80.2792 192.304 80.8198 192.736 80.8739Z" fill="#F9CEB0"/>
</g>
<g id="Group_148">
<path id="Vector_172" d="M183.059 84.5496C181.005 85.6309 177.599 86.4958 174.031 86.9283C166.895 87.7933 158.948 86.8202 159.056 82.1709C159.326 71.629 172.355 52.5996 172.788 52.0049C172.733 52.113 172.679 52.2211 172.679 52.3833C172.679 54.6539 176.464 55.7351 173.598 61.7899C171.274 66.7635 171.274 68.7638 171.868 71.2506C170.679 73.6834 169.49 76.008 168.138 78.5489C167.976 78.8732 167.814 79.1976 167.652 79.5219C167.814 79.4679 168.084 79.4138 168.463 79.4138C169.544 79.3598 171.436 79.4679 173.49 79.6301C177.545 79.9544 182.14 80.5491 182.14 80.5491L183.059 84.5496Z" fill="#E1A549"/>
<g id="Group_149">
<path id="Vector_173" d="M168.463 79.413C167.598 79.8995 166.733 80.4401 165.868 81.0889C165.652 81.251 165.382 81.197 165.274 80.9807C165.111 80.7645 165.165 80.4942 165.382 80.3861C166.301 79.6833 167.22 79.1427 168.139 78.6561C168.139 78.6561 168.193 78.6561 168.193 78.6021C168.031 78.9264 167.868 79.2508 167.706 79.5752C167.814 79.467 168.085 79.413 168.463 79.413Z" fill="#E1A549"/>
</g>
</g>
<g id="Group_150">
<g id="Group_151">
<path id="Vector_174" d="M182.518 80.4945C182.951 80.5486 185.492 79.8999 185.005 79.143C184.627 78.5483 182.627 78.4402 182.627 78.4402C182.627 78.4402 182.572 78.1158 182.518 77.7915L182.464 77.4671L182.194 75.6831C181.762 75.7372 181.437 76.0615 181.329 76.2778C180.843 77.0887 181.167 78.7646 181.167 78.7646C181.167 78.7646 178.842 79.3593 179.004 80.2783C179.167 81.1973 180.248 81.1973 180.248 81.1973C180.248 81.1973 179.221 81.8461 179.653 82.6029C180.086 83.3598 181.221 82.9813 181.221 82.9813C181.221 82.9813 180.14 84.2247 180.626 84.7113C181.113 85.1978 181.924 85.1438 181.924 85.1438C181.924 85.1438 181.113 86.0088 182.086 86.5494C183.059 87.0359 184.356 86.4953 185.167 86.0628C185.924 85.6844 185.6 85.0357 183.329 85.0897C183.329 85.0897 185.654 84.3869 185.816 84.0085C186.195 83.0354 184.14 82.5489 182.789 82.6029C183.816 82.5489 186.357 82.3326 186.14 81.3055C186.032 80.4945 182.951 80.5486 182.518 80.4945Z" fill="#F9CEB0"/>
</g>
</g>
</g>
<g id="Group_152">
<g id="Group_153">
<g id="Group_154">
<path id="Vector_175" d="M213.333 204.192L207.764 205.219L207.224 199.813C207.224 199.813 196.952 153.266 195.655 144.617C195.33 142.454 194.898 139.643 194.465 136.616C193.114 127.425 191.492 116.289 191.492 116.289C191.492 116.289 187.654 117.154 186.519 116.829C186.519 116.829 172.463 115.91 175.544 100.557C175.544 100.557 191.546 103.314 202.088 98.9351C202.088 98.9351 205.44 104.557 207.224 112.126C207.386 112.883 207.548 113.64 207.71 114.451C207.873 115.153 207.981 115.91 208.089 116.667C209.008 122.992 208.846 130.29 208.521 137.535C208.413 140.021 208.305 142.508 208.197 144.995C208.197 144.995 210.954 152.78 211.008 157.159C211.008 161.592 213.225 200.354 213.225 200.354L213.333 204.192Z" fill="#3D1500"/>
<path id="Vector_176" d="M213.333 204.193L207.765 205.22L207.224 199.814C207.224 199.814 203.71 183.974 200.521 169.053C198.25 158.403 196.142 148.24 195.601 144.618C195.277 142.455 194.844 139.644 194.412 136.617C197.439 136.779 203.386 137.157 208.467 137.536C208.359 140.023 208.251 142.509 208.143 144.996C208.143 144.996 210.9 152.781 210.954 157.16C210.954 158.403 211.116 162.458 211.387 167.648C212.036 180.568 213.171 200.355 213.171 200.355L213.333 204.193Z" fill="#F9CEB0"/>
<g id="Group_155">
<path id="Vector_177" d="M213.332 204.193L207.764 205.22L207.223 199.814C207.223 199.814 204.683 188.299 201.925 175.649C201.817 175.108 201.709 174.568 201.547 173.973C201.493 173.649 201.385 173.324 201.331 172.946C201.223 172.405 201.115 171.811 200.952 171.27C200.79 170.513 200.628 169.81 200.466 169.054C202.953 169.054 207.223 168.891 211.332 167.648C211.386 168.351 211.386 169.054 211.44 169.81C211.494 170.351 211.494 170.946 211.548 171.54C211.548 171.865 211.602 172.189 211.602 172.513C211.656 173.054 211.656 173.649 211.711 174.243C212.359 186.353 213.17 200.409 213.17 200.409L213.332 204.193Z" fill="#E1A549"/>
<g id="Group_156">
<path id="Vector_178" d="M211.602 171.54C209.818 172.027 208.034 172.351 206.304 172.621C204.412 172.892 202.736 173 201.331 173C201.223 172.459 201.115 171.864 200.952 171.324C203.547 171.27 207.656 170.945 211.44 169.81C211.548 170.405 211.602 170.945 211.602 171.54Z" fill="#FF7F4D"/>
</g>
<g id="Group_157">
<path id="Vector_179" d="M211.764 174.244C209.98 174.73 208.196 175.055 206.52 175.271C204.844 175.487 203.276 175.595 201.979 175.649C201.871 175.109 201.763 174.568 201.601 173.973C204.196 173.865 208.034 173.541 211.656 172.514C211.71 173.108 211.71 173.649 211.764 174.244Z" fill="#FF7F4D"/>
</g>
</g>
<g id="Group_158">
<path id="Vector_180" d="M206.63 137.428C206.9 137.428 207.17 137.483 207.441 137.483C208.035 130.076 208.089 121.913 208.089 116.669C207.981 115.912 207.873 115.155 207.711 114.453C207.549 113.642 207.386 112.885 207.224 112.128C207.278 115.101 207.441 127.103 206.63 137.428Z" fill="#E1A549"/>
</g>
</g>
<g id="Group_159">
<path id="Vector_181" d="M192.141 117.909C191.006 118.288 187.492 118.18 187.492 118.18C187.492 118.18 186.303 128.83 185.276 137.912C184.897 141.21 184.573 144.291 184.302 146.616C183.275 155.32 174.842 200.515 174.842 200.515C174.571 203.758 173.382 202.677 171.166 202.569L168.895 202.839V201.488C168.895 201.488 169.49 164.132 169.382 159.699C169.273 155.32 171.76 147.427 171.76 147.427C171.544 144.67 171.328 141.859 171.112 138.993C170.517 131.209 170.192 123.478 171.22 116.828C171.22 116.666 171.274 116.504 171.274 116.342C171.544 114.774 171.814 113.26 172.139 111.963C173.49 106.07 175.112 102.935 175.112 102.935C185.762 106.989 203.278 103.691 203.278 103.691C206.9 118.937 192.141 117.909 192.141 117.909Z" fill="#3D1500"/>
</g>
<path id="Vector_182" d="M185.221 137.911C184.842 141.209 184.518 144.29 184.248 146.615C183.869 150.075 182.302 159.265 180.518 169.05C177.869 184.025 174.787 200.46 174.787 200.46C174.517 203.703 173.327 202.622 171.111 202.514L168.84 202.784V201.433C168.84 201.433 169.165 181.484 169.273 168.996C169.327 164.401 169.327 160.833 169.327 159.644C169.219 155.265 171.706 147.372 171.706 147.372C171.489 144.615 171.273 141.804 171.057 139.046C171.543 139.479 181.599 139.371 185.221 137.911Z" fill="#F9CEB0"/>
<g id="Group_160">
<path id="Vector_183" d="M180.518 169.051C180.409 169.7 180.301 170.294 180.193 170.943C180.085 171.538 179.977 172.078 179.869 172.673C179.815 172.997 179.761 173.322 179.707 173.646C179.598 174.241 179.49 174.781 179.382 175.376C177.058 188.297 174.787 200.46 174.787 200.46C174.517 203.704 173.327 202.623 171.111 202.515L168.84 202.785V201.433C168.84 201.433 169.057 187.323 169.219 175.43C169.219 174.889 169.219 174.295 169.219 173.754C169.219 173.43 169.219 173.051 169.219 172.727C169.219 172.132 169.219 171.592 169.219 171.051C169.219 170.348 169.219 169.7 169.219 169.051C171.868 169.375 176.409 169.808 180.518 169.051Z" fill="#E1A549"/>
<g id="Group_161">
<path id="Vector_184" d="M180.193 170.943C180.085 171.538 179.977 172.078 179.868 172.673C178.084 172.943 176.3 172.997 174.625 172.997C172.57 172.997 170.678 172.835 169.272 172.727C169.272 172.132 169.272 171.592 169.272 171.051C171.867 171.321 176.138 171.592 180.193 170.943Z" fill="#FF7F4D"/>
</g>
<g id="Group_162">
<path id="Vector_185" d="M179.706 173.646C179.598 174.241 179.49 174.781 179.382 175.376C177.706 175.592 175.976 175.7 174.408 175.7C172.408 175.7 170.624 175.592 169.219 175.43C169.219 174.889 169.219 174.295 169.219 173.754C171.759 174.024 175.814 174.241 179.706 173.646Z" fill="#FF7F4D"/>
</g>
</g>
<g id="Group_163">
<path id="Vector_186" d="M172.949 139.262C172.57 139.262 172.246 139.262 171.976 139.208C171.381 131.315 171.273 121.746 171.273 116.34C171.543 114.772 171.813 113.258 172.138 111.961C172.084 114.718 172.084 128.396 172.949 139.262Z" fill="#E1A549"/>
</g>
</g>
<g id="Group_164">
<g id="Group_165">
<g id="Group_166">
<g id="Group_167">
<path id="Vector_187" d="M215.335 210.782C215.659 210.566 215.821 210.025 215.821 209.376C215.875 208.295 215.497 206.781 215.064 205.646C214.848 204.295 214.091 201.213 213.226 200.348L213.28 202.943C212.577 202.294 211.496 201.646 209.82 201.7C209.118 201.7 208.253 202.024 207.604 202.402L207.334 200.402C207.334 200.402 206.793 202.024 206.36 203.376C204.901 204.781 203.765 206.835 203.387 208.619C203.333 208.836 203.279 209.106 203.279 209.322C202.792 212.296 214.091 211.593 215.335 210.782Z" fill="#3D1500"/>
<path id="Vector_188" d="M215.335 210.782C215.659 210.565 215.821 210.025 215.821 209.376C214.524 209.863 212.145 210.565 209.496 210.457C205.009 210.241 203.874 209.376 203.333 208.619C203.279 208.835 203.225 209.106 203.225 209.322C202.793 212.295 214.091 211.592 215.335 210.782Z" fill="#B96C43"/>
</g>
<g id="Group_168">
<g id="Group_169">
<path id="Vector_189" d="M207.171 204.834C207.063 204.834 206.955 204.726 206.847 204.618C206.685 204.402 206.739 204.131 206.955 203.969C207.009 203.915 208.739 202.78 210.253 202.78C212.307 202.78 213.118 204.348 213.172 204.402C213.28 204.618 213.226 204.888 212.956 205.05C212.74 205.158 212.469 205.104 212.307 204.834C212.307 204.78 211.712 203.699 210.253 203.753C209.009 203.753 207.442 204.78 207.442 204.78C207.388 204.834 207.279 204.834 207.171 204.834Z" fill="white" fill-opacity="0.15"/>
</g>
</g>
<g id="Group_170">
<g id="Group_171">
<path id="Vector_190" d="M207.387 203.213C207.279 203.213 207.171 203.105 207.063 202.997C206.901 202.781 206.955 202.511 207.171 202.349C207.225 202.294 208.955 201.159 210.469 201.159C212.523 201.159 213.334 202.727 213.388 202.781C213.496 202.997 213.442 203.268 213.172 203.43C212.955 203.538 212.631 203.484 212.523 203.213C212.523 203.159 211.928 202.078 210.469 202.132C209.225 202.132 207.657 203.159 207.657 203.159C207.657 203.213 207.495 203.213 207.387 203.213Z" fill="white" fill-opacity="0.15"/>
</g>
</g>
</g>
</g>
</g>
<g id="Group_172">
<g id="Group_173">
<g id="Group_174">
<g id="Group_175">
<path id="Vector_191" d="M166.786 210.833C166.462 210.617 166.3 210.076 166.3 209.428C166.246 208.346 166.624 206.833 167.057 205.697C167.273 204.346 167.976 201.535 168.841 200.67L168.787 202.994C169.489 202.346 170.571 201.697 172.247 201.751C172.949 201.751 173.598 202.129 174.247 202.454L174.733 200.399C174.733 200.399 175.328 202.021 175.706 203.373C177.166 204.778 178.301 206.833 178.68 208.617C178.734 208.833 178.788 209.103 178.788 209.319C179.329 212.347 168.03 211.644 166.786 210.833Z" fill="#3D1500"/>
<path id="Vector_192" d="M166.786 210.833C166.462 210.617 166.3 210.076 166.3 209.427C167.597 209.914 169.976 210.617 172.625 210.508C177.112 210.292 178.247 209.427 178.788 208.67C178.842 208.887 178.896 209.157 178.896 209.373C179.329 212.347 168.03 211.644 166.786 210.833Z" fill="#B96C43"/>
</g>
<g id="Group_176">
<g id="Group_177">
<path id="Vector_193" d="M174.949 204.941C175.057 204.941 175.165 204.833 175.274 204.725C175.436 204.509 175.382 204.238 175.165 204.076C175.111 204.022 173.381 202.887 171.868 202.887C169.813 202.887 169.003 204.454 168.948 204.509C168.84 204.725 168.894 204.995 169.165 205.157C169.381 205.265 169.705 205.211 169.813 204.941C169.813 204.887 170.408 203.806 171.868 203.86C173.111 203.86 174.679 204.887 174.679 204.887C174.733 204.887 174.841 204.941 174.949 204.941Z" fill="white" fill-opacity="0.15"/>
</g>
</g>
<g id="Group_178">
<g id="Group_179">
<path id="Vector_194" d="M174.734 203.267C174.842 203.267 174.95 203.159 175.058 203.051C175.22 202.835 175.166 202.564 174.95 202.402C174.896 202.348 173.166 201.213 171.652 201.213C169.598 201.213 168.787 202.781 168.733 202.835C168.625 203.051 168.679 203.321 168.949 203.483C169.166 203.592 169.49 203.538 169.598 203.267C169.598 203.213 170.193 202.132 171.652 202.186C172.896 202.186 174.464 203.213 174.464 203.213C174.464 203.267 174.572 203.321 174.734 203.267Z" fill="white" fill-opacity="0.15"/>
</g>
</g>
</g>
</g>
</g>
</g>
</g>
</g>
<g id="Group_180">
<g id="Group_181">
<g id="Group_182">
<g id="Group_183">
<g id="Group_184">
<g id="Group_185">
<path id="Vector_195" d="M229.928 117.802C231.28 117.802 232.361 118.883 232.361 120.235C232.361 121.586 231.28 122.667 229.928 122.667C228.577 122.667 227.495 121.586 227.495 120.235C227.495 118.883 228.577 117.802 229.928 117.802ZM229.928 118.559C229.009 118.559 228.252 119.315 228.252 120.235C228.252 121.154 229.009 121.91 229.928 121.91C230.847 121.91 231.604 121.154 231.604 120.235C231.604 119.315 230.901 118.559 229.928 118.559Z" fill="#FFC149"/>
</g>
</g>
<g id="Group_186">
<path id="Vector_196" d="M227.441 105.365C228.793 105.365 229.874 106.446 229.874 107.798C229.874 109.15 228.793 110.231 227.441 110.231C226.09 110.231 225.008 109.15 225.008 107.798C225.008 106.446 226.09 105.365 227.441 105.365ZM227.441 106.122C226.522 106.122 225.765 106.879 225.765 107.798C225.765 108.717 226.522 109.474 227.441 109.474C228.36 109.474 229.117 108.717 229.117 107.798C229.117 106.879 228.36 106.122 227.441 106.122Z" fill="#FA6634"/>
</g>
<g id="Group_187">
<g id="Group_188">
<g id="Group_189">
<path id="Vector_197" d="M220.034 101.907C220.034 102.123 220.196 102.285 220.413 102.285H222.088C222.305 102.285 222.467 102.123 222.467 101.907C222.467 101.691 222.305 101.528 222.088 101.528H220.413C220.196 101.528 220.034 101.691 220.034 101.907Z" fill="#9D2CFF"/>
</g>
<g id="Group_190">
<path id="Vector_198" d="M217.061 101.907C217.061 102.123 217.223 102.285 217.439 102.285H219.115C219.332 102.285 219.494 102.123 219.494 101.907C219.494 101.691 219.332 101.528 219.115 101.528H217.439C217.223 101.528 217.061 101.691 217.061 101.907Z" fill="#9D2CFF"/>
</g>
</g>
<g id="Group_191">
<g id="Group_192">
<path id="Vector_199" d="M219.385 99.5293V101.043C219.385 101.259 219.547 101.421 219.763 101.421C219.98 101.421 220.142 101.259 220.142 101.043V99.5293C220.142 99.3131 219.98 99.1509 219.763 99.1509C219.547 99.1509 219.385 99.3131 219.385 99.5293Z" fill="#9D2CFF"/>
</g>
<g id="Group_193">
<path id="Vector_200" d="M219.385 102.772V104.286C219.385 104.502 219.547 104.665 219.764 104.665C219.98 104.665 220.142 104.502 220.142 104.286V102.772C220.142 102.556 219.98 102.394 219.764 102.394C219.547 102.394 219.385 102.556 219.385 102.772Z" fill="#9D2CFF"/>
</g>
</g>
</g>
<g id="Group_194">
<g id="Group_195">
<g id="Group_196">
<g id="Group_197">
<g id="Group_198">
<path id="Vector_201" d="M222.792 114.991C222.792 115.207 222.955 115.37 223.171 115.37H224.847C225.063 115.37 225.225 115.207 225.225 114.991C225.225 114.775 225.063 114.613 224.847 114.613H223.171C222.955 114.613 222.792 114.775 222.792 114.991Z" fill="#06C282"/>
</g>
</g>
<g id="Group_199">
<g id="Group_200">
<path id="Vector_202" d="M219.818 114.991C219.818 115.207 219.981 115.37 220.197 115.37H221.873C222.089 115.37 222.251 115.207 222.251 114.991C222.251 114.775 222.089 114.613 221.873 114.613H220.197C219.981 114.613 219.818 114.775 219.818 114.991Z" fill="#06C282"/>
</g>
</g>
</g>
<g id="Group_201">
<g id="Group_202">
<g id="Group_203">
<path id="Vector_203" d="M222.143 112.613V114.127C222.143 114.343 222.305 114.505 222.521 114.505C222.738 114.505 222.9 114.343 222.9 114.127V112.613C222.9 112.397 222.738 112.235 222.521 112.235C222.305 112.235 222.143 112.397 222.143 112.613Z" fill="#06C282"/>
</g>
</g>
<g id="Group_204">
<g id="Group_205">
<path id="Vector_204" d="M222.143 115.858V117.372C222.143 117.588 222.305 117.751 222.522 117.751C222.738 117.751 222.9 117.588 222.9 117.372V115.858C222.9 115.642 222.738 115.48 222.522 115.48C222.305 115.48 222.143 115.642 222.143 115.858Z" fill="#06C282"/>
</g>
</g>
</g>
</g>
</g>
</g>
</g>
</g>
<g id="Group_206">
<g id="Group_207">
<g id="Group_208">
<g id="Group_209">
<path id="Vector_205" d="M17.6319 42.3283C17.6319 43.6798 16.5506 44.761 15.1991 44.761C13.8476 44.761 12.7664 43.6798 12.7664 42.3283C12.7664 40.9767 13.8476 39.8955 15.1991 39.8955C16.5506 39.8955 17.6319 40.9767 17.6319 42.3283ZM13.5232 42.3283C13.5232 43.2473 14.2801 44.0041 15.1991 44.0041C16.1181 44.0041 16.875 43.2473 16.875 42.3283C16.875 41.4092 16.1181 40.6524 15.1991 40.6524C14.2801 40.6524 13.5232 41.4092 13.5232 42.3283Z" fill="#FFC149"/>
</g>
<g id="Group_210">
<path id="Vector_206" d="M20.1182 29.8951C20.1182 31.2466 19.037 32.3278 17.6854 32.3278C16.3339 32.3278 15.2527 31.2466 15.2527 29.8951C15.2527 28.5435 16.3339 27.4623 17.6854 27.4623C19.037 27.4082 20.1182 28.5435 20.1182 29.8951ZM16.0095 29.8951C16.0095 30.8141 16.7664 31.5709 17.6854 31.5709C18.6045 31.5709 19.3613 30.8141 19.3613 29.8951C19.3613 28.976 18.6045 28.2192 17.6854 28.2192C16.7664 28.2192 16.0095 28.976 16.0095 29.8951Z" fill="#FA6634"/>
</g>
<g id="Group_211">
<g id="Group_212">
<g id="Group_213">
<path id="Vector_207" d="M25.1473 24.0025C25.1473 24.2187 24.9852 24.3809 24.7689 24.3809H23.093C22.8768 24.3809 22.7146 24.2187 22.7146 24.0025C22.7146 23.7862 22.8768 23.624 23.093 23.624H24.7689C24.9852 23.624 25.1473 23.7862 25.1473 24.0025Z" fill="#9D2CFF"/>
</g>
<g id="Group_214">
<path id="Vector_208" d="M28.1205 24.0025C28.1205 24.2187 27.9583 24.3809 27.7421 24.3809H26.0662C25.8499 24.3809 25.6877 24.2187 25.6877 24.0025C25.6877 23.7862 25.8499 23.624 26.0662 23.624H27.7421C27.9583 23.624 28.1205 23.7862 28.1205 24.0025Z" fill="#9D2CFF"/>
</g>
</g>
<g id="Group_215">
<g id="Group_216">
<path id="Vector_209" d="M25.7957 21.6231V23.1368C25.7957 23.353 25.6335 23.5152 25.4172 23.5152C25.201 23.5152 25.0388 23.353 25.0388 23.1368V21.6231C25.0388 21.4068 25.201 21.2446 25.4172 21.2446C25.5794 21.2446 25.7957 21.4068 25.7957 21.6231Z" fill="#9D2CFF"/>
</g>
<g id="Group_217">
<path id="Vector_210" d="M25.7954 24.813V26.3267C25.7954 26.543 25.6332 26.7051 25.417 26.7051C25.2008 26.7051 25.0386 26.543 25.0386 26.3267V24.813C25.0386 24.5968 25.2008 24.4346 25.417 24.4346C25.5792 24.4346 25.7954 24.6508 25.7954 24.813Z" fill="#9D2CFF"/>
</g>
</g>
</g>
<g id="Group_218">
<g id="Group_219">
<g id="Group_220">
<g id="Group_221">
<g id="Group_222">
<g id="Group_223">
<path id="Vector_211" d="M22.3883 37.0308C22.3883 37.247 22.2261 37.4092 22.0099 37.4092H20.334C20.1177 37.4092 19.9556 37.247 19.9556 37.0308C19.9556 36.8145 20.1177 36.6523 20.334 36.6523H22.0099C22.2261 36.6523 22.3883 36.8145 22.3883 37.0308Z" fill="#06C282"/>
</g>
</g>
</g>
<g id="Group_224">
<g id="Group_225">
<path id="Vector_212" d="M25.3611 37.0313C25.3611 37.2475 25.1989 37.4097 24.9826 37.4097H23.2527C23.0365 37.4097 22.8743 37.2475 22.8743 37.0313C22.8743 36.815 23.0365 36.6528 23.2527 36.6528H24.9286C25.1448 36.6528 25.3611 36.815 25.3611 37.0313Z" fill="#06C282"/>
</g>
</g>
</g>
<g id="Group_226">
<g id="Group_227">
<g id="Group_228">
<path id="Vector_213" d="M23.0371 34.6533V36.167C23.0371 36.3833 22.8749 36.5455 22.6587 36.5455C22.4425 36.5455 22.2803 36.3833 22.2803 36.167V34.6533C22.2803 34.4371 22.4425 34.2749 22.6587 34.2749C22.8209 34.2749 23.0371 34.4911 23.0371 34.6533Z" fill="#06C282"/>
</g>
</g>
<g id="Group_229">
<g id="Group_230">
<path id="Vector_214" d="M23.0369 37.8965V39.4102C23.0369 39.6264 22.8747 39.7886 22.6585 39.7886C22.4422 39.7886 22.28 39.6264 22.28 39.4102V37.8965C22.28 37.6802 22.4422 37.5181 22.6585 37.5181C22.8206 37.5181 23.0369 37.6802 23.0369 37.8965Z" fill="#06C282"/>
</g>
</g>
</g>
</g>
</g>
</g>
</g>
</g>
</g>
</g>
</svg>
