<svg width="73" height="21" viewBox="0 0 73 21" fill="none" xmlns="http://www.w3.org/2000/svg">
<g id="Group 1000002940">
<g id="Group 1000002936">
<g id="Group 1000002930">
<circle id="Ellipse 94" cx="36.5" cy="10.5001" r="10.5" fill="#FEDE80"/>
<g id="Group 1000002926">
<path id="Vector" d="M40.9479 11.5023C40.9479 11.5023 40.7223 11.8203 40.2412 12.0478C39.9358 12.1922 39.5933 12.2355 39.2568 12.2065C38.6903 12.1577 37.5376 12.167 37.2408 12.9956C37.1604 13.2201 37.1638 13.4617 37.2327 13.6845C36.955 13.87 36.6851 14.1009 36.4601 14.3815V11.6698C36.7787 11.1193 37.1081 10.6845 37.3959 10.3564C37.5679 10.5027 37.8206 10.583 38.1308 10.5854C38.6855 10.5896 39.1696 10.2449 39.4314 9.75587C39.5754 9.48697 39.8869 9.14488 40.537 8.77314C40.537 8.77314 37.9501 7.65546 37.2316 9.03264C37.0962 9.29218 37.0647 9.59466 37.1308 9.87709C36.9254 10.1005 36.6958 10.3785 36.4601 10.713V7.59428C36.7002 7.54557 36.9294 7.42914 37.1156 7.24291C37.5509 6.80763 37.6185 6.12569 37.2772 5.61343L36.2023 4.00006L35.1274 5.61343C34.7861 6.12569 34.8537 6.80763 35.289 7.24291C35.4752 7.42913 35.7044 7.54555 35.9445 7.59427V10.5153C35.7479 10.208 35.5203 9.96001 35.2939 9.76367C35.3286 9.51503 35.2904 9.25775 35.173 9.03264C34.4546 7.65546 31.8676 8.77314 31.8676 8.77314C32.5177 9.14488 32.8292 9.48697 32.9732 9.75587C33.2351 10.2449 33.7191 10.5896 34.2738 10.5854C34.635 10.5826 34.9188 10.4746 35.0866 10.2787C35.469 10.6529 35.8344 11.2038 35.9445 11.9876V14.5739C35.7391 14.2846 35.5078 14.0452 35.2726 13.8486C35.3449 13.505 35.303 13.1405 35.1391 12.8262C34.2394 11.1016 31 12.5012 31 12.5012C31.814 12.9667 32.2041 13.3951 32.3844 13.7318C32.7123 14.3442 33.3185 14.7759 34.0131 14.7705C34.4841 14.7669 34.8513 14.6214 35.0573 14.3564C35.4104 14.6787 35.7411 15.1121 35.9445 15.6922V16.9415C35.9445 17.0838 36.0599 17.1993 36.2023 17.1993C36.3447 17.1993 36.4601 17.0838 36.4601 16.9415V15.5497C36.5829 14.9155 37.0225 14.4565 37.4944 14.1354C37.5033 14.1448 37.5108 14.1554 37.52 14.1646C37.7348 14.3775 38.0713 14.5851 38.5817 14.6249C39.1499 14.6692 39.7196 14.4812 40.1581 14.117C40.6849 13.6794 41.2542 12.8692 40.9479 11.5023Z" fill="#5F5633"/>
</g>
<g id="Mask group">
<mask id="mask0_3460_6218" style="mask-type:alpha" maskUnits="userSpaceOnUse" x="26" y="0" width="21" height="21">
<circle id="Ellipse 96" cx="36.5" cy="10.5001" r="10.5" fill="#5F5633"/>
</mask>
<g mask="url(#mask0_3460_6218)">
<line id="Line 160" x1="30.416" y1="1.72271" x2="42.416" y2="19.7227" stroke="#5F5633"/>
</g>
</g>
</g>
</g>
<g id="Group 1000002935">
<g id="Group 1000002933">
<g id="Group 1000002932">
<circle id="Ellipse 93" cx="10.5" cy="10.5" r="10.5" fill="#F0A456"/>
</g>
<g id="Group 1000002931">
<g id="Group 1000002927">
<path id="Vector_2" d="M11.2876 2.04078C11.2057 2.0822 11.1446 2.14402 11.0834 2.20583C11.0325 2.27785 10.9919 2.36006 10.9615 2.43198C10.9008 2.5963 10.8606 2.76053 10.8411 2.94515C10.8112 3.11957 10.8018 3.29389 10.8027 3.47841C10.8029 3.51942 10.8031 3.56042 10.8034 3.60142L10.8143 3.73463L10.8361 4.00106L10.9357 5.44599C11.0371 5.24045 11.1488 5.02461 11.2811 4.82917C11.4133 4.61323 11.5558 4.40748 11.7292 4.23234C11.8209 4.13961 11.9025 4.05719 12.0149 3.98486C12.1171 3.92284 12.2398 3.86072 12.3628 3.83959C12.2399 3.88122 12.1481 3.95344 12.0665 4.03586C11.9849 4.11828 11.9136 4.2109 11.8526 4.31373C11.7203 4.50917 11.6291 4.7249 11.5483 4.95084C11.4674 5.17678 11.3865 5.40271 11.3261 5.62855C11.3059 5.69016 11.2961 5.76197 11.2759 5.82357C13.0716 6.17332 13.4506 8.13966 13.2362 10.355L11.4115 10.3642L11.414 10.8563L13.1772 10.8474C13.1081 11.3705 13.0185 11.9143 12.8981 12.4275L12.2831 12.4306L12.2855 12.9226L12.7776 12.9202C12.2355 15.1987 11.4049 17.1916 11.1911 17.4695C11.0179 17.6856 10.8441 17.7788 10.7108 17.7692C10.5672 17.7699 10.3925 17.6785 10.2275 17.4743C10.0933 17.3008 9.73045 16.4927 9.34553 15.3773L9.67356 15.3756L9.67108 14.8836L9.17903 14.8861C8.90837 14.0673 8.63719 13.1461 8.43762 12.1937L9.58573 12.1879L9.58325 11.6959L8.33263 11.7022C8.18518 10.9238 8.08894 10.1349 8.07502 9.40717L10.1662 9.39662L10.1638 8.90457L8.05225 8.95622C8.10538 7.29524 8.69343 6.00061 10.2302 5.80834C10.2196 5.75714 10.1989 5.71624 10.1987 5.67524C10.1465 5.48072 10.0841 5.29651 10.0011 5.11241C9.9699 5.02031 9.91818 4.9283 9.86646 4.8363C9.81474 4.7443 9.77332 4.6625 9.7114 4.5808C9.59776 4.4071 9.46372 4.25401 9.30929 4.12152C9.50452 4.2128 9.66916 4.33498 9.8237 4.48797C9.89582 4.55937 9.97824 4.64096 10.0402 4.72266C10.1021 4.80436 10.1743 4.89626 10.2362 4.97796C10.3189 5.10056 10.4015 5.22316 10.4636 5.34586L10.5389 4.01281L10.5581 3.74618L10.5676 3.61286C10.5776 3.56156 10.5774 3.52055 10.5874 3.46925C10.607 3.28462 10.6471 3.0999 10.6974 2.92537C10.7478 2.75084 10.8084 2.56602 10.8999 2.41178C10.9405 2.32957 10.9914 2.25755 11.0628 2.18543C11.1239 2.12362 11.1954 2.072 11.2876 2.04078Z" fill="#362613"/>
</g>
</g>
</g>
</g>
<g id="Group 1000002937">
<g id="Group 1000002934">
<circle id="Ellipse 95" cx="10.5" cy="10.5" r="10.5" transform="matrix(-1 0 0 1 73 6.10352e-05)" fill="#EE4629"/>
<path id="Vector_3" d="M56.2209 6.44687C56.4171 6.21681 56.7031 6.10774 56.9843 6.12493C56.9154 5.82415 56.9977 5.49294 57.2441 5.25563C57.5696 4.94227 58.0892 4.91386 58.4481 5.1882C58.8714 5.51147 58.9323 6.11767 58.5908 6.51762C58.5278 6.591 58.4555 6.65115 58.3772 6.70007L59.4633 7.61962C59.5021 7.65268 59.5604 7.64805 59.5939 7.60905C59.7265 7.45369 59.9602 7.43519 60.1155 7.56674L61.0349 8.34549C61.1073 8.40631 61.1997 8.43738 61.2941 8.43209C63.086 8.33623 66.1664 9.78663 67.2171 10.6758C68.5409 11.797 68.0179 13.1959 66.8923 14.5147C65.7666 15.8336 64.4635 16.5726 63.1396 15.4508C62.0896 14.5616 60.1571 11.7666 59.9636 9.99027C59.9535 9.89639 59.908 9.81045 59.8357 9.74963L58.9162 8.97088C58.7602 8.83867 58.7415 8.60598 58.8741 8.45128C58.9069 8.41228 58.9022 8.3541 58.8633 8.32105L57.7772 7.4015C57.7163 7.54561 57.6212 7.6798 57.4739 7.78425C57.1216 8.0348 56.6301 8.01761 56.3074 7.73005C55.935 7.39753 55.8949 6.82835 56.2203 6.44691L56.2209 6.44687ZM62.6615 10.0749C64.1393 10.5476 65.5167 11.2642 66.7402 12.2168C67.1701 12.5513 67.7212 11.908 67.29 11.5729C66.0083 10.5753 64.5686 9.80453 63.0197 9.30868C62.8028 9.23926 62.5597 9.28422 62.4559 9.5136C62.3695 9.70267 62.4418 10.0048 62.6615 10.0755L62.6615 10.0749Z" fill="#2F2F2F"/>
</g>
</g>
</g>
</svg>
